<svg width="53" height="98" viewBox="0 0 53 98" fill="none" xmlns="http://www.w3.org/2000/svg">
<path d="M0.00889995 95.1116L2.16344 97.2661L10.4231 89.0065L8.26853 86.8519L0.00889995 95.1116Z" fill="white"/>
<path d="M8.26552 97.259L10.4201 95.1045L2.16042 86.8449L0.00588763 88.9994L8.26552 97.259Z" fill="white"/>
<path d="M0.00864055 73.4002L2.16318 75.5547L10.4228 67.2951L8.26828 65.1405L0.00864055 73.4002Z" fill="white"/>
<path d="M8.26546 75.5481L10.42 73.3936L2.16036 65.1339L0.0058266 67.2885L8.26546 75.5481Z" fill="white"/>
<path d="M4.07121e-06 51.6838L2.15454 53.8384L10.4142 45.5787L8.25964 43.4242L4.07121e-06 51.6838Z" fill="white"/>
<path d="M8.27042 53.8289L10.425 51.6743L2.16532 43.4147L0.0107857 45.5692L8.27042 53.8289Z" fill="white"/>
<path d="M0.000156659 29.9724L2.15469 32.127L10.4143 23.8673L8.25979 21.7128L0.000156659 29.9724Z" fill="white"/>
<path d="M8.26996 32.1179L10.4245 29.9634L2.16486 21.7037L0.0103279 23.8583L8.26996 32.1179Z" fill="white"/>
<path d="M0.00799968 8.26587L2.16254 10.4204L10.4222 2.16078L8.26763 0.00623859L0.00799968 8.26587Z" fill="white"/>
<path d="M8.265 10.4148L10.4195 8.26025L2.15991 0.000619281L0.00536884 2.15516L8.265 10.4148Z" fill="white"/>
<path d="M21.8472 95.1116L24.0018 97.2661L32.2614 89.0065L30.1069 86.8519L21.8472 95.1116Z" fill="white"/>
<path d="M30.0981 97.2688L32.2526 95.1143L23.993 86.8546L21.8384 89.0092L30.0981 97.2688Z" fill="white"/>
<path d="M21.8471 73.4002L24.0016 75.5547L32.2613 67.2951L30.1067 65.1405L21.8471 73.4002Z" fill="white"/>
<path d="M30.0982 75.5574L32.2527 73.4028L23.9931 65.1432L21.8386 67.2977L30.0982 75.5574Z" fill="white"/>
<path d="M21.838 51.6834L23.9926 53.8379L32.2522 45.5783L30.0977 43.4237L21.838 51.6834Z" fill="white"/>
<path d="M30.1034 53.8367L32.2579 51.6821L23.9983 43.4225L21.8437 45.577L30.1034 53.8367Z" fill="white"/>
<path d="M21.8382 29.9724L23.9927 32.127L32.2524 23.8673L30.0978 21.7128L21.8382 29.9724Z" fill="white"/>
<path d="M30.1032 32.1257L32.2577 29.9712L23.9981 21.7116L21.8436 23.8661L30.1032 32.1257Z" fill="white"/>
<path d="M21.8464 8.26539L24.0009 10.4199L32.2605 2.16029L30.106 0.0057557L21.8464 8.26539Z" fill="white"/>
<path d="M30.099 10.4226L32.2535 8.26807L23.9939 0.00843178L21.8393 2.16296L30.099 10.4226Z" fill="white"/>
<path d="M42.1624 95.1116L44.3169 97.2661L52.5766 89.0065L50.422 86.8519L42.1624 95.1116Z" fill="white"/>
<path d="M50.4183 97.2585L52.5729 95.104L44.3132 86.8444L42.1587 88.9989L50.4183 97.2585Z" fill="white"/>
<path d="M42.1622 73.4002L44.3167 75.5547L52.5763 67.2951L50.4218 65.1405L42.1622 73.4002Z" fill="white"/>
<path d="M50.4182 75.5476L52.5727 73.3931L44.3131 65.1334L42.1586 67.288L50.4182 75.5476Z" fill="white"/>
<path d="M42.1528 51.6843L44.3073 53.8389L52.567 45.5792L50.4124 43.4247L42.1528 51.6843Z" fill="white"/>
<path d="M50.4225 53.8274L52.5771 51.6729L44.3174 43.4132L42.1629 45.5677L50.4225 53.8274Z" fill="white"/>
<path d="M42.153 29.9729L44.3075 32.1274L52.5671 23.8678L50.4126 21.7133L42.153 29.9729Z" fill="white"/>
<path d="M50.4221 32.1164L52.5766 29.9619L44.317 21.7023L42.1624 23.8568L50.4221 32.1164Z" fill="white"/>
<path d="M42.1615 8.26588L44.3161 10.4204L52.5757 2.16078L50.4212 0.00624398L42.1615 8.26588Z" fill="white"/>
<path d="M50.4178 10.4143L52.5724 8.25977L44.3127 0.000131L42.1582 2.15466L50.4178 10.4143Z" fill="white"/>
</svg>
