<svg width="560" height="603" viewBox="0 0 560 603" fill="none" xmlns="http://www.w3.org/2000/svg">
<path d="M178.892 134.184C109.129 196.391 135.064 385.461 284.523 309.129C433.983 232.796 301.699 24.6799 178.892 134.184Z" fill="#FFCAA8"/>
<path d="M344.976 503.067C383.667 482.106 406.053 437.238 398.526 395.737C397.616 390.723 396.22 385.585 392.807 381.645C389.005 377.257 383.059 374.872 377.093 374.211C365.727 372.951 354.323 377.464 345.361 384.181C336.4 390.898 329.485 399.689 322.679 408.372C315.054 418.101 307.429 427.83 299.803 437.557C292.591 446.758 285.246 456.207 281.803 467.182C278.362 478.157 279.556 491.15 287.91 499.448C293.845 505.343 307.774 523.22 344.976 503.067Z" fill="#ADC4A9"/>
<path d="M321.73 522.955C324.712 499.937 340.706 481.391 356.488 465.496C361.81 460.136 367.439 455.093 372.768 449.742C378.6 443.888 382.807 436.23 387.812 429.672C402.911 409.881 420.495 393.756 438.829 377.012C447.881 368.747 456.932 358.882 468.305 354.33C470.872 353.302 479.004 349.864 477.203 345.623C473.302 336.444 450.893 336.743 443.1 336.334C429.581 335.626 421.152 341.144 409.749 347.971C395.926 356.249 382.411 364.992 370.941 376.425C353.031 394.281 345.602 424.515 340.4 448.366C338.681 456.243 338.511 464.838 335.802 472.433C334.108 477.181 331.48 481.635 328.946 485.968C321.898 498.014 313.648 509.387 305.446 520.66C298.176 530.648 290.692 540.475 283.277 550.355C282.054 551.987 274.452 559.738 275.635 562.224C275.854 562.681 276.242 562.915 276.75 562.889C279.76 562.731 284.601 556.76 286.737 554.927C295.308 547.564 302.962 539.296 309.321 529.946C316.377 519.573 319.795 507.466 323.396 495.594C327.526 481.981 331.056 468.189 334.428 454.374C337.285 442.669 340.353 431.072 341.033 419.004C341.734 406.582 340.256 394.044 338.626 381.753C336.923 368.923 335.591 355.224 332.313 342.704C329.052 330.246 324.002 317.902 322.668 305.043C321.678 295.479 321.913 285.835 320.445 276.314C319.309 268.94 314.448 263.967 309.243 258.966C307.661 257.447 304.688 253.282 302.144 253.659C297.863 254.297 297.192 259.397 297.719 263.003C300.322 280.85 311.148 297.005 313.515 315.085C314.212 320.399 313.551 325.848 313.543 331.185C313.539 333.601 312.748 339.37 314.357 341.402C318.124 346.162 325.243 344.963 329.817 341.818C346.147 330.589 351.479 315.394 353.032 296.543C354.309 281.024 350.055 260.924 335.43 252.475C320.434 243.811 302.301 238.534 284.912 238.25C275.829 238.102 268.519 245.463 259.904 247.334C249.346 249.628 240.445 255.714 232.107 262.532C205.449 284.333 201.541 331.485 220.819 359.075C224.143 363.832 235.747 381.293 242.183 372.382C245.865 367.287 246.941 359.421 248.361 353.443C250.711 343.549 254.29 334.39 258.502 325.121C264.043 312.931 272.489 304.116 280.817 293.906C286.969 286.363 289.409 272.606 290.562 263.276C291.391 256.572 290.191 248.805 284.711 244.404C281.913 242.159 276.961 241.064 273.734 239.333C267.971 236.243 262.31 233.098 256.257 230.589C244.768 225.83 233.515 224.856 221.374 223.425C209.733 222.054 195.975 220.417 184.454 223.548C173.849 226.428 163.337 230.198 153.79 235.688C142.47 242.199 133.149 252.729 123.267 261.152C116.975 266.516 113.095 272.524 110.355 280.2C108.915 284.234 105.631 291.996 108.563 296.003C111.386 299.865 120.311 296.876 123.701 295.537C127.917 293.871 131.99 290.701 135.849 288.373C143.284 283.89 151.433 281.154 159.91 279.53C171.545 277.302 183.978 274.437 195.807 273.994C208.125 273.532 219.765 277.755 232.122 277.262C240.082 276.943 250.132 276.364 256.202 270.708C260.179 267.001 262.88 263.048 267.759 260.174C271.775 257.805 274.211 254.753 276.297 250.648C281.746 239.934 276.135 231.003 269.947 222.197C261.149 209.674 251.795 197.53 241.942 185.82C230.739 172.502 218.552 158.954 203.812 149.481C189.865 140.518 171.668 131.56 154.682 132.691C144.47 133.373 124.864 138.379 129.455 152.275C132.2 160.582 141.53 165.534 147.182 171.501C154.597 179.327 159.567 189.669 164.958 198.893C173.689 213.836 182.401 229.94 199.598 235.391C216.426 240.727 234.547 243.49 252.126 244.603C262.373 245.254 276.981 246.055 276.215 232.204C275.694 222.757 270.241 213.049 266.933 204.384C263.131 194.425 257.106 180.683 260.772 169.874C262.206 165.644 263.092 163.232 262.127 158.649C261.383 155.122 256.833 151.933 253.411 154.147C248.504 157.322 247.393 162.933 249.65 168.147C253.53 177.115 254.25 186.549 257.936 195.663C261.21 203.76 263.739 212.201 266.147 220.587C267.258 224.455 268.279 228.358 269.024 232.313C269.715 235.973 269.207 232.838 267.803 230.565C259.743 217.52 253.513 203.41 245.441 190.368C242.104 184.977 239.909 180.599 239.305 174.184C238.984 170.76 241.012 165.271 239.798 161.95C238.282 157.803 233.599 156.735 229.561 157.836C225.585 158.919 221.976 161.083 222.843 165.674C223.466 168.966 226.253 172.008 228.355 174.408C231.204 177.665 232.836 181.809 235.312 185.354C245.241 199.571 261.012 211.401 268.099 227.404C268.343 227.954 260.086 222.174 258.984 221.115C253.852 216.184 249.59 210.452 245.101 204.961C237.346 195.474 228.852 186.605 220.762 177.411C215.327 171.235 210.511 166.303 210.078 158.01C209.888 154.314 206.581 148.429 201.992 150.288C197.581 152.073 189.604 157.852 190.874 163.668C192.108 169.323 196.307 168.551 200.703 170.488C205.548 172.624 209.775 177.598 213.483 181.209C220.174 187.727 226.488 194.638 232.761 201.554C241.437 211.12 249.8 220.955 258.329 230.649C259.612 232.106 259.116 230.586 258.074 230.161C256.681 229.595 255.348 228.846 254.015 228.154C250.198 226.171 246.475 224 242.729 221.888C237.965 219.202 216.12 211.085 217 205.289C217.667 200.888 219.368 195.727 213.553 195.099C209.091 194.618 200.526 202.329 200.027 206.782C199.58 210.743 202.258 212.219 206.002 212.129C213.399 211.954 217.829 215.812 223.914 219.598C236.233 227.26 248.816 235.73 262.37 241.053C270.868 244.389 268.354 237.367 264.25 233.138C258.628 227.347 251.652 222.975 246.233 216.976C239.223 209.215 234.549 196.044 230.445 186.402C223.698 170.549 216.004 155.033 215.397 137.637C214.853 122.043 214.4 107.483 219.067 92.3913C223.612 77.6948 232.602 64.0055 243.327 53.1397C251.796 44.5584 273.658 26.9151 281.949 45.5914C284.77 51.9479 285.568 59.5389 287.193 66.2725C288.783 72.8584 291.294 79.32 293.837 85.5871C298.978 98.2548 299.126 112.629 301.165 125.948C303.419 140.677 301.313 154.595 298.831 169.133C296.303 183.949 297.317 198.828 288.604 211.794C285.993 215.677 283.112 219.424 280.206 223.091C277.617 226.356 278.492 222.084 278.709 220.461C279.335 215.765 281.049 211.2 282.616 206.75C289.106 188.304 300.425 174.561 314.949 162.118C333.758 146.005 354.259 138.355 379.006 136.114C390.898 135.036 401.425 137.558 412.364 142C420.225 145.19 430.409 149.311 436.087 155.883C439.915 160.313 431.964 171.202 429.432 173.599C424.625 178.145 417.122 178.983 410.923 180.078C400.916 181.846 391.234 183.725 381.7 187.333C367.512 192.704 353.633 201.665 340.935 209.852C334.414 214.056 326.762 216.017 319.386 218.247C311.128 220.742 303.009 223.648 294.615 225.637C293.126 225.99 291.628 226.322 290.148 226.709C287.622 227.365 288.737 227.826 289.576 226.678C291.563 223.956 293.989 221.512 296.293 219.065C301.875 213.135 307.113 208.378 314.354 204.686C318.731 202.455 323.188 200.379 327.677 198.386C333.064 195.993 337.668 196.14 343.566 196.648C361.974 198.231 379.922 210.01 391.295 224.341C401.288 236.932 409.414 252.541 412.346 268.416C413.988 277.303 414.29 285.028 413.371 294.084C412.872 298.991 412.36 303.905 410.989 308.658C409.952 312.256 398.168 300.462 398.675 300.97C393.157 295.464 386.136 292.524 381.405 286.262C377.286 280.81 373.215 276.568 367.902 272.204C356.182 262.584 344.594 256.04 330.819 249.675C323.041 246.08 313.843 241.089 305.474 239.21C298.698 237.687 283.061 233.725 277.955 240.763C277.153 241.869 278.804 243.204 279.609 242.095C284.931 234.757 305.639 241.127 312.019 244.228C317.786 247.032 324.107 248.956 329.975 251.621C339.745 256.056 349.454 260.613 358.283 266.751C363.152 270.135 367.554 274.639 372.112 278.448C376.758 282.329 379.032 287.959 383.385 292.008C386.839 295.219 391.179 297.06 394.809 300.094C398.967 303.569 401.704 307.076 406.288 310.105C407.044 310.603 411.695 313.064 412.499 310.765C418.746 292.894 416.836 273.784 411.302 256.127C405.656 238.121 393.388 221.264 378.8 209.588C372.167 204.282 364.518 199.239 356.241 196.993C349.701 195.22 338.939 192.003 332.154 194.319C322.809 197.506 311.596 202.039 304.025 208.546C299.741 212.229 295.835 216.405 292.017 220.555C290.31 222.407 286.289 225.691 286.386 228.55C286.403 229.044 286.855 229.379 287.292 229.474C291.688 230.437 301.24 226.332 305.742 224.845C313.488 222.288 321.321 219.954 329.092 217.436C343.67 212.714 356.523 202.807 369.908 195.489C377.062 191.576 384.201 188.378 392.057 186.075C402.307 183.068 413.086 182.542 423.301 179.436C431.641 176.901 444.99 161.362 436.259 153.01C425.229 142.453 405.656 135.274 390.723 133.873C371.771 132.093 347.827 137.438 331.373 147.123C318.461 154.725 303.969 166.205 295.335 178.664C290.138 186.164 285.399 194.203 281.909 202.637C279.13 209.351 274.54 219.986 276.462 227.499C276.571 227.922 277.158 228.257 277.577 228.164C282.302 227.104 286.465 218.413 289.037 214.843C296.237 204.853 297.963 195.338 298.964 183.261C300.093 169.664 303.918 156.418 304.637 142.766C305.231 131.502 302.567 119.198 301.258 108.05C299.784 95.4758 295.201 83.9846 291.151 72.1205C288.172 63.3917 288.25 47.0511 281.257 40.0054C267.901 26.5479 248.736 44.6673 239.416 54.1083C221.978 71.7735 212.217 97.4079 212.701 122.06C212.88 131.032 211.879 141.838 214.341 150.511C216.708 158.854 220.103 166.916 223.369 174.938C226.199 181.887 229.067 188.826 232.305 195.595C236.223 203.78 240.159 213.963 246.672 220.479C252.474 226.283 259.48 230.776 264.928 236.957C268.47 240.975 262.741 238.937 260.937 238.171C257.386 236.663 253.982 234.784 250.596 232.944C239.705 227.027 229.176 220.438 218.691 213.84C215.794 212.017 213.066 209.932 209.674 209.201C209.146 209.186 208.62 209.23 208.098 209.333C206.855 209.463 197.25 213.915 203.846 204.128C207.107 199.291 217.097 196.485 214.909 204.994C212.98 212.498 229.437 216.986 233.799 219.332C240.309 222.833 246.667 226.612 253.181 230.104C254.799 230.973 258.533 233.708 260.577 232.699C261.027 232.476 261.274 232.097 261.242 231.584C261.096 229.263 257.35 226.287 255.931 224.646C251.119 219.084 246.288 213.541 241.411 208.037C231.035 196.319 220.558 184.451 208.893 173.983C206.632 171.954 203.33 168.503 200.112 168.014C196.661 167.488 191.399 167.258 193.632 160.507C195.914 153.611 208.643 153.517 207.929 161.721C207.794 163.278 208.507 164.816 209.297 166.113C213.902 173.67 220.337 180.16 226.23 186.703C234.839 196.261 243.03 206.077 251.302 215.917C255.649 221.086 261.159 227.94 267.69 230.355C269.561 231.048 270.92 229.443 270.389 227.647C268.578 221.512 263.445 216.164 259.512 211.322C253.207 203.561 246.527 196.117 240.26 188.324C235.486 182.389 232.003 175.773 227.281 169.78C219.056 159.345 238.856 154.905 237.474 166.438C237.266 168.172 237.115 170.141 237.152 171.888C237.275 177.51 238.319 182.164 240.876 187.19C247.622 200.445 255.712 213.397 262.979 226.428C263.676 227.677 272.232 242.273 271.313 233.153C269.64 216.572 260.371 201.784 256.666 185.851C255.64 181.442 255.74 176.915 254.393 172.562C254.083 171.56 252.944 169.7 252.428 168.79C251.804 166.596 251.18 164.403 250.557 162.211C257.818 158.347 261.172 158.765 260.619 163.463C260.489 167.607 257.65 171.046 257.703 175.408C257.827 185.619 261.477 195.695 264.971 205.159C268.198 213.903 282.348 238.329 267.198 242.081C259.866 243.898 251.254 242.526 243.856 241.792C233.816 240.797 223.84 239.048 213.982 236.922C206.551 235.321 198.958 233.495 192.035 230.282C182.387 225.807 174.98 211.289 169.614 202.555C164.066 193.523 159.169 184.107 153.062 175.426C146.817 166.549 136.11 161.421 131.44 151.488C125.54 138.94 149.841 135.133 157.195 134.645C168.792 133.872 179.818 139.68 189.898 144.631C222.661 160.726 245.422 191.566 266.282 220.678C268.326 223.528 270.414 226.241 271.87 229.43C274.145 234.413 276.987 237.816 276.212 243.638C274.948 253.156 268.206 256.614 261.435 261.873C256.062 266.05 254.65 271.409 247.074 273.102C242.155 274.203 236.899 274.725 231.879 275.145C219.442 276.188 208.009 271.056 195.566 271.876C172.942 273.369 148.995 277.693 129.554 289.74C126.723 291.493 111.221 300.547 109.78 293.137C108.939 288.815 111.551 283.179 112.957 279.242C117.562 266.337 129.359 259.595 138.906 250.649C148.965 241.219 158.433 235.277 171.194 230.037C186.381 223.801 201.574 224.049 217.63 225.239C231.887 226.294 245.267 228.321 258.565 233.829C263.505 235.877 268.231 238.685 272.904 241.273C280.68 245.577 287.286 247.276 288.521 257.546C290.122 270.879 283.639 287.577 275.061 297.462C266.891 306.878 260.507 315.604 255.338 326.977C252.053 334.208 249.018 341.588 247.167 349.319C246.06 353.947 245.008 358.576 243.686 363.149C242.25 368.111 240.363 375.607 233.738 370.561C223.175 362.513 214.902 346.43 212.247 333.707C206.775 307.507 216.713 273.171 240.756 259.248C247.566 255.304 252.116 251.153 260.174 249.434C263.835 248.653 267.131 247.676 270.43 245.807C281.317 239.634 289.448 240.356 301.253 242.211C311.179 243.771 320 247.847 329.204 251.627C343.279 257.407 351.443 274.682 351.279 289.371C351.185 297.798 350.126 306.279 348.142 314.461C346.699 320.419 344.111 324.807 339.83 329.106C337.685 331.261 335.59 333.47 333.462 335.644C331.43 337.717 317.837 350.519 315.942 338.444C314.507 329.299 317.961 318.83 314.771 309.913C311.45 300.629 309.507 291.069 306.042 281.809C304.499 277.684 302.993 273.55 301.619 269.366C301.338 268.51 297.11 252.445 303.604 256.41C309.113 259.773 315.616 267.418 317.615 273.249C320.731 282.342 319.73 293.497 320.388 302.976C321.13 313.663 324.718 323.759 327.736 333.973C332.009 348.436 333.877 363.74 336.068 378.644C338.152 392.817 339.603 407.143 338.794 421.476C338.109 433.629 334.399 445.654 331.529 457.421C327.635 473.376 323.303 489.224 318.321 504.875C310.762 528.61 295.602 545.423 276.496 560.73C278.855 558.839 276.714 563.345 278.16 561.046C278.502 560.5 278.878 559.975 279.246 559.446C280.356 557.847 281.525 556.284 282.684 554.719C286.588 549.446 290.567 544.229 294.509 538.986C304.34 525.91 314.066 512.74 323.145 499.127C329.149 490.124 336.492 480.067 338.941 469.336C341.498 458.141 342.771 446.718 345.63 435.538C349.335 421.06 354.577 407.057 361.666 393.898C370.812 376.92 385.991 365.227 402.039 355.183C414.2 347.573 426.116 338.074 440.921 338.36C448.369 338.503 455.838 339.438 463.131 340.913C466.861 341.667 470.841 342.673 474.041 344.832C479.026 348.199 462.53 354.385 460.963 355.078C458.869 356.004 456.856 357.313 455.322 359.019C449.888 365.062 443.559 369.846 437.596 375.292C428.362 383.725 418.81 391.913 409.855 400.64C396.527 413.629 384.819 429.044 374.518 444.502C371.501 449.03 366.735 452.696 362.842 456.397C356.591 462.34 350.497 468.426 344.74 474.853C332.646 488.361 322.022 504.321 319.648 522.647C319.45 524.013 321.553 524.317 321.73 522.955Z" fill="black"/>
</svg>
