<svg width="360" height="504" viewBox="0 0 360 504" fill="none" xmlns="http://www.w3.org/2000/svg">
<path d="M205.999 403.067C167.308 382.106 144.922 337.238 152.449 295.737C153.359 290.723 154.755 285.585 158.168 281.645C161.97 277.257 167.916 274.872 173.882 274.211C185.248 272.951 196.652 277.464 205.614 284.181C214.575 290.898 221.49 299.689 228.296 308.372C235.921 318.101 243.546 327.83 251.172 337.557C258.384 346.758 265.729 356.207 269.172 367.182C272.613 378.157 271.419 391.15 263.065 399.448C257.13 405.343 243.201 423.22 205.999 403.067Z" fill="#CCDBB6"/>
<path d="M277.676 36.215C306.287 62.9519 317.899 105.124 298.21 136.63C286.276 155.726 264.354 215.997 220.062 195.981C205.205 189.267 203.495 173.334 192.149 163.444C180.716 153.476 160.117 150.206 152.439 138.353C148.717 132.605 148.869 125.914 149.102 119.515C149.505 108.425 149.908 97.3386 150.308 86.2517C150.52 80.3815 150.782 74.3372 153.908 68.9622C157.546 62.7031 164.645 58.0517 171.522 53.622C182.979 46.2413 194.435 38.8606 205.892 31.4776C213.966 26.2745 222.551 20.8838 232.969 19.4049C250.157 16.965 266.664 25.9263 277.676 36.215Z" fill="#EB99B7"/>
<path d="M25.2547 244.229C18.2159 214.18 27.5947 176.691 51.9336 157.069C66.6858 145.175 103.626 102.983 122.872 132.24C129.327 142.053 124.148 155.425 127.218 166.766C130.31 178.194 141.62 186.924 141.681 198.766C141.71 204.508 139.004 209.866 136.362 214.965C131.783 223.801 127.206 232.635 122.631 241.47C120.208 246.148 117.686 250.952 113.677 254.369C109.008 258.348 102.854 260.006 96.9208 261.55C87.037 264.124 77.1531 266.698 67.2684 269.273C60.3018 271.088 52.9501 272.904 46.0065 271.019C34.5506 267.909 27.9644 255.793 25.2547 244.229Z" fill="#B68BAD"/>
<path d="M180.552 2.22708C177.46 3.8269 175.008 6.17334 173.622 8.6264L171.383 12.5727L170.317 9.1597C169.464 6.17334 168.824 5.7467 165.413 5.42673C162.108 5.10678 160.722 5.7467 157.417 8.83972L153.365 12.466V25.6913C153.365 36.2502 153.792 40.3032 155.711 46.3825C160.615 61.9543 165.626 65.0473 175.008 58.2213C182.044 53.1018 187.801 51.3954 193.452 53.1018C201.981 55.6616 209.763 65.2606 213.708 77.846C216.587 87.0184 216.054 90.4314 213.175 82.0056C209.337 71.1267 205.606 64.6207 200.488 59.9278C192.279 52.3553 184.71 52.6752 173.089 61.2077C169.251 63.9807 166.052 65.2606 161.148 66.1138C148.141 68.2469 149.208 67.1804 150.061 75.7129C150.487 80.8324 150.274 85.0986 149.208 89.2581C144.303 108.669 146.329 115.069 160.402 124.775C163.707 127.014 167.971 130.747 169.89 133.2C173.835 138.213 175.008 138.426 178.419 134.8C180.658 132.454 186.735 129.574 194.411 127.334C195.904 126.908 194.198 128.401 190.68 130.534C173.409 140.986 163.707 157.731 167.758 169.997C169.571 175.649 175.434 181.622 183.857 186.635C191.533 191.221 192.386 192.608 193.878 202.42C194.625 206.899 194.625 207.006 192.172 206.153C185.029 203.593 177.247 205.833 168.611 213.085C162.747 217.885 158.483 219.271 156.351 217.138C154.218 215.005 157.204 212.765 165.413 210.312C176.394 207.113 173.622 204.34 161.894 206.793C150.807 209.139 146.329 216.178 152.406 221.831C154.858 224.178 155.818 224.391 162.747 223.858C167.012 223.644 175.541 223.431 181.831 223.324C191.746 223.324 193.558 223.644 196.224 225.564C199.209 227.804 201.021 233.457 198.782 233.457C198.143 233.457 197.61 233.137 197.61 232.603C197.61 231.11 189.934 223.858 188.334 223.858C186.842 223.858 186.735 225.138 187.375 234.203C187.695 239.963 188.548 248.495 189.081 253.188C189.614 257.881 190.04 270.573 190.04 281.452V301.183L187.055 295.424C184.176 289.878 184.176 289.558 185.776 286.358C188.441 281.238 188.121 268.226 185.243 262.787C183.963 260.441 180.658 254.255 177.886 249.135C174.795 243.269 172.769 238.043 172.556 235.27C171.916 225.884 165.626 230.79 165.626 240.709C165.626 246.042 165.519 246.362 163.814 245.082C162.214 243.696 162.108 244.016 162.747 248.602C163.28 252.761 163.174 253.721 161.894 253.721C160.082 253.721 159.762 257.561 161.361 261.614C161.894 263.107 164.24 266.413 166.479 268.866C168.718 271.426 172.023 275.372 173.622 277.719L176.714 281.985L170.957 276.652C167.758 273.666 162.001 269.4 158.163 267.053C147.502 260.761 143.664 257.348 136.841 248.388C133.429 243.909 129.058 238.896 127.139 237.296C125.326 235.696 123.94 234.31 124.154 234.097C124.367 233.99 127.459 232.07 130.977 229.937C138.333 225.564 145.796 218.312 147.395 213.939C151.02 204.446 144.943 182.262 135.561 170.21C130.657 164.13 125.113 161.677 117.011 162.211C108.801 162.744 102.938 166.37 97.7138 174.156C93.9824 179.596 93.1295 178.422 95.7948 171.916C97.7138 167.223 99.6328 165.837 106.136 163.597C111.893 161.571 115.518 157.731 115.518 153.572C115.518 144.079 106.989 130.107 98.8865 126.268C93.4493 123.708 84.3872 124.668 75.7516 128.721C68.9284 131.92 61.1457 137.786 61.1457 139.92C61.1457 140.453 62.3185 142.479 63.7044 144.293C69.3549 151.758 71.1673 156.771 71.5938 166.797C71.807 172.023 71.5938 178.209 71.0607 180.449C70.421 183.542 70.2078 181.729 70.1012 172.983C70.1012 163.597 69.6747 160.291 67.7557 155.385C63.4912 144.612 55.6019 140.133 45.5803 142.693C35.1323 145.359 32.3604 149.625 32.3604 163.277C32.2538 178.636 30.7612 186.208 25.9636 193.461C23.7248 196.98 21.2727 202.207 20.633 205.193C18.6074 214.472 21.5925 228.977 27.4562 238.256C34.0662 248.495 49.2051 259.587 54.1093 257.668C55.0688 257.241 56.8812 251.695 59.0135 242.309C61.7854 230.364 62.8515 227.271 64.9838 225.671C66.7962 224.284 67.5425 222.578 67.5425 220.018C67.5425 215.539 65.9433 215.325 63.4912 219.591C61.2523 223.538 59.6532 223.218 59.2267 218.525C58.4804 210.739 62.2119 206.686 66.583 210.632C68.2888 212.126 68.9284 212.232 69.9946 211.166C70.9541 210.099 70.7409 209.459 68.8218 208.179C66.0499 206.259 65.6235 201.033 68.1822 197.407C70.421 194.101 72.5533 194.421 75.0054 198.474C78.0971 203.593 77.6707 206.153 72.8731 210.952C69.2483 214.579 68.6086 215.858 68.6086 219.805C68.502 224.391 67.3293 228.231 59.6532 248.922C49.4184 276.119 51.8705 284.225 66.0499 270.573C72.1268 264.707 73.1929 264.067 75.0054 265.24C77.8839 266.947 77.6707 267.16 79.6963 261.72C80.9757 258.627 82.7881 256.281 85.2402 254.788C87.1592 253.508 89.8245 251.268 91.1038 249.668C93.0229 247.109 93.2361 245.935 92.5964 238.789C91.8501 230.79 91.8501 230.684 95.7948 225.031C101.658 216.498 104.004 210.526 104.111 203.486C104.324 197.727 104.004 196.874 100.912 193.781C97.927 190.901 96.5411 190.368 90.8906 189.941C83.8542 189.408 84.174 187.595 91.3171 187.595C96.7543 187.595 101.445 190.368 103.897 195.274C106.349 200.073 106.456 204.766 104.217 211.699C103.364 214.579 102.192 218.205 101.658 219.911C99.5262 226.631 116.158 251.375 130.337 262.68C134.175 265.773 142.171 271.426 148.035 275.266C153.899 279.105 161.148 284.758 164.24 287.851L169.784 293.504L162.534 297.023C149.741 303.316 144.623 311.102 144.197 325.501C144.09 328.06 143.877 328.807 143.557 327.314C142.384 319.101 141.958 317.715 141.105 317.715C140.465 317.715 135.668 326.354 130.337 337.019C125.113 347.685 120.529 356.111 120.316 355.897C120.102 355.684 122.448 349.285 125.646 341.712C134.282 321.234 133.536 319.634 120.955 331.9L113.066 339.579L117.544 332.966C120.635 328.487 124.9 324.434 130.657 320.168C143.77 310.675 143.877 310.569 142.704 309.289C142.065 308.649 140.146 308.542 137.374 309.182C135.028 309.715 133.003 310.035 132.896 309.822C132.683 309.609 137.374 307.262 143.237 304.489C149.101 301.716 153.899 299.05 153.899 298.517C153.899 295.21 121.382 293.291 113.279 296.17C108.482 297.877 104.217 302.25 103.044 306.729C102.511 308.862 100.806 311.102 98.4601 312.595C95.1551 314.835 94.7287 315.688 94.7287 319.741C94.7287 323.581 94.3022 324.541 92.3832 325.287C89.2914 326.46 89.1848 330.513 92.0633 333.18C94.1956 335.1 94.1956 335.206 92.17 337.339C91.1038 338.619 88.6517 342.352 86.7327 345.765C83.3211 351.844 83.2145 352.271 83.8542 361.763C84.174 368.269 85.3468 374.242 87.1592 379.362C94.7287 401.119 100.486 404.106 109.228 390.667C114.985 381.815 117.864 380.215 126.712 381.175L133.536 381.921L135.988 376.802C137.693 373.069 139.186 371.469 141.105 371.043C146.436 369.976 147.715 368.376 148.781 361.977C149.314 358.564 149.954 355.364 150.274 354.938C150.594 354.404 152.832 354.298 155.391 354.618C160.828 355.364 161.681 354.511 162.961 346.512C164.027 340.219 166.052 336.273 171.383 330.513C173.835 327.847 176.5 324.754 177.14 323.581C178.313 321.448 178.419 321.554 180.445 324.114C184.39 329.127 187.801 337.446 190.147 348.112C191.426 353.978 194.411 364.537 196.65 371.576C206.352 402.293 208.697 417.011 207.098 437.382C206.032 451.781 201.768 480.578 198.782 494.55C197.716 499.349 197.29 503.616 197.716 503.936C198.889 504.682 200.168 499.136 203.9 477.165C208.484 450.288 209.763 435.889 209.017 419.678C208.378 404.746 206.885 397.6 198.676 371.576C196.33 363.897 193.345 353.231 192.172 347.792C189.72 336.593 188.228 332.646 183.537 325.074L180.232 319.741L182.044 311.955C184.176 303.103 183.963 297.983 181.618 297.983C178.419 297.983 176.074 304.809 176.714 312.275C177.353 320.061 176.82 321.554 170.423 328.487C164.773 334.566 162.428 339.046 160.935 346.512C159.975 351.418 159.336 352.484 157.31 352.698C155.924 352.911 154.112 352.484 153.259 351.738C151.98 350.671 151.34 350.778 150.274 351.951C148.461 353.871 146.436 359.95 146.436 363.577C146.436 367.096 144.837 368.589 140.572 369.123C138.013 369.336 136.947 370.296 135.028 374.242L132.789 379.042H124.793C115.518 379.042 114.026 380.002 106.882 390.347C104.644 393.654 102.085 396.64 101.125 397.067C95.4749 399.2 85.6666 375.095 85.6666 359.204C85.6666 351.418 87.9055 345.765 93.0229 339.792C96.6477 335.739 96.6477 334.993 92.9162 330.833L90.784 328.594L94.1956 326.78C97.2874 325.181 97.5006 324.754 96.8609 321.021C96.2212 317.395 96.5411 316.861 100.379 313.768C103.044 311.635 104.857 309.182 105.177 307.049C106.882 298.943 116.158 295.744 134.922 296.703C141.212 297.023 147.075 297.663 147.928 298.197C149.101 298.837 144.943 301.396 133.109 307.369C124.047 311.955 116.584 316.221 116.584 316.861C116.584 317.395 117.224 317.715 117.97 317.395C121.808 315.902 137.054 311.315 138.12 311.315C138.76 311.315 136.521 313.235 133.003 315.688C123.514 322.301 119.036 326.887 112.106 337.446C103.684 350.031 105.923 350.671 117.117 338.833C121.808 333.926 126.499 329.127 127.565 328.38C129.804 326.78 130.124 325.607 119.143 352.164C114.878 362.297 113.386 367.203 114.132 367.95C115.625 369.443 120.209 361.87 131.723 339.046L140.572 321.448L141.532 327.634C142.278 332.54 142.811 333.713 144.197 333.5C145.583 333.18 146.009 331.26 146.649 323.794C147.075 317.928 148.035 313.022 149.314 310.569C151.66 306.089 160.935 299.157 167.118 297.237C170.637 296.17 171.276 296.17 172.236 297.77C173.302 299.69 175.754 300.223 176.714 298.623C177.673 297.023 176.287 294.357 174.048 293.717C172.876 293.291 169.464 290.411 166.372 287.104C163.387 283.905 154.645 277.079 146.969 271.959C126.286 258.307 112.64 243.696 105.283 227.697L102.831 222.151L105.497 214.259C109.974 201.567 108.162 193.781 99.5262 187.808C97.394 186.422 94.4088 185.462 91.9567 185.462C87.1592 185.462 78.3103 188.235 76.0715 190.368C74.7921 191.648 75.8583 191.861 84.2806 191.861C89.7179 191.861 95.3683 192.394 96.8609 193.141C99.7394 194.421 102.725 198.9 102.725 201.887C102.725 207.219 99.8461 215.005 95.1551 222.364L89.8245 230.79L90.4642 238.896L91.2104 246.895L84.8137 252.441C81.2955 255.534 78.0971 259.161 77.7773 260.654C77.2442 262.894 76.6045 263.214 74.4723 262.68C72.34 262.147 70.8475 263.214 65.5168 268.546C59.2267 274.946 56.2416 276.439 55.2821 273.666C54.3225 271.426 58.4804 257.241 64.2375 242.309C67.2226 234.63 69.9946 225.564 70.3144 222.151C70.9541 216.925 71.7004 215.219 75.3252 211.379C79.0566 207.326 79.4831 206.366 78.95 203.06C78.6302 201.033 77.3508 197.834 76.0715 196.127C71.7004 190.048 65.9433 193.141 64.6639 202.207C64.2375 205.3 63.278 206.793 60.7193 208.393C57.8407 210.312 57.4143 211.272 57.0945 215.965C56.8812 220.018 57.3077 222.045 58.8003 223.858C60.8259 226.417 60.5061 228.337 54.2159 253.401C53.4696 256.708 51.1242 256.494 45.1539 252.655C23.7248 238.896 15.5156 211.592 27.5628 194.527C32.467 187.701 33.4265 183.862 33.853 168.077C34.386 152.292 35.6654 148.985 42.2753 145.892C52.6167 141.199 60.6127 144.506 65.8367 155.598C67.7557 159.651 68.0755 162.424 68.0755 174.263C68.0755 185.888 68.2888 188.128 69.6747 188.128C73.6194 188.128 75.4318 165.304 72.2334 156.025C70.7409 151.652 67.9689 146.746 63.811 140.986C61.359 137.68 78.417 128.081 88.5451 127.121C95.5816 126.481 99.9527 128.081 104.537 132.987C110.721 139.6 114.985 152.718 112.533 157.411C111.893 158.584 108.482 160.611 104.963 161.891C97.5006 164.557 93.6625 168.61 92.5964 174.689C91.8501 179.276 92.5964 183.328 94.3022 183.328C94.8353 183.328 95.9014 181.729 96.7543 179.702C98.7799 174.796 105.71 167.33 109.868 165.517C114.345 163.704 123.407 163.704 127.139 165.624C134.175 169.357 140.892 180.342 144.41 193.781C146.862 203.593 146.969 210.099 144.623 215.005C142.598 219.271 134.708 225.991 126.926 229.83C122.555 232.07 121.169 232.39 118.503 231.43C114.345 229.937 111.04 231.644 111.467 234.843C111.787 237.296 112.746 237.51 118.397 236.23C121.275 235.59 122.341 236.016 126.286 239.536C128.738 241.776 133.216 247.002 136.308 251.162C141.958 258.734 146.969 263 158.696 270.04C166.159 274.519 172.662 280.492 177.247 287.211C179.059 289.771 181.191 292.117 182.151 292.544C185.669 293.824 190.147 306.409 191.213 317.715C192.492 330.833 193.132 333.713 195.051 333.713C197.396 333.713 196.97 321.341 194.411 313.235C192.599 307.476 192.279 303.316 192.279 284.118C192.172 270.573 191.426 254.894 190.253 244.336C189.294 234.843 188.654 226.737 188.974 226.417C189.294 226.097 191.746 228.444 194.411 231.43C199.849 237.616 201.874 237.723 201.874 231.75C201.874 222.151 188.121 218.312 166.692 221.831C158.376 223.218 153.365 222.045 152.299 218.418C151.446 215.645 152.513 212.445 154.645 211.699C156.031 211.166 156.137 211.272 155.071 212.552C153.152 214.792 154.005 218.738 156.564 219.591C159.656 220.765 165.946 218.312 170.637 214.259C182.364 203.913 192.812 204.766 196.863 216.178C198.249 220.338 199.315 221.725 200.808 221.725C203.9 221.725 203.58 217.245 200.168 213.192C198.249 210.952 196.863 207.433 195.904 202.313C195.051 198.047 194.625 194.527 194.838 194.314C195.051 194.101 196.544 194.634 198.249 195.594C199.955 196.447 201.874 197.194 202.514 197.194C204.22 197.194 213.282 213.085 214.987 219.165C215.947 222.258 216.907 227.484 217.333 230.897L217.973 237.19L215.521 233.137C208.804 221.938 207.098 219.485 205.819 219.911C203.473 220.658 203.9 223.644 207.525 231.537C214.668 247.002 221.064 255.001 221.064 248.282C221.064 247.215 222.024 245.295 223.303 244.016C224.796 242.522 225.436 240.709 225.222 237.936C224.902 231.43 225.009 231.324 230.126 231.324C235.457 231.324 235.884 230.79 238.122 222.151C239.402 216.818 242.813 214.899 249.317 215.858C254.008 216.605 254.754 216.178 259.125 210.739C262.004 207.113 265.948 204.66 268.933 204.66C279.275 204.66 288.017 212.126 295.586 227.377C298.572 233.35 301.024 238.683 301.024 239.323C301.024 239.856 299.638 238.576 297.825 236.55C296.12 234.417 292.281 231.644 289.19 230.257C284.392 228.231 282.153 227.911 273.944 228.337C262.43 228.87 254.754 231.644 243.56 239.323C235.564 244.762 233.112 244.975 232.579 240.176C232.152 236.443 229.167 236.123 228.74 239.749C228.527 241.136 228.954 243.376 229.593 244.762C231.193 247.642 230.446 249.882 222.983 263.32C217.226 273.879 214.987 283.585 213.921 302.783C213.068 317.821 212.002 314.942 211.043 294.784C209.23 258.734 208.378 251.588 204.859 244.336C203.154 240.603 201.128 237.83 200.382 238.043C199.742 238.363 199.422 239.216 199.635 239.963C200.168 241.776 200.168 241.776 199.209 255.321C198.569 263.96 199.102 272.173 201.874 297.45C204.113 317.075 205.392 334.033 205.286 342.565C205.286 361.017 206.885 360.804 211.896 341.712C218.292 317.075 231.086 298.837 247.824 290.624C256.78 286.145 272.452 282.518 282.686 282.518C298.678 282.518 314.883 288.384 325.331 297.983C333.434 305.343 337.485 312.169 342.389 326.354C347.72 341.819 349.532 342.779 348.679 329.873C348.04 319.528 345.374 310.569 341.11 304.276C339.617 302.036 338.658 300.01 338.871 299.797C339.831 298.837 353.264 306.196 355.289 308.756C356.462 310.249 357.742 313.662 358.168 316.328C358.914 321.661 357.208 343.739 355.183 352.378C354.223 356.964 353.903 357.391 352.837 355.791C334.393 325.181 314.67 310.355 292.495 310.249C278.848 310.249 271.599 315.155 261.044 331.26C254.008 342.245 254.221 342.032 230.66 349.071C219.252 352.484 215.521 354.831 213.068 359.95C210.297 365.71 211.363 377.975 217.333 413.172C224.156 452.527 226.395 468.313 226.395 477.378V485.057L222.557 485.377C220.211 485.591 218.186 486.444 217.44 487.617C216.48 489.217 216.907 490.07 219.678 492.63C223.836 496.363 225.862 495.936 227.674 490.924C228.847 487.724 229.38 487.297 232.792 487.297C234.817 487.297 241.001 488.257 246.438 489.324C252.942 490.604 256.14 490.817 255.927 490.07C255.5 488.897 238.122 485.271 232.152 485.271L228.847 485.164L228.207 473.112C227.568 461.913 226.075 451.781 217.866 404.639C213.602 379.682 212.642 365.283 215.094 360.59C217.653 355.684 220.318 354.298 237.269 349.178C251.875 344.699 252.622 344.379 257.099 339.366C259.658 336.593 264.242 330.62 267.228 326.247C274.584 315.688 280.554 312.382 292.068 312.382C314.137 312.382 331.835 325.821 351.558 357.604C353.157 360.164 353.69 360.377 354.97 359.204C356.995 357.071 359.767 338.193 359.98 324.647C360.194 309.929 358.808 307.049 348.786 301.716C343.989 299.157 330.875 294.25 330.875 295.104C330.875 295.317 332.794 297.663 335.033 300.116C337.379 302.676 340.257 306.622 341.43 309.076C344.202 314.302 346.867 324.434 346.76 328.914C346.76 331.26 345.801 329.553 343.349 322.408C341.43 317.181 338.338 310.355 336.419 307.369C323.945 287.958 298.252 277.612 272.238 281.345C238.336 286.358 219.785 304.169 209.977 340.966L207.631 350.031L207.418 339.472C207.418 333.606 205.819 315.582 204.113 299.263C201.021 271.213 200.275 254.894 201.768 247.962C202.301 245.295 202.62 245.082 203.793 246.469C206.032 249.135 207.098 258.307 208.804 288.384C209.657 304.169 210.723 318.248 211.043 319.634C211.682 321.768 214.668 323.047 214.668 321.128C214.668 320.701 215.201 312.809 215.734 303.529C217.12 283.052 219.572 273.026 225.755 262.36C228.314 257.881 230.979 252.441 231.726 250.202C232.579 247.642 233.645 246.255 234.817 246.255C235.884 246.255 240.788 243.589 245.585 240.389C256.14 233.35 265.735 230.15 275.97 230.044C288.55 229.937 295.267 234.097 301.344 245.722C304.435 251.588 304.755 251.908 305.075 249.135C305.715 243.589 299.318 227.591 292.388 217.352C287.164 209.672 281.514 205.3 274.371 203.593C267.334 201.887 262.75 203.486 257.846 209.246C254.114 213.619 253.794 213.725 247.717 213.725C240.041 213.725 237.589 215.752 235.564 223.431L234.284 228.657L228.954 229.19L223.73 229.724L223.41 236.336C223.197 240.069 222.664 243.056 222.131 243.056C221.704 243.056 220.958 240.496 220.531 237.403C218.826 224.284 215.627 213.405 211.043 205.62L206.352 197.727L210.297 197.087C215.84 196.127 218.826 194.741 224.583 190.368C227.355 188.235 229.913 186.528 230.34 186.528C230.766 186.528 233.005 188.661 235.457 191.221C244.626 201.247 256.78 200.073 262.75 188.555C264.989 183.968 269.253 180.235 276.396 176.396C282.793 172.876 285.672 168.183 284.605 162.851C283.753 158.051 279.488 153.892 269.36 147.812C264.775 145.039 259.871 141.839 258.379 140.666C256.14 138.853 256.78 138.96 261.897 141.306C267.228 143.653 269.04 143.973 273.944 143.333C281.3 142.479 291.748 137.253 295.16 132.774C301.557 124.348 305.182 110.163 303.156 100.884C302.516 97.684 299.425 91.0713 296.12 85.4185C292.921 79.9791 289.936 74.0064 289.723 72.0866C289.403 70.0601 290.043 66.1138 291.322 62.4875C295.693 49.9022 295.267 41.2631 290.043 36.3569C286.524 33.1572 261.257 19.1853 254.327 16.7322C246.758 14.0659 231.939 13.5326 229.167 15.7723C227.035 17.5855 227.141 18.5454 230.553 31.2374C234.284 45.316 233.325 63.1275 227.888 76.5661C226.928 79.0192 225.969 80.8324 225.755 80.619C225.542 80.4057 226.395 75.7129 227.674 70.1668C229.38 62.7009 230.02 56.5148 230.02 45.7426C230.126 31.7707 230.02 31.1308 227.035 25.798C220.745 14.4925 208.378 4.46683 197.077 1.48047C188.654 -0.652649 186.096 -0.54599 180.552 2.22708ZM203.9 6.38666C212.216 10.4395 221.704 19.6119 225.436 27.1845C230.126 36.7835 229.38 56.4082 223.197 80.2991C220.745 89.8981 220.638 91.6046 222.131 91.6046C223.943 91.6046 230.446 76.9927 232.792 67.7137C235.67 56.3015 235.67 42.3296 232.685 31.2374C229.274 18.652 229.38 17.6921 234.178 16.5189C239.402 15.1324 251.556 17.1589 258.272 20.4652C271.279 26.9712 286.311 35.7169 288.977 38.49C291.642 41.3697 291.962 42.3296 291.855 48.729C291.748 52.8885 290.789 58.4346 289.403 62.1676C285.991 71.8733 285.672 70.9134 297.292 92.1378C300.917 98.6439 301.45 100.457 301.45 106.536C301.45 126.694 289.083 141.093 271.705 141.199C265.202 141.199 264.349 140.88 250.383 132.134C248.997 131.281 247.504 130.854 247.184 131.281C245.159 133.307 255.394 142.053 269.253 150.159C279.062 156.025 282.9 159.971 282.9 164.664C282.9 169.25 281.194 171.276 273.518 175.756C265.522 180.449 264.136 181.835 260.404 188.448C254.861 198.58 244.519 198.687 235.777 188.768C233.645 186.422 231.193 184.395 230.34 184.395C229.487 184.395 226.928 185.888 224.689 187.701C219.359 191.861 214.135 194.634 209.337 195.487C205.712 196.127 205.286 195.807 199.955 189.728C193.878 182.795 191.213 181.729 191.213 185.995V188.768L186.842 186.315C180.445 182.689 171.916 174.796 170.317 170.85C165.839 160.291 172.982 145.146 187.162 135.227C193.558 130.747 203.793 126.161 204.859 127.334C205.179 127.654 203.154 131.067 200.488 135.12C197.716 139.066 195.477 142.693 195.477 143.119C195.477 144.826 198.249 143.653 201.661 140.346L205.286 136.933L201.554 144.506C198.036 151.545 197.61 153.465 199.849 153.465C200.275 153.465 203.154 149.839 206.245 145.466C209.23 141.093 212.429 137.467 213.175 137.467C214.987 137.467 216.373 142.799 217.973 156.451C219.785 171.81 222.877 170.103 223.09 153.678C223.197 149.519 223.516 145.999 224.05 145.999C224.476 145.999 226.608 149.625 228.847 153.998C233.112 162.317 234.924 163.917 234.924 159.331C234.924 156.238 230.34 143.759 227.355 138.64C222.45 130.427 229.167 129.787 240.468 137.467C244.732 140.346 248.464 142.266 248.57 141.733C249.743 138.533 239.402 129.467 230.979 126.161C228.421 125.201 226.395 123.815 226.395 123.068C226.395 120.935 234.924 115.815 244.839 111.976C254.114 108.35 258.912 105.15 257.846 103.23C256.353 100.99 249.423 102.483 238.336 107.603C231.939 110.483 226.182 112.936 225.436 112.936C223.303 112.936 224.156 109.629 229.06 98.9638C231.726 93.2044 233.858 87.9783 233.858 87.3383C233.858 84.4586 230.873 87.445 225.755 95.1242C222.77 99.7104 219.145 104.723 217.866 106.216L215.414 109.096L213.175 106.216C211.896 104.617 208.484 98.5372 205.606 92.6711C202.727 86.8051 199.955 82.0056 199.529 82.0056C197.503 82.0056 198.996 87.125 204.113 98.1106C207.098 104.617 209.337 110.056 209.124 110.269C208.911 110.483 205.179 107.603 200.808 103.87C196.437 100.03 192.172 96.9374 191.533 96.9374C188.548 96.9374 190.467 100.564 197.716 108.243C201.768 112.722 204.966 116.562 204.646 116.882C204.433 117.202 198.782 117.842 192.066 118.375C185.456 118.908 179.272 119.655 178.419 119.975C175.328 121.255 180.872 122.428 190.04 122.428C199.955 122.535 200.275 123.388 191.213 126.268C183.857 128.614 179.592 130.747 176.607 133.52C175.221 134.693 174.048 135.547 173.835 135.227C173.622 135.013 172.449 133.2 171.063 131.387C169.784 129.467 165.199 125.414 160.828 122.428C155.071 118.482 152.299 115.815 150.7 112.509C148.035 106.856 148.035 103.763 150.807 91.0713C152.619 82.8588 152.832 79.9791 151.98 76.4595C150.38 70.0601 151.02 69.4202 159.336 68.567C165.839 67.927 167.758 67.1804 174.581 62.5942C184.176 56.0882 188.228 55.3416 195.051 58.5413C203.473 62.7009 211.896 78.6992 213.495 93.7377C214.241 100.457 215.84 101.097 217.226 95.2309C219.678 84.9919 213.388 66.7538 204.22 57.5814C195.051 48.409 186.735 47.9824 174.475 55.9815C168.078 60.1411 167.118 60.4611 165.199 59.1812C159.442 55.4483 154.858 40.5165 154.751 24.9447C154.645 14.9191 156.457 10.4395 161.255 8.51974C166.692 6.17334 168.185 7.2399 169.144 13.7459C170.104 20.6785 171.596 22.8116 172.556 18.4388C174.688 9.05304 177.033 5.53339 182.684 3.18698C187.162 1.26718 196.33 2.65369 203.9 6.38666ZM224.05 105.47C222.237 110.589 222.131 112.189 223.197 113.469C224.902 115.495 227.781 114.856 238.975 109.523C247.398 105.47 256.993 102.91 254.647 105.15C254.114 105.79 248.57 108.243 242.493 110.803C236.31 113.362 229.7 116.882 227.781 118.588C222.77 122.961 223.41 125.414 230.02 127.974C233.005 129.041 236.097 130.747 236.95 131.707C238.442 133.307 238.336 133.307 235.777 131.707C232.259 129.467 225.436 129.787 223.836 132.347C222.983 133.734 223.623 135.867 226.715 142.053C228.847 146.426 230.66 150.585 230.66 151.438C230.553 152.292 229.593 151.012 228.421 148.665C227.141 146.319 225.436 143.226 224.476 141.733L222.664 139.066L221.917 143.866C221.597 146.532 221.171 151.012 221.064 153.998C220.851 159.118 220.745 159.011 219.359 150.692C216.8 135.44 214.774 132.774 209.23 138.106L206.032 141.199L207.205 138.106C208.591 134.374 207.844 133.414 205.073 135.12C202.301 136.827 202.407 135.973 205.179 132.24C206.458 130.534 207.205 128.294 206.992 127.228C206.565 125.201 205.392 124.988 200.062 126.054C197.29 126.694 197.396 126.588 200.595 125.201C204.433 123.388 205.073 121.468 201.768 121.468C200.595 121.468 199.955 120.935 200.275 120.402C200.595 119.762 202.087 119.335 203.58 119.335C208.484 119.335 207.738 116.349 200.701 108.35L193.878 100.67L200.275 106.11C203.793 109.096 207.738 112.189 209.124 112.829C211.256 114.002 211.469 113.789 211.469 111.336C211.469 108.883 211.682 108.669 213.708 109.843C215.521 110.803 216.373 110.589 218.612 108.563C219.998 107.176 222.131 104.51 223.303 102.59C224.583 100.67 225.649 99.0705 225.862 99.0705C226.075 99.0705 225.222 101.95 224.05 105.47ZM197.929 190.261C199.529 192.288 200.382 193.994 199.742 193.994C198.249 193.994 193.345 189.088 193.345 187.595C193.345 185.568 194.944 186.528 197.929 190.261ZM200.808 218.312C200.808 219.911 200.595 219.911 199.742 218.525C198.356 216.392 198.356 215.005 199.742 215.858C200.382 216.178 200.808 217.352 200.808 218.312ZM213.495 233.883C216.587 239.109 218.932 244.442 218.719 245.615C218.506 247.215 217.333 245.935 214.348 240.389C210.083 232.817 205.179 221.405 206.992 223.324C207.525 223.858 210.403 228.657 213.495 233.883ZM117.011 233.35C117.33 233.883 116.904 234.63 115.945 234.95C113.812 235.803 112.853 235.057 113.919 233.563C114.772 232.177 116.264 232.07 117.011 233.35ZM172.129 241.456C172.769 243.802 176.181 250.842 179.699 257.241C185.243 267.053 186.202 269.506 186.309 274.306C186.309 279.532 184.283 286.785 182.791 286.785C182.471 286.785 180.765 284.545 179.059 281.878C177.353 279.212 173.409 273.986 170.423 270.36C164.666 263.64 162.428 260.121 162.428 257.881C162.428 256.921 162.747 256.921 163.92 257.881C166.052 259.694 166.799 257.881 165.626 253.615C164.24 248.815 164.24 248.388 166.159 248.388C167.438 248.388 167.758 246.895 167.758 241.669C167.758 237.723 168.291 234.417 169.144 233.563C170.21 232.497 170.53 232.71 170.743 234.737C170.85 236.123 171.49 239.109 172.129 241.456ZM181.191 306.196C180.125 313.768 178.526 316.435 178.419 310.569C178.419 306.089 179.912 300.65 181.191 300.65C181.618 300.65 181.511 303.103 181.191 306.196ZM194.091 323.794C193.772 324.861 193.558 324.221 193.558 322.514C193.558 320.701 193.772 319.954 194.091 320.594C194.305 321.341 194.305 322.834 194.091 323.794ZM225.542 489.537C225.116 493.377 223.623 494.123 221.171 491.67C218.292 488.79 218.292 487.511 221.384 486.977C225.009 486.337 225.862 486.764 225.542 489.537Z" fill="black"/>
</svg>
