<svg width="479" height="529" viewBox="0 0 479 529" fill="none" xmlns="http://www.w3.org/2000/svg">
<path d="M232.501 499.529C271.191 478.569 293.578 433.7 286.051 392.199C285.14 387.185 283.744 382.047 280.331 378.107C276.53 373.719 270.583 371.334 264.617 370.673C253.251 369.413 241.847 373.927 232.885 380.643C223.924 387.36 217.009 396.151 210.204 404.834C202.578 414.563 194.953 424.292 187.327 434.019C180.115 443.22 172.77 452.669 169.327 463.644C165.886 474.62 167.081 487.612 175.434 495.91C181.369 501.805 195.299 519.682 232.501 499.529Z" fill="#CCDBB6"/>
<path d="M378.983 161.275C346.786 157.042 318.114 139.86 291.463 121.865C264.812 103.873 238.483 84.3619 207.696 74.3072C176.911 64.2518 139.92 65.4291 115.371 86.0751C101.813 97.4763 93.317 113.71 88.7239 130.521C73.2353 187.208 101.747 249.698 149.396 285.807C197.044 321.916 260.323 334.358 320.74 331.003C353.871 329.163 388.124 322.316 414.195 302.407C440.266 282.497 455.653 246.831 443.304 216.999C432.18 190.131 406.861 164.939 378.983 161.275Z" fill="#FFD6ED"/>
<path d="M138.676 130.742C138.681 130.73 138.685 130.717 138.692 130.703C138.685 130.712 138.68 130.726 138.676 130.742Z" fill="black"/>
<path d="M477.898 122.867C477.719 122.364 477.052 122.275 476.606 122.055C474.973 121.34 473.164 121.409 471.431 121.692C469.28 121.97 467.18 122.496 465.124 123.145C460.432 124.571 455.988 126.589 451.708 128.885C448.17 130.755 444.756 132.82 441.427 135.003C444.222 130.344 446.725 125.531 448.724 120.513C449.823 117.815 450.934 115.116 451.662 112.303C452.239 110.151 452.467 107.938 452.733 105.737C452.899 103.466 453.15 101.195 453.058 98.9158C452.967 97.4427 452.705 95.9863 452.454 94.5311C452.319 93.7472 452.071 92.9876 451.723 92.2639C451.485 91.64 450.917 91.0316 450.176 91.0213C449.56 91.0815 449.115 91.5747 448.598 91.8552C447.295 92.6686 445.915 93.3655 444.509 94.0072C440.338 95.7826 435.065 97.485 429.977 98.2574C426.236 98.821 422.522 99.2386 418.35 99.4807C414.354 99.6665 410.338 99.6332 406.372 100.21C404.487 100.452 402.596 100.677 400.729 101.027C399.012 101.357 397.352 101.897 395.677 102.372C388.054 104.487 380.936 107.941 374.258 111.97C368.211 115.727 362.627 120.187 357.997 125.455C356.26 127.285 354.26 129.953 352.876 131.717C352.856 131.633 352.834 131.548 352.814 131.462C352.705 129.732 352.594 128.001 352.384 126.277C352.138 123.949 351.869 121.621 351.26 119.35C349.943 114.741 347.927 110.327 345.61 106.09C343.966 103.138 342.008 100.103 340.96 97.4594C340.307 95.7416 339.646 93.0452 339.485 92.0256C339.232 90.3386 339.383 88.6259 339.463 86.9325C339.741 84.1388 340.436 80.6136 340.983 77.287C341.773 72.2195 342.84 67.1956 343.764 62.15C343.863 61.6965 343.742 61.156 343.288 60.9177C343.061 60.7947 342.761 60.7614 342.524 60.8729C341.928 61.1406 341.772 61.8925 341.413 62.3767C340.713 63.5898 340.001 64.7977 339.296 66.0082C337.848 68.4497 336.439 70.9104 335.05 73.3801C334.93 72.9753 334.805 72.5705 334.672 72.1683C333.422 68.0539 331.91 64.0176 330.49 59.9544C329.516 57.3106 328.674 54.6065 327.395 52.0766C326.433 50.2679 324.251 46.6326 322.454 47.9699C320.935 49.5301 319.173 50.8443 317.463 52.2124C314.687 54.4335 311.945 56.6944 309.183 58.931C297.71 68.305 286.415 76.4672 274.203 84.7729C272.184 86.1409 270.155 87.532 268.194 89C268.404 87.6832 268.56 86.3587 268.655 85.0303C269.309 71.3472 264.759 57.2798 255.041 46.9733C252.369 44.0886 249.53 41.3474 246.754 38.551C245.408 37.2291 244.115 35.8559 242.684 34.6134C241.85 33.9191 241.06 33.1019 239.956 32.8175C238.104 32.1758 237.238 33.8231 236.335 35.0579C235.243 36.6616 234.192 38.2923 233.187 39.946C229.334 46.5032 225.755 53.3396 223.908 60.6679C223.787 61.1739 223.692 61.6824 223.616 62.1923C221.516 60.2324 219.39 58.2982 217.253 56.3742C213.075 52.7145 209.957 48.1659 206.137 44.2064C205.515 43.6236 204.862 43.028 204.04 42.7116C203.488 42.4656 202.779 42.4631 202.32 42.8883C201.877 43.3149 201.678 43.8977 201.395 44.4191C201.041 45.1274 200.677 45.832 200.304 46.5314C195.107 56.2192 189.382 65.6585 182.993 74.6918C178.53 81.0543 174.117 87.4705 170.446 94.2788C168.565 97.8642 166.673 101.485 165.55 105.359C164.938 107.458 164.473 109.602 164.248 111.77C164.091 113.43 164.242 115.103 164.29 116.766C164.33 117.684 164.379 118.604 164.409 119.522C164.423 119.95 164.429 120.378 164.428 120.806C164.257 120.449 164.105 120.032 163.9 119.57C163.227 117.894 162.66 116.182 162.092 114.472C159.687 106.813 158.592 98.8492 157.675 91.4133C157.094 86.5623 156.616 81.7024 156.128 76.8425C155.723 73.5786 154.23 54.5834 150.546 57.9177C149.735 58.7452 149.553 59.9634 149.126 60.9882C148.55 62.6534 148.006 64.3289 147.466 66.0044C146.086 70.2802 144.769 74.5739 143.271 78.8152C141.519 83.5021 139.574 88.1238 137.941 92.8505C136.451 97.1366 134.88 101.437 133.707 105.82C133.132 104.57 132.525 103.331 131.875 102.114C130.098 98.8633 127.662 95.9837 125.316 93.0875C121.696 88.7156 117.493 84.6819 112.344 81.9279C108.799 79.8233 104.115 78.1862 100.912 76.8912C97.5342 75.5884 94.3244 73.9424 90.998 72.5334C89.3232 71.8276 86.5057 71.4189 86.1868 73.562C86.18 73.5543 86.1732 73.5453 86.1665 73.5376C84.6464 71.6854 83.0585 69.8844 81.3987 68.1423C80.2532 66.9958 79.2448 65.6995 77.8565 64.8028C77.5674 64.5928 77.1982 64.3776 76.8196 64.4634C76.5739 64.5518 76.312 64.7068 76.2143 64.9476C76.0039 65.4779 76.4844 65.9032 76.6811 66.3694C77.4819 67.5928 78.3858 68.7507 79.2123 69.9587C81.4286 73.1803 83.7561 76.3737 85.3902 79.9065C87.6621 84.5871 89.0817 90.8202 89.9435 96.4487C91.3943 106.098 92.267 116.856 93.5074 127.09C94.8917 138.126 97.0564 149.142 100.965 159.648C102.746 164.317 104.78 168.906 107.032 173.39C109.852 178.8 112.948 184.079 116.042 189.352C120.793 197.473 125.288 205.76 131.166 213.229C134.171 217.172 137.234 221.142 141.135 224.346C145.486 228.041 150.57 230.882 155.851 233.223C161.13 235.349 166.582 237.055 171.977 238.897C172.119 238.99 172.259 239.088 172.403 239.181C175.684 241.284 179.164 243.083 182.591 244.962C183.115 245.249 183.64 245.537 184.164 245.824C182.796 245.946 181.432 246.124 180.082 246.334C176.725 246.817 174.266 247.123 170.824 247.515C165.793 248.043 160.757 248.701 155.689 248.763C152.6 248.673 149.806 248.396 147.009 247.956C142.599 246.401 138.15 244.947 133.597 243.808C130.457 242.992 127.29 242.281 124.106 241.635C118.801 239.613 113.748 237.438 108.214 235.156C98.3702 231.148 88.4221 227.302 78.2215 224.175C70.1721 222.091 61.7848 221.764 53.4816 221.585C45.8502 221.398 38.3884 223.151 31.1058 225.129C23.8327 227.157 16.5121 229.301 9.79404 232.669C7.7162 233.799 5.66958 234.986 3.76139 236.359C2.67701 237.193 1.28047 237.982 1.07418 239.382C1.0321 240.038 1.4474 240.588 1.87492 241.068C2.61729 241.766 3.38137 242.464 4.3029 242.95C7.32804 244.682 11.044 243.937 14.3813 243.713C23.7295 242.974 32.8348 240.825 42.0284 239.18C49.8308 237.937 58.5927 237.428 67.0357 237.247C73.7836 237.086 80.5396 237.125 87.2726 237.624C96.082 238.308 104.112 239.473 112.968 240.942C116.62 241.556 120.268 242.208 123.895 242.945C125.523 243.563 127.159 244.165 128.805 244.743C133.281 246.111 137.776 247.47 142.375 248.426C143.739 248.711 145.114 248.966 146.494 249.191C147.853 249.673 149.209 250.163 150.563 250.652C155.522 252.49 159.664 253.954 164.299 256.117C167.475 257.638 170.534 259.356 173.603 261.059C172.087 261.288 170.579 261.558 169.076 261.85C163.65 262.93 158.256 264.151 152.944 265.657C139.396 269.387 125.198 272.805 111.736 274.202C107.387 274.544 103.024 274.903 98.6566 274.795C96.0168 274.656 94.3611 274.351 91.7092 273.924C88.8537 273.447 85.9914 272.961 83.1875 272.257C76.9214 270.645 70.7191 268.81 64.3987 267.386C61.4984 266.709 58.5818 266.098 55.6815 265.42C51.6643 263.086 47.7 260.669 43.714 258.293C37.9514 254.838 32.2092 251.326 26.0639 248.496C23.3346 247.319 20.6311 245.995 17.7295 245.25C16.85 245.079 15.9081 244.897 15.0422 245.193C14.6256 245.446 14.3609 245.878 14.3162 246.342C14.365 246.625 14.3881 246.921 14.5102 247.185C15.0585 247.989 15.8565 248.586 16.5989 249.224C17.6833 250.12 18.784 250.999 19.9023 251.859C21.7196 253.265 23.5517 254.668 25.5766 255.803C29.7242 258.129 34.2151 259.831 38.6734 261.541C43.3272 263.271 48.0379 264.885 52.8695 266.117C53.639 266.305 54.4112 266.487 55.1821 266.668C59.3419 269.075 63.5586 271.386 67.9124 273.472C75.8899 277.117 84.2542 280.011 92.7936 282.24C100.861 284.371 109.152 285.691 117.516 286.133C124.965 286.608 132.462 287.023 139.917 286.47C145.194 286.018 150.426 285.249 155.558 283.991C162.35 282.204 169 279.859 175.294 276.848C180.843 274.233 185.984 270.903 191.558 268.341C192.839 267.786 194.264 267.298 195.769 266.852C193.521 269.208 191.578 271.817 189.401 274.231C186.066 277.938 182.514 281.478 178.628 284.677C175.855 286.893 172.179 289.002 169.231 291.768C168.342 292.681 167.418 293.583 166.705 294.628C165.929 295.794 165.35 297.071 164.87 298.369C164.478 299.917 164.402 301.521 164.371 303.108C164.269 305.427 164.889 307.697 165.4 309.947C165.898 312.086 166.502 314.2 167.297 316.259C169.737 322.511 172.184 328.805 175.42 334.736C176.853 337.23 178.484 339.673 180.896 341.429C182.811 343.002 184.871 344.446 187.332 345.145C190.894 346.397 194.715 346.561 198.473 346.328C201.617 346.299 204.629 345.408 207.584 344.473C210.94 343.492 214.15 342.136 217.233 340.552C219.999 339.12 222.952 337.681 224.999 335.357C227.439 334.275 229.753 332.954 231.858 331.333C232.807 330.628 233.751 329.91 234.635 329.13C234.538 329.76 234.441 330.39 234.342 331.018C232.393 344.281 230.623 357.586 229.9 370.964C229.216 384.419 229.48 397.899 228.905 411.358C228.266 428.503 227.379 445.645 227.146 462.8C227.048 475.476 227.307 488.175 228.605 500.797C229.08 504.738 229.589 508.675 230.426 512.564C231.186 516.034 231.737 519.576 233.156 522.876C233.933 524.595 234.742 526.32 235.844 527.857C236.106 528.074 236.534 528.034 236.775 527.805C236.999 527.6 237.047 527.246 236.886 526.994C235.555 524.787 234.627 522.962 233.895 520.893C232.965 518.122 232.459 515.249 231.85 512.405C230.885 507.803 230.36 503.855 229.891 499.068C228.506 484.543 228.438 469.929 228.772 455.358C229.171 439.766 229.958 424.185 230.546 408.6C231.023 395.49 230.806 382.363 231.558 369.262C232.325 356.365 234.073 343.351 235.864 331.111C236.06 329.84 236.253 328.568 236.441 327.296C237.642 325.91 238.803 324.487 239.823 322.977C242.369 318.746 243.594 313.911 244.203 309.11C244.61 304.348 243.899 299.597 243.203 294.89C242.482 290.025 241.794 285.417 241.324 280.248C241.152 278.686 240.902 277.105 240.195 275.668C238.99 273.531 237.129 271.861 235.056 270.476C231.269 267.835 227.465 265.215 223.783 262.445C221.307 260.6 218.805 258.746 216.673 256.543C215.109 254.814 213.671 252.973 212.461 251.004C210.412 247.43 208.971 244.434 207.882 240.64C207.296 238.734 207.113 237.598 207.073 235.602C207.064 231.665 207.721 228.446 209.386 224.704C210.268 222.806 210.704 221.261 212.24 219.524C213.871 217.597 216.032 216.142 218.339 215.016C221.017 213.584 223.22 212.75 226.271 211.83C229.879 210.815 233.507 209.821 236.802 209.544C239.484 209.247 242.163 209.254 244.841 209.4C245.313 210.07 245.868 210.668 246.64 211.034C247.069 211.221 247.457 211.299 247.871 211.019C248.291 210.882 248.47 210.487 248.729 210.179C248.819 210.027 248.888 209.87 248.948 209.712C251.259 209.926 253.569 210.18 255.876 210.374C262.057 210.978 268.267 210.981 274.472 210.899C279.373 210.875 284.286 210.813 289.168 210.385C292.324 210.136 295.731 209.43 298.346 209.172C302.055 208.792 304.691 211.515 308.095 213.657C310.892 215.411 314.089 216.423 317.307 217.253C322.873 218.496 323.572 219.48 323.112 224.836C322.93 231.881 320.138 238.855 317.159 245.083C312.643 253.931 307.08 261.635 299.709 268.269C296.954 270.52 294.777 272.36 291.91 274.143C290.355 275.1 288.707 275.909 287.059 276.709C286.286 276.354 285.472 276.073 284.618 275.884C281.751 275.086 278.763 275.404 275.866 275.859C268.867 276.734 262.23 279.148 255.611 281.364C252.822 282.31 249.953 283.017 247.065 283.61C246.433 283.77 246.345 284.682 246.902 284.982C247.904 285.539 249.17 285.493 250.297 285.651C252.32 285.823 254.355 285.783 256.377 285.613C258.974 285.452 261.537 285.011 264.098 284.593C267.75 284.053 271.344 283.246 274.91 282.335C278.78 281.336 282.701 280.389 286.241 278.556C286.516 278.422 286.791 278.287 287.067 278.154C287.166 278.207 287.262 278.26 287.357 278.319C287.552 278.423 287.741 278.538 287.923 278.665C288.218 278.851 288.503 279.051 288.775 279.263C288.729 279.23 288.682 279.196 288.636 279.161C293.101 282.819 295.375 287.29 298.736 291.96C300.066 293.832 301.568 295.589 303.499 296.939C306.017 298.911 308.784 300.558 311.689 301.97C317.558 304.811 323.442 307.667 329.577 309.966C333.352 311.378 337.218 312.553 341.076 313.744C345.883 315.203 350.707 316.63 355.612 317.771C359.325 318.481 363.082 319.006 366.866 319.216C370.248 319.337 373.636 319.238 377.018 319.166C384.341 318.981 391.666 318.877 398.992 318.847C407.117 318.783 415.241 318.836 423.367 318.773C426.875 318.727 430.383 318.587 433.893 318.622C436.926 318.592 439.968 318.811 442.995 318.655C444.03 318.463 445.075 318.017 445.664 317.162C446.315 316.397 446.46 315.373 446.49 314.418C446.102 312.069 444.354 310.148 442.51 308.633C440.324 306.75 437.625 305.531 434.821 304.704C431.39 303.507 427.771 303.003 424.161 302.561C418.553 301.785 412.037 301.215 405.849 300.819C393.168 300.089 381.39 299.035 369.101 296.451C357.679 294.18 346.267 291.614 335.354 287.65C332.793 286.712 330.435 285.839 328.117 284.93C329.754 284.97 331.392 285.001 333.029 285.03C338.444 285.114 343.862 285.094 349.272 285.38C354.164 285.626 359.035 286.138 363.892 286.727C368.359 287.273 375.218 288.365 380.425 288.952C388.374 289.89 396.131 291.028 404.334 292.619C411.388 293.855 418.47 295.093 425.248 297.372C429.349 298.817 432.849 300.275 436.862 302.469C441.655 305.13 446.118 308.265 450.636 311.311C452.76 312.58 455.009 314.34 457.66 313.837C459.081 313.43 460.295 312.546 461.182 311.432C462.011 310.51 462.48 309.271 462.284 308.062C462.064 305.966 460.819 304.151 459.359 302.619C458.033 301.11 456.577 299.71 455.073 298.359C451.922 295.598 448.567 293.002 444.908 290.86C437.837 286.888 429.946 284.504 422.095 282.322C417.713 281.146 413.228 280.341 408.86 279.121C404.244 277.893 399.768 276.26 395.255 274.739C391.151 273.307 385.644 271.204 382.229 269.879C381.395 269.55 380.514 269.173 380.154 268.798C380.14 268.758 380.093 268.665 380.058 268.603L380.051 268.582C380.485 268.229 380.375 268.243 381.076 267.836C383.903 266.333 386.868 265.045 389.358 263.043C391.028 261.743 392.903 260.535 394.054 258.772C398.278 250.5 383.229 248.255 377.399 247.689C373.15 247.155 368.862 247.001 364.594 246.648C360.497 246.335 356.021 245.796 352.522 245.343C347.46 244.679 342.589 243.156 337.664 241.917C335.37 241.324 333.037 240.814 330.662 240.635C329.626 240.543 327.561 240.593 326.354 240.686C327.43 239.809 328.579 239.031 330.002 238.072C333.945 235.334 338.109 232.883 342.453 230.754C348.612 227.772 355.038 225.284 360.915 221.8C366.555 218.617 371.833 214.898 377.015 211.094C383.588 206.393 389.574 201.024 395.329 195.46C401.44 189.4 407.002 182.854 412.295 176.148C417.501 169.545 422.243 162.633 426.636 155.525C426.675 155.462 426.713 155.397 426.753 155.334C427.98 153.94 429.168 152.52 430.325 151.076C431.062 150.156 434.764 145.222 436.11 143.248C437.371 141.404 438.604 139.539 439.792 137.649C442.355 135.926 444.959 134.259 447.613 132.659C454.15 128.943 460.293 125.809 467.41 123.905C470.003 123.291 471.869 122.85 474.32 122.885C474.394 122.89 474.467 122.898 474.542 122.907C475.127 122.995 475.69 123.178 476.25 123.353C476.875 123.569 476.69 123.522 476.888 123.593C477.379 123.908 478.084 123.399 477.898 122.867ZM106.867 238.642C95.1198 236.809 83.2309 235.634 71.3108 235.876C59.9553 236.022 48.5292 236.483 37.3909 238.714C30.1327 240.142 22.7985 241.666 15.8796 242.276C13.9809 242.464 12.0836 242.682 10.174 242.735C8.01342 242.776 6.59789 242.813 4.98285 241.84C4.66799 241.679 4.37212 241.488 4.08982 241.279C3.65824 240.926 3.24295 240.557 2.84258 240.173C2.72043 240.018 2.59829 239.863 2.4775 239.709C2.47072 239.638 2.45578 239.533 2.43542 239.442C2.45307 239.369 2.47071 239.298 2.48835 239.225C2.56164 239.12 2.63358 239.016 2.70686 238.911C2.84801 238.773 2.98915 238.633 3.1303 238.495C3.3488 238.291 3.57817 238.101 3.81839 237.923C4.38976 237.458 4.98556 237.079 5.84736 236.496C10.0804 233.679 14.2089 231.9 18.7446 230.288C23.8191 228.475 29.0171 226.987 34.2477 225.63C37.8808 224.651 43.2132 223.56 46.298 223.181C51.1879 222.695 56.1077 222.885 61.0071 223.133C66.9068 223.392 71.9989 223.949 77.809 225.41C81.9972 226.621 86.0945 228.098 90.1823 229.583C97.9712 232.378 104.81 235.112 112.277 238.252C113.968 238.963 115.662 239.668 117.363 240.362C113.871 239.749 110.369 239.188 106.867 238.642ZM51.0699 264.258C46.8423 263.084 42.7069 261.626 38.6055 260.108C32.6272 257.851 25.8372 255.126 21.0152 251.038C19.6105 249.954 18.214 248.857 16.8704 247.706C16.5989 247.478 16.3329 247.243 16.0723 247.004C15.9651 246.867 15.8566 246.73 15.7493 246.591L15.7113 246.393C15.7168 246.38 15.7208 246.367 15.7249 246.354C15.8036 246.343 15.8837 246.331 15.9624 246.319C15.9963 246.339 16.3994 246.361 16.5406 246.363C19.5793 246.864 21.6001 248.074 24.4353 249.187C28.7131 251.147 32.8674 253.347 36.8779 255.757C41.6443 258.539 46.3455 261.438 51.0916 264.262C51.0834 264.262 51.0766 264.261 51.0699 264.258ZM274.787 281.029C270.007 282.391 263.689 283.383 259.463 284.022C256.973 284.304 254.46 284.536 251.95 284.45C251.152 284.378 250.508 284.359 249.903 284.318C251.154 284.036 252.402 283.733 253.624 283.347C260.915 281.104 268.058 278.184 275.706 277.187C277.853 276.974 279.746 276.458 282.238 276.768C282.61 276.814 282.98 276.869 283.349 276.937C283.951 277.049 284.542 277.205 285.123 277.388C285.234 277.421 285.344 277.46 285.454 277.496C282.158 279.207 278.687 279.999 274.787 281.029ZM354.247 132.323C354.651 131.798 355.042 131.264 355.451 130.74C355.768 130.326 356.089 129.915 356.409 129.502C356.617 129.244 356.823 128.984 357.03 128.725C362.318 122.366 368.455 117.126 375.354 112.963C381.764 109.139 388.32 105.925 395.209 103.97C396.798 103.502 398.384 103.014 399.993 102.611C400.628 102.454 401.273 102.332 401.92 102.222C402.39 102.143 402.86 102.066 403.331 102.005C403.986 101.915 404.643 101.825 405.298 101.734C405.233 101.743 405.168 101.751 405.103 101.758C408.74 101.223 412.414 101.035 416.092 100.962C419.284 100.874 422.465 100.596 425.634 100.23C429.074 99.8202 432.509 99.3411 435.853 98.4611C439.118 97.535 442.368 96.4897 445.453 95.1127C446.486 94.6387 447.503 94.1315 448.482 93.5666C449.081 93.2579 449.618 92.8441 450.198 92.5085C450.288 92.634 450.366 92.7647 450.425 92.9082C450.48 93.0401 450.536 93.1708 450.592 93.3027C450.737 93.6524 450.848 94.0111 450.925 94.38C451.042 94.8988 451.125 95.424 451.216 95.9466C452.014 99.7395 451.396 104.548 450.874 108.9C450.655 110.391 449.899 113.511 449.108 115.559C448.567 117.223 447.139 120.417 446.787 121.454C444.48 126.819 441.674 131.973 438.533 136.942C437.447 137.686 436.371 138.441 435.303 139.206C436.066 137.504 436.796 135.789 437.499 134.065C439.677 128.744 441.497 123.3 443.42 117.893C444.604 114.411 445.772 110.917 446.437 107.307C446.847 105.022 447.462 102.154 445.418 100.449C443.702 99.1707 441.489 99.646 439.522 100.028C435.976 100.805 432.564 102.008 429.107 103.067C426.586 103.831 424 104.384 421.43 104.979C412.886 107.005 404.092 108.096 395.715 110.718C390.745 112.322 385.888 114.458 381.692 117.469C377.87 119.955 374.52 123.063 371.708 126.543C366.528 133.499 363.592 141.612 360.611 149.561C358.689 154.647 356.846 159.76 355.045 164.883C355.08 163.335 355.11 161.786 355.129 160.237C355.008 152.703 354.954 145.138 354.001 137.648C353.813 136.253 353.563 134.868 353.272 133.49C353.632 133.134 353.923 132.7 354.247 132.323ZM426.594 152.832C423.449 155.858 420.299 158.88 417.113 161.866C412.565 166.02 407.462 170.219 402.799 173.447C402.173 173.851 401.554 174.274 400.871 174.589C400.81 173.817 401.911 172.291 402.854 170.945C407.592 164.655 414.078 158.594 420.325 152.942C423.805 149.822 428.303 146.144 431.778 143.385C431.552 143.852 431.324 144.317 431.09 144.78C429.686 147.473 428.176 150.162 426.594 152.832ZM335.891 90.2873C335.606 95.6212 332.056 102.03 328.539 106.172C326.062 108.96 322.342 112.204 319.875 114.069C319.226 114.491 319.486 114.403 318.827 114.623C318.895 114.614 318.964 114.605 319.032 114.597C318.834 114.665 318.356 114.636 318.131 114.632C318.119 114.625 318.107 114.618 318.093 114.611C317.534 113.251 317.98 110.998 318.609 108.829C320.588 102.231 323.809 96.76 327.334 90.5346C329.785 86.2242 332.13 81.86 334.526 77.5214C335.377 81.9573 336.084 85.6721 335.891 90.2873ZM224.73 65.0731C224.73 65.0424 224.732 65.0129 224.732 64.9822C228.989 69.0274 233.193 73.1623 236.365 78.0427C240.313 84.3373 242.086 91.8872 242.46 99.0606C242.482 101.373 242.445 103.45 241.252 105.023C241.099 105.128 240.946 105.232 240.792 105.337C240.662 105.372 240.533 105.406 240.403 105.442C239.694 105.209 239.582 105.139 238.75 104.4C237.842 103.641 237.029 102.768 236.467 101.749C233.685 96.8676 231.899 92.2779 229.672 87.0094C227.827 82.3608 226.154 77.6059 225.441 72.673C225.074 70.1636 224.665 67.9284 224.73 65.0731ZM133.715 113.66C133.702 112.577 133.858 111.678 134.078 110.698C134.339 111.581 134.429 112.157 134.445 113.201C134.455 114.166 134.452 114.308 134.178 114.988C134.147 115.017 134.116 115.046 134.084 115.075C134.052 115.083 134.021 115.092 133.988 115.099L133.974 115.097C133.961 115.085 133.947 115.074 133.934 115.061C133.877 114.903 133.821 114.746 133.764 114.588C133.801 114.964 133.68 113.935 133.715 113.66ZM151.027 229.378C146.527 226.958 143.096 224.482 139.493 221.053C136.85 218.35 135.049 216.05 132.73 213.032C130.395 209.942 128.105 206.821 126.034 203.567C123.589 199.695 121.362 195.706 119.054 191.762C112.736 180.993 106.494 170.672 102.322 159.295C96.3629 143.372 94.8402 127.336 93.1206 110.73C92.0403 101.357 91.2654 91.8463 88.1384 82.8361C86.6442 78.7037 84.3546 74.8916 81.7963 71.2691C81.1829 70.334 80.5233 69.4258 79.8664 68.5163C81.5493 70.2533 83.999 73.0381 85.0549 74.3485C85.8312 75.2989 86.5967 76.2584 87.3553 77.2204C87.9118 78.3412 88.5008 79.4467 89.0749 80.5585C91.1772 84.5794 93.3921 88.5465 95.531 92.5495C98.3824 97.8078 100.999 102.947 103.13 108.018C106.106 114.852 108.545 121.876 111.239 128.811C112.963 133.135 114.629 137.485 116.594 141.719C118.123 144.893 119.599 148.521 122.9 150.419C123.171 150.534 123.452 150.63 123.749 150.651C124.081 150.621 124.376 150.437 124.672 150.301C124.98 150.122 125.069 149.764 125.248 149.486C125.545 148.669 125.386 147.757 125.333 146.909C124.892 142.143 123.344 137.529 121.743 133.011C118.22 123.451 113.263 114.449 108.027 105.638C105.77 101.789 103.538 97.9244 101.169 94.134C97.2872 88.202 93.1803 82.3967 88.7777 76.7989C88.6949 76.635 88.6094 76.4736 88.5293 76.3083C88.1819 75.664 88.3759 75.9407 88.0489 75.2375C87.9131 74.8814 87.772 74.5252 87.6675 74.1589C87.6566 74.0436 87.6458 73.9283 87.6363 73.813C87.6553 73.7234 87.677 73.6337 87.6811 73.5966C87.7028 73.562 87.7231 73.5274 87.7449 73.4928C87.7978 73.4646 87.8494 73.4352 87.9023 73.407C88.9188 73.2853 89.3233 73.4364 90.4253 73.8143C92.0186 74.4702 94.9718 75.9112 97.1623 76.8553C103.035 79.3762 108.44 80.9748 113.875 84.4795C118.959 87.7062 123.253 92.6289 126.901 97.3774C129.652 100.75 131.622 104.489 133.129 108.139C132.795 109.587 132.511 111.046 132.3 112.518C132.059 114.186 132.224 117.323 134.843 116.31C136.094 115.468 135.934 113.777 135.896 112.486C135.815 110.944 135.283 109.476 134.69 108.048C137.073 98.5559 140.777 89.4099 144.302 80.2562C146.023 75.6307 147.421 70.9066 148.948 66.2221C149.703 63.9805 150.513 61.0919 151.361 59.3229C152.824 61.7926 153.438 67.2635 153.892 70.1393C154.837 78.094 155.479 86.0794 156.502 94.0264C157.511 101.503 158.644 109.032 161.108 116.223C161.583 117.604 162.052 118.988 162.623 120.337C163.116 121.343 163.564 123.121 165.054 122.991C166.035 122.776 165.869 121.703 165.92 120.984C165.918 119.416 165.816 117.85 165.754 116.283C165.447 112.302 165.914 109.247 167.089 105.371C169.137 98.935 172.898 92.7468 176.7 86.5751C180.895 79.9885 185.615 73.717 189.866 67.1636C194.483 60.0057 198.744 52.6377 202.616 45.0967C202.77 44.7906 202.922 44.4844 203.08 44.1821C203.112 44.1142 203.205 43.972 203.253 43.8977C203.26 43.89 203.266 43.8836 203.275 43.876C203.317 43.8849 203.36 43.89 203.402 43.9041C204.104 44.1027 205.301 45.2158 206.311 46.3495C207.757 47.9583 209.125 49.6274 210.523 51.2747C214.255 55.8157 218.959 59.4856 223.224 63.5539C223.296 63.6231 223.369 63.6923 223.442 63.7601C223.259 66.2875 223.51 68.8417 223.894 71.3472C224.74 78.2861 227.263 84.9022 230.058 91.3313C231.285 94.0982 232.443 96.8983 233.808 99.6088C234.7 101.287 235.514 103.067 236.903 104.442C237.916 105.34 239.061 106.692 240.562 106.698C241.361 106.541 242.114 106.13 242.542 105.459C244.037 103.139 243.83 100.198 243.695 97.5772C243.162 91.3467 241.703 85.1328 238.719 79.5235C236.16 74.8135 232.463 70.7618 228.597 66.9676C227.356 65.7392 226.094 64.5313 224.824 63.331C225.114 60.5014 226.071 57.896 227.145 54.9126C229.771 48.3798 233.462 41.5933 237.764 35.3474C238.191 34.7402 238.081 34.826 238.637 34.2778C238.74 34.174 238.85 34.078 238.966 33.987C239.02 33.9793 239.074 33.9716 239.128 33.964C240.323 34.2304 240.168 34.2714 241.171 35.0502C242.487 36.1429 243.679 37.3572 244.883 38.5587C249.414 43.1714 254.37 47.6893 257.881 52.498C264.312 61.4852 267.202 71.5714 267.336 82.2046C267.375 85.2238 267.07 87.6063 266.564 90.2566C263.435 92.7301 260.553 95.4521 258.267 98.6737C256.73 100.862 255.135 103.147 254.678 105.787C254.493 106.755 254.317 107.79 254.778 108.713C255.324 109.951 256.522 110.347 257.743 109.7C258.601 109.283 259.208 108.519 259.843 107.852C261.472 106.069 262.966 104.174 264.042 102.041C265.017 100.348 265.615 98.497 266.242 96.6716C266.91 94.8232 267.436 92.9312 267.834 91.0149C270.578 88.8706 273.527 86.8877 276.445 84.915C284.271 79.535 292.069 74.1102 299.566 68.3229C305.11 64.0599 310.554 59.6854 315.957 55.2649C318.42 53.2166 321.586 50.902 323.372 49.1176C323.374 49.1343 323.567 49.238 323.655 49.3213C323.605 49.2841 323.554 49.2483 323.504 49.2111C323.793 49.4686 324.071 49.7376 324.339 50.0155C324.971 50.7918 325.464 51.6564 325.963 52.5108C327.297 54.9293 328.279 58.3494 329.431 61.4019C331.013 66.0005 332.774 70.5646 333.999 75.2631C332.494 77.9672 331.009 80.6815 329.539 83.4022C325.412 91.161 320.379 98.5866 317.613 106.918C316.987 108.661 314.928 115.243 317.704 116.059C318.31 116.133 318.959 116.138 319.536 115.931C320.186 115.753 320.685 115.293 321.223 114.925C325.183 111.748 329.055 108.368 331.909 104.234C334.91 99.8804 337.236 94.9244 337.444 89.6712C337.535 86.8416 337.164 84.0184 336.716 81.2233C336.429 79.3147 336.085 77.4125 335.629 75.5334C336.608 73.7797 337.597 72.0325 338.611 70.2968C339.595 68.6124 340.58 66.9292 341.567 65.2448C340.788 69.3412 339.999 73.4364 339.363 77.556C338.852 80.9108 338.087 84.2477 337.882 87.6358C337.837 89.1294 337.704 90.6434 337.968 92.1268C338.493 95.2408 339.466 98.2907 341.029 101.083C344.489 107.027 347.528 112.219 349.521 118.61C350.065 120.437 350.374 122.013 350.599 123.622C350.523 123.379 350.448 123.136 350.372 122.893C349.533 120.312 348.7 117.727 347.665 115.21C346.622 112.562 345.089 109.951 342.52 108.382C341.432 107.795 340.244 107.297 338.984 107.2C337.102 107.092 335.18 107.289 333.449 108.032C329.824 109.397 326.615 111.532 323.486 113.699C318.947 116.989 314.419 120.297 309.996 123.728C306.907 126.132 303.966 128.7 300.956 131.191C297.279 134.273 293.512 137.266 290.047 140.563C286.541 143.925 283.227 147.451 279.969 151.024C279.694 149.775 279.359 148.539 278.959 147.323C277.99 144.29 276.858 141.269 275.16 138.525C271.916 133.685 267.477 129.684 263.017 125.849C254.439 118.914 243.907 114.706 234.481 108.952C229.651 106.085 224.951 102.873 219.459 101.22C217.871 100.68 216.18 100.505 214.502 100.458C213.005 100.441 211.38 100.441 210.036 101.128C207.949 102.441 206.444 104.393 205.065 106.335C203.709 108.186 202.447 110.096 201.163 111.992C199.094 115.066 196.918 118.079 194.978 121.227C194.249 122.488 193.404 123.702 192.816 125.031C192.299 126.204 192.022 127.466 191.853 128.722C191.771 131.756 192.721 134.716 194.023 137.461C196.449 142.891 200.526 147.425 204.467 151.924C207.452 155.234 210.436 158.38 213.263 161.567C208.322 158.307 203.26 155.192 198.37 151.905C190.764 146.992 183.401 141.556 174.873 138.123C169.261 135.787 163.245 134.547 157.272 133.335C153.518 132.578 149.723 131.958 146.045 130.906C144.524 130.457 143.02 129.952 141.497 129.505C140.478 129.25 139.415 128.838 138.363 129.053C136.71 129.469 136.934 131.948 136.894 133.19C136.914 134.649 136.943 136.108 136.971 137.567C137.066 141.711 137.099 145.858 136.899 149.999C136.387 161.976 134.806 174.109 136.981 186.014C138.324 193.026 141.011 199.748 143.868 206.321C145.06 208.902 146.156 211.528 147.474 214.054C149.62 218.001 152.277 221.705 155.411 225.013C159.227 229.096 163.456 232.839 168.019 236.174C162.106 234.217 156.278 232.282 151.027 229.378ZM92.7542 84.3655C94.376 86.6046 95.9585 88.8681 97.5029 91.1546C101.732 97.3339 105.316 103.877 109.107 110.298C115.427 121.3 120.937 132.069 123.565 144.498C123.692 145.58 124.079 147.341 123.91 148.94C123.863 149.023 123.816 149.107 123.77 149.191C123.753 149.198 123.739 149.205 123.722 149.212C121.901 148.463 120.407 146.183 119.17 143.74C118.14 141.551 117.239 139.84 116.456 137.85C111.837 127.095 108.302 115.955 103.511 105.265C100.368 98.105 96.4878 91.2673 92.7542 84.3655ZM266.108 92.4099C265.5 94.7143 264.304 98.0627 263.708 99.605C262.889 101.364 261.953 103.099 260.758 104.658C260.395 105.094 259.082 106.716 258.24 107.552C258.03 107.776 257.81 107.991 257.582 108.201C257.442 108.295 257.304 108.387 257.164 108.481C256.727 108.606 256.86 108.651 256.517 108.677L256.347 108.582C255.789 107.743 255.819 107.745 255.983 106.399C256.055 106.005 256.141 105.614 256.241 105.225C256.358 104.785 256.506 104.356 256.684 103.936C257.251 102.654 258.034 101.47 258.825 100.302C260.778 97.3313 263.301 94.763 266.108 92.4099ZM181.028 242.524C183.08 243.525 185.148 244.61 187.234 245.658C187.078 245.66 186.923 245.663 186.767 245.668C184.852 244.623 182.941 243.571 181.028 242.524ZM190.851 267.203C188.815 268.081 186.884 269.157 184.955 270.224C180.025 272.928 175.108 275.704 169.853 277.818C164.872 279.868 158.596 282.037 152.714 283.278C147.53 284.441 142.933 284.961 137.432 285.321C131.564 285.558 125.689 285.318 119.83 284.976C115.465 284.681 110.597 284.377 106.851 283.794C97.3442 282.376 88.0665 279.815 79.0671 276.622C74.9833 275.09 71.7424 273.827 67.7848 271.957C65.0325 270.613 62.3358 269.173 59.6703 267.686C62.5041 268.32 65.3392 268.952 68.154 269.66C73.3683 270.946 78.512 272.472 83.7195 273.785C88.1018 274.703 92.5194 275.535 96.9804 276.02C99.118 276.247 101.272 276.185 103.416 276.089C106.793 275.96 110.171 275.737 113.527 275.362C124.395 274.136 135.07 271.678 145.637 269.036C152.8 267.11 159.922 265.031 167.221 263.601C170.172 262.999 172.818 262.465 175.519 262.113C175.69 262.206 175.86 262.301 176.031 262.393C178.345 263.738 181.503 263.797 183.841 262.487C184.271 262.164 184.517 261.48 184.167 261.03C183.939 260.676 183.509 260.549 183.1 260.477C180.821 260.15 178.51 260.441 176.24 260.705C176.101 260.72 175.963 260.741 175.824 260.756C175.085 260.332 174.323 259.869 173.566 259.488C170.489 257.778 167.404 256.074 164.197 254.588C160.332 252.831 156.33 251.363 152.334 249.891C153.858 250.006 155.387 250.071 156.916 250.058C164.636 249.671 172.313 248.711 179.964 247.684C182.037 247.382 184.132 247.103 186.334 247.013C188.31 248.09 190.296 249.153 192.318 250.153C194.282 251.065 202.482 255.212 204.041 253.247C204.059 253.227 204.071 253.206 204.087 253.186C204.822 253.556 205.542 253.952 206.233 254.396C207.957 255.379 210.178 257.307 211.104 259.082C210.82 259.106 210.537 259.14 210.252 259.191C207.677 259.405 205.309 260.382 203.042 261.502C201.159 262.354 199.511 263.578 197.944 264.878C195.526 265.497 193.143 266.234 190.851 267.203ZM178.103 261.839C179.229 261.746 180.383 261.69 181.588 261.678C181.827 261.685 182.065 261.7 182.301 261.722C182.199 261.749 182.06 261.785 181.822 261.862C180.668 262.137 179.718 262.197 178.589 261.959C178.433 261.931 178.269 261.889 178.103 261.839ZM199.301 251.093C200.369 251.528 201.44 251.961 202.493 252.43C202.36 252.431 202.228 252.426 202.166 252.407C199.278 251.879 195.347 250.191 192.094 248.499C191.151 248.016 190.214 247.521 189.279 247.023C189.562 247.036 189.843 247.047 190.13 247.069C190.422 247.206 190.715 247.342 191.008 247.474C193.732 248.761 196.506 249.95 199.301 251.093ZM195.117 247.874C195.75 248.024 196.4 248.19 197.084 248.381C199.324 249.079 201.655 249.998 202.528 250.998C201.951 250.749 201.373 250.511 200.795 250.279C198.888 249.508 196.996 248.704 195.117 247.874ZM211.537 260.467C211.552 260.737 211.517 260.994 211.422 261.235C211.415 261.233 211.39 261.262 211.357 261.306C210.4 261.924 209.725 261.921 208.367 262.359C206.058 262.98 203.722 263.506 201.391 264.047C202.421 263.369 203.532 262.766 204.875 262.193C206.848 261.192 209.313 260.563 211.537 260.467ZM224.54 333.613C224.506 333.728 224.471 333.843 224.436 333.957C224.345 334.098 224.25 334.237 224.147 334.37C222.583 335.063 220.99 335.644 219.387 336.106C213.239 337.898 207.552 338.475 201.37 339.02C199.504 339.189 197.641 339.385 195.78 339.601C194.624 339.713 193.465 339.915 192.3 339.888C192.454 339.754 192.607 339.62 192.76 339.486C194.355 338.401 196.064 337.472 197.739 336.503C201.023 334.609 204.391 332.851 208.003 331.576C211.357 330.248 214.873 329.163 218.076 329.142C219.656 329.155 220.389 329.351 221.644 329.933C222.61 330.375 223.651 330.825 224.327 331.636C224.365 331.764 224.415 331.916 224.423 331.903C224.463 332.199 224.505 332.495 224.554 332.789C224.59 333.065 224.579 333.339 224.54 333.613ZM234.943 327.052C234.393 327.636 233.815 328.194 233.185 328.707C230.931 330.623 228.461 332.242 225.882 333.548C225.972 332.725 225.747 331.903 225.57 331.198C225.098 330.318 224.144 329.755 223.247 329.297C222.13 328.768 220.992 328.21 219.745 328.029C215.383 327.496 211.127 329.082 207.148 330.583C203.455 331.916 200.013 333.743 196.649 335.691C195.293 336.466 193.937 337.242 192.619 338.074C191.987 338.55 191.196 338.883 190.848 339.6C190.589 340.06 190.673 340.755 191.239 340.944C192.04 341.251 192.948 341.087 193.788 341.049C194.978 340.924 196.166 340.787 197.355 340.654C202.193 340.134 207.056 339.804 211.865 339.062C215.068 338.542 218.281 337.809 221.363 336.767C220.015 337.668 218.577 338.448 217.119 339.179C212.745 341.488 208.862 342.863 204.043 344.188C201.54 344.93 199.755 345.025 197.037 345.09C194.01 345.168 191.829 345.125 189.027 344.295C186.919 343.805 184.456 342.622 183.24 341.576C181.775 340.448 180.289 339.317 179.111 337.91C175.068 332.436 172.396 325.15 169.604 318.372C168.178 314.88 167.076 311.294 166.327 307.619C165.626 304.893 165.645 301.584 166.18 299.044C166.727 297.056 167.981 294.938 169.6 293.397C172.606 290.285 175.944 288.561 179.459 285.792C182.97 282.972 186.144 279.812 189.203 276.563C192.094 273.508 194.532 270.084 197.511 267.106C197.938 266.732 198.348 266.378 198.748 266.043C201.189 265.427 203.714 264.876 206.085 264.304C207.399 263.98 208.714 263.654 210.012 263.272C211.116 262.943 212.522 262.571 212.852 261.377C212.927 261.089 212.953 260.802 212.947 260.519C215.839 260.921 218.635 263.048 221.491 264.956C222.169 265.411 224.683 267.416 225.817 268.457C226.748 269.309 228.293 271.122 228.62 271.493C231.813 275.629 234.94 280.324 236.524 284.67C237.682 288.443 237.805 291.961 237.802 296.169C237.608 306.667 236.436 317.005 234.943 327.052ZM227.997 210.034C224.806 210.893 221.651 211.908 218.715 213.384C216.579 214.468 214.424 215.581 212.695 217.217C210.476 219.043 209.254 221.558 208.219 224.101C207.003 226.821 206.084 229.683 205.895 232.644C205.608 235.34 205.684 238.096 206.517 240.705C208.365 247.006 211.517 253.063 216.206 257.916C218.467 260.094 221.014 261.978 223.556 263.852C226.61 266.134 229.735 268.324 232.877 270.495C234.233 271.453 235.635 272.368 236.855 273.481C237.702 274.248 238.763 275.783 238.985 276.146C239.89 278.131 239.902 279.552 240.144 281.599C240.552 286.225 241.303 290.816 241.958 295.415C242.536 299.4 243.144 303.367 242.973 307.749C242.665 312.431 241.358 317.537 239.055 321.733C238.436 322.869 237.588 323.875 236.783 324.896C237.895 317.114 238.797 309.306 239.126 301.457C239.371 295.735 239.667 289.857 237.975 284.292C236.671 280.698 234.627 277.394 232.439 274.223C230.091 270.699 227.267 267.441 223.761 264.89C221.301 263.056 218.779 261.196 215.921 259.948C214.859 259.459 213.756 259.165 212.624 259.076C212.225 258.117 211.528 257.227 210.884 256.452C209.124 254.485 206.863 253.053 204.455 251.878C204.39 251.273 204.067 250.67 203.661 250.187C202.698 249.184 201.45 248.486 200.11 248.026C198.068 247.158 195.9 246.634 193.715 246.206C192.645 245.987 191.568 245.842 190.486 245.754C189.705 245.384 188.925 245.015 188.15 244.634C184.564 242.837 181.055 240.886 177.312 239.387C175.826 238.821 174.329 238.291 172.829 237.777C168.253 234.821 164.134 231.527 160.023 227.612C154.366 222.303 150.088 216.763 147.022 209.687C143.481 201.945 139.846 193.513 138.279 184.668C137.306 179.156 137.342 172.369 137.565 166.191C137.768 159.729 138.426 153.287 138.578 146.823C138.67 143.804 138.602 140.785 138.552 137.766C138.575 135.564 138.323 133.343 138.571 131.151C138.553 131.589 138.602 130.956 138.678 130.741C138.568 131.002 138.7 130.682 138.786 130.493C138.79 130.49 138.792 130.486 138.796 130.484C139.216 130.414 139.957 130.596 140.91 130.86C144.112 131.843 147.305 132.852 150.612 133.481C169.973 137.121 175.674 138.335 191.93 149.25C197.245 152.743 202.51 156.301 207.904 159.684C210.944 161.622 213.791 163.478 216.552 165.405C217.194 166.188 217.828 166.974 218.442 167.775C218.901 168.338 219.331 168.921 219.764 169.503C224.746 176.071 228.648 183.275 232.748 190.345C236.164 196.04 240.036 201.479 243.435 207.184C243.633 207.467 243.819 207.768 244.003 208.075C238.59 207.838 233.168 208.517 227.997 210.034ZM247.24 209.795L247.238 209.796C247.212 209.787 247.187 209.778 247.166 209.771C246.988 209.657 246.889 209.59 246.818 209.532C247.014 209.548 247.208 209.562 247.403 209.578C247.356 209.641 247.304 209.712 247.24 209.795ZM247.721 208.353C247.068 208.294 246.415 208.239 245.762 208.185C244.506 206.307 243.391 204.346 242.182 202.441C239.818 198.675 237.273 195.011 234.955 191.219C232.809 187.755 230.913 184.161 228.837 180.661C226.389 176.456 223.691 172.382 220.759 168.466C221.587 169.095 222.413 169.733 223.237 170.397C225.995 172.61 228.705 174.885 231.059 177.489C233.673 180.222 235.734 182.768 238.011 186.026C239.8 188.81 241.38 191.708 242.929 194.616C245.348 199.253 247.77 203.161 247.73 208.062C247.726 208.171 247.723 208.265 247.721 208.353ZM249.176 208.486C249.204 207.858 249.134 207.216 249.091 206.596C248.93 204.037 248.044 201.548 246.913 199.232C244.557 194.598 242.16 189.971 239.378 185.547C236.941 181.968 234.127 178.627 231.075 175.499C227.013 171.433 222.473 167.898 217.734 164.593C216.024 162.488 214.249 160.431 212.391 158.438C209.195 154.943 205.921 151.509 202.869 147.899C200.414 145.051 197.952 141.983 196.039 138.305C194.48 135.122 192.979 131.795 193.4 128.152C193.436 128.032 193.501 127.787 193.508 127.678C193.628 127.116 193.774 126.559 193.977 126.018C194.305 124.901 194.747 124.551 195.403 123.312C197.093 120.399 199.05 117.637 200.946 114.842C202.634 112.402 204.245 109.915 205.975 107.502C207.456 105.429 208.459 103.985 210.596 102.403C210.67 102.368 210.856 102.269 210.96 102.203C211.358 102.068 211.765 101.968 212.184 101.915C212.315 101.906 212.506 101.889 212.583 101.872C213.627 101.707 216.502 101.931 216.8 101.994C218.259 102.208 219.642 102.714 221.016 103.206C224.885 104.608 229.199 107.409 233.173 109.783C236.899 112.029 240.738 114.098 244.584 116.152C249.944 118.986 255.349 121.813 260.201 125.392C262.561 127.113 266.113 130.393 268.651 132.892C271.04 135.324 272.766 137.246 274.503 140.175C276.303 143.467 277.451 146.919 278.487 150.824C278.594 151.337 278.69 151.836 278.78 152.326C276.949 154.346 275.132 156.375 273.303 158.397C270.152 161.754 267.345 165.37 264.637 169.052C261.382 173.424 258.451 178.022 255.776 182.728C254.653 184.807 253.741 186.998 253.364 189.315C252.95 193.674 253.509 198.072 254.528 202.327C254.957 204.214 255.53 206.066 256.119 207.913C256.23 208.272 256.317 208.637 256.412 209.001C256.424 209.051 256.439 209.101 256.454 209.151C254.026 208.947 251.601 208.711 249.176 208.486ZM257.038 206.189C256.485 204.446 256.017 202.677 255.636 200.892C254.861 197.516 254.555 194.468 254.648 190.748C254.724 188.587 255.423 186.493 256.411 184.52C257.543 182.167 258.984 179.965 260.38 177.747C261.653 175.745 262.905 173.726 264.305 171.799C267.263 167.771 270.107 163.865 273.251 160.463C275.194 158.319 277.124 156.162 279.063 154.013C280.589 164.193 278.1 169.784 273.204 179.958C269.887 186.981 267.328 193.668 262.779 200.292C261.396 202.452 258.841 206.217 257.543 207.815C257.385 207.271 257.213 206.73 257.038 206.189ZM406.698 180.906C402.409 185.991 398.033 191.03 393.172 195.642C388.839 199.743 384.437 203.801 379.657 207.441C372.719 212.69 365.365 217.987 357.211 222.305C351.216 225.592 344.684 227.896 338.683 231.174C335.029 233.12 331.547 235.327 328.177 237.684C327.006 238.546 325.701 239.29 324.693 240.325C324.005 240.987 324.09 241.948 325.163 242.079C326.322 242.129 327.487 241.91 328.653 241.928C332.09 241.883 334.831 242.577 338.353 243.489C342.45 244.553 346.522 245.733 350.711 246.438C355.208 247.068 359.724 247.597 364.253 247.967C369.381 248.369 374.523 248.605 379.621 249.301C379.3 249.265 380.512 249.426 380.857 249.479C381.859 249.618 382.847 249.827 383.835 250.031C385.773 250.43 387.581 250.939 389.103 251.658C392.157 252.935 394.046 254.827 393.175 257.252C392.808 258.764 391.587 259.469 389.995 260.855C388.003 262.383 386.066 263.864 383.453 265.104C382.416 265.62 381.366 266.111 380.363 266.684C379.657 267.164 378.606 267.625 378.601 268.571C378.672 269.613 379.698 270.292 380.634 270.666C381.534 271.063 382.46 271.405 383.377 271.762C387.203 273.206 391.014 274.687 394.882 276.028C399.104 277.446 403.289 278.973 407.593 280.161C411.744 281.35 415.994 282.176 420.189 283.206C428.497 285.425 436.338 287.745 443.601 291.666C448.807 294.658 453.105 298.119 457.419 302.511C457.741 302.856 458.056 303.207 458.374 303.555C459.07 304.402 459.371 304.554 459.918 305.501C460.331 306.291 460.502 306.377 460.696 307.239C460.784 307.563 460.856 307.89 460.91 308.221C460.951 308.532 460.943 308.841 460.882 309.149C460.829 309.306 460.732 309.6 460.682 309.759C459.735 311.296 458.684 312.282 456.877 312.642C456.761 312.627 456.484 312.607 456.324 312.596C455.898 312.525 455.477 312.425 455.076 312.274C453.99 311.814 452.988 311.203 451.993 310.592C447.493 307.643 443.141 304.481 438.429 301.829C434.78 299.728 430.887 298.009 426.897 296.569C419.987 294.061 412.696 292.763 405.444 291.495C399.475 290.372 393.487 289.332 387.458 288.531C381.382 287.737 376.13 287.177 370.327 286.306C360.532 284.859 350.648 283.885 340.727 283.827C335.369 283.776 330.01 283.728 324.655 283.534C323.359 282.994 322.052 282.43 320.702 281.82C316.148 279.757 311.522 277.724 306.56 276.709C305.549 276.522 304.531 276.359 303.506 276.253C302.381 276.064 301.109 276.211 300.412 277.159C300.155 277.468 300.317 277.891 300.328 278.249C300.352 278.476 300.52 278.661 300.611 278.869C300.667 279.035 300.752 279.183 300.866 279.315C301.892 280.789 303.646 281.555 305.332 282.187C309.14 283.663 313.281 284.044 317.341 284.449C319.697 284.624 322.056 284.739 324.417 284.824C327.262 285.995 330.138 287.098 333.026 288.167C344.224 292.398 355.975 295.134 367.755 297.482C381.776 300.548 396.157 301.524 410.48 302.414C415.259 302.734 419.974 303.27 424.289 303.847C427.955 304.274 431.603 304.896 435.071 306.125C435.777 306.34 436.463 306.601 437.146 306.876C437.409 306.991 437.673 307.107 437.936 307.223C438.848 307.658 439.723 308.163 440.539 308.746C441.131 309.188 441.721 309.633 442.252 310.141C443.575 311.322 444.165 312.07 444.909 313.653C445.018 313.92 445.091 314.196 445.137 314.478C445.114 314.559 445.088 315.026 445.094 315.066C445.045 315.436 444.944 315.794 444.788 316.137C444.844 315.983 444.575 316.407 444.572 316.425C444.164 316.982 444.05 316.904 443.381 317.235C443.069 317.495 440.677 317.429 439.267 317.399C435.901 317.354 432.534 317.282 429.169 317.368C421.072 317.579 412.971 317.479 404.872 317.516C396.853 317.541 388.833 317.583 380.815 317.762C374.811 317.875 367.224 318.236 361.957 317.465C355.278 316.697 348.875 314.689 342.48 312.795C337.092 311.155 331.237 309.346 326.575 307.383C320.548 304.768 314.54 302.069 308.791 298.94C306.254 297.398 304.539 296.2 302.347 294.244C300.115 291.987 298.137 288.636 296.095 285.654C294.91 283.838 293.544 282.135 292.028 280.556C291.009 279.362 289.816 278.303 288.47 277.471C290.013 276.712 291.541 275.927 292.993 275.017C294.822 273.844 296.513 272.494 298.242 271.195C306.842 264.297 313.408 255.37 318.287 245.814C321.204 239.653 323.903 233.241 324.343 226.437C324.442 223.956 325.154 220.794 323.489 218.663C322.117 216.98 319.81 216.594 317.765 216.054C314.999 215.284 312.856 214.774 310.585 213.556C308.363 212.511 306.497 210.968 304.486 209.623C302.743 208.574 300.737 207.779 298.634 207.899C295.824 208.076 292.864 208.798 290.574 208.97C282.192 209.835 273.732 209.612 265.314 209.66C262.901 209.613 260.496 209.472 258.092 209.288C258.727 208.701 259.288 207.71 259.668 207.294C260.9 205.62 262.065 203.904 263.202 202.171C265.507 198.774 267.599 195.257 269.384 191.589C271.174 187.918 272.378 184.894 274.084 181.363C276.961 175.152 280.347 168.944 280.844 162.065C281.014 158.933 280.836 155.766 280.29 152.661C283.758 148.842 287.281 145.068 291.019 141.481C294.034 138.601 297.297 135.966 300.507 133.284C303.782 130.581 306.989 127.805 310.306 125.147C314.578 121.813 319.336 118.318 323.294 115.445C326.125 113.423 329.017 111.432 332.216 109.958C334.439 108.905 336.277 108.298 338.984 108.495C338.923 108.487 338.862 108.479 338.801 108.472C339.193 108.492 339.573 108.565 339.942 108.689C341.008 109.012 341.237 109.17 342.273 109.789C342.357 109.868 342.496 109.992 342.566 110.029C342.771 110.213 342.976 110.397 343.178 110.583C343.547 110.914 343.901 111.263 344.209 111.646C344.946 112.532 346.088 114.842 346.557 116.131C347.753 119.17 348.734 122.282 349.691 125.394C350.283 127.332 350.838 129.285 351.324 131.251C351.356 131.823 351.39 132.397 351.435 132.969C351.481 133.3 351.591 133.713 351.923 133.886C352.208 135.251 352.454 136.623 352.639 138.004C353.173 142.562 353.532 149.092 353.604 154.35C353.772 159.36 353.639 164.369 353.479 169.377C350.756 177.237 348.114 185.123 345.446 192.998C343.965 197.055 342.412 201.366 340.833 204.818C338.551 209.666 336.013 214.402 333.849 219.301C331.977 223.067 331.209 227.204 329.556 231.046C329.276 231.653 328.766 232.528 328.17 233.426C327.12 234.474 326.053 235.506 324.962 236.516C324.308 237.219 323.32 237.826 322.999 238.734C322.927 239.049 323.064 239.394 323.362 239.559C323.772 239.779 324.286 239.581 324.645 239.349C326.55 237.998 328.138 236.232 329.405 234.287C330.12 233.574 330.829 232.856 331.517 232.121C336.448 226.84 341.263 221.403 345.052 215.32C346.9 212.239 348.535 209.04 349.905 205.745C350.934 203.119 351.663 200.399 352.394 197.687C354.038 191.448 354.35 184.97 354.643 178.568C354.73 175.602 354.829 172.637 354.916 169.67C356.846 164.132 358.817 158.606 360.855 153.101C364.169 144.358 366.813 136.208 372.167 128.464C373.577 126.385 374.919 125.118 376.906 123.142C379.641 120.484 382.243 118.817 385.663 116.665C390.892 113.756 395.81 112.029 401.836 110.553C410.001 108.706 418.289 107.348 426.408 105.306C430.151 104.403 433.734 103.008 437.451 102.022C438.27 101.795 439.096 101.599 439.924 101.407C440.43 101.296 440.946 101.227 441.456 101.133C441.39 101.142 441.322 101.15 441.256 101.159C441.948 101.059 442.649 100.99 443.348 101.065C443.437 101.105 443.704 101.193 443.834 101.215C443.774 101.191 443.713 101.168 443.654 101.143C444.024 101.261 444.358 101.441 444.655 101.679C444.373 101.489 444.612 101.681 444.753 101.831C444.966 102.08 445.126 102.356 445.228 102.664C445.202 102.608 445.178 102.55 445.152 102.494C445.468 103.733 445.285 105.664 444.962 107.05C444.391 110.124 443.464 113.122 442.459 116.091C439.528 124.667 436.623 132.96 432.947 140.922C427.938 144.664 423.215 148.745 418.534 152.845C413.406 157.537 408.371 162.341 403.863 167.575C402.731 168.892 401.675 170.269 400.726 171.71C400.253 172.513 399.621 173.293 399.492 174.225C399.305 175.125 400 176.212 401.078 175.942C403.43 174.942 405.372 173.233 407.394 171.747C409.717 169.919 412.067 168.117 414.284 166.173C417.491 163.413 420.529 160.489 423.559 157.556C423.585 157.588 423.614 157.619 423.645 157.649C418.426 165.898 412.573 173.837 406.698 180.906ZM301.662 277.984C301.656 277.918 301.651 277.853 301.645 277.788C301.677 277.751 301.698 277.721 301.705 277.706C302.266 277.307 303.121 277.538 303.507 277.53C306.431 277.843 309.259 278.646 312.02 279.584C314.852 280.579 317.904 281.984 321.011 283.369C314.767 283.061 307.438 282.493 302.832 279.491C302.461 279.197 302.142 278.856 301.88 278.467C301.916 278.51 301.951 278.554 301.987 278.597C301.879 278.392 301.77 278.189 301.662 277.984ZM353.321 174.281C353.076 181.732 352.882 189.191 351.298 196.039C350.57 198.871 349.813 201.703 348.82 204.465C347.917 207.074 346.698 209.138 345.363 211.869C341.701 218.422 337.269 223.71 332.33 229.078C332.111 229.319 331.886 229.555 331.665 229.793C332.48 227.525 333.121 225.202 333.933 222.932C334.618 221.02 335.153 220.062 335.967 218.234C338.923 211.736 342.521 205.497 344.893 198.77C347.526 191.912 349.728 184.919 352.056 177.966C352.474 176.737 352.899 175.509 353.321 174.281ZM436.265 140.425C434.58 142.97 432.92 145.34 431.202 147.623C432.266 145.614 433.274 143.58 434.236 141.527C435.051 140.94 435.868 140.358 436.69 139.783C436.547 139.996 436.409 140.212 436.265 140.425Z" fill="black" stroke="black"/>
</svg>
