<svg width="280" height="522" viewBox="0 0 280 522" fill="none" xmlns="http://www.w3.org/2000/svg">
<path d="M179.976 433.067C218.667 412.106 241.053 367.238 233.526 325.737C232.616 320.723 231.22 315.585 227.807 311.645C224.005 307.257 218.059 304.872 212.093 304.211C200.727 302.951 189.323 307.464 180.361 314.181C171.4 320.898 164.485 329.689 157.679 338.372C150.054 348.101 142.429 357.83 134.803 367.557C127.591 376.758 120.246 386.207 116.803 397.182C113.362 408.157 114.556 421.15 122.91 429.448C128.845 435.343 142.774 453.22 179.976 433.067Z" fill="#ADC4A9"/>
<path d="M169.695 119.728C177.422 113.9 187.153 111.532 196.628 109.551C206.102 107.57 215.854 105.752 224.147 100.76C235.821 93.7318 243.502 80.0418 242.246 66.4738C240.893 51.8648 230.141 39.7778 218.216 31.2308C183.81 6.57381 134.743 4.13282 98.3106 25.6838C80.2776 36.3508 65.0096 53.2088 60.4616 73.6618C58.0466 84.5218 58.7386 95.9598 61.6966 106.684C65.6396 120.978 73.9676 134.475 86.5186 142.371C97.1066 149.032 109.98 151.314 122.484 151C128.925 150.839 135.322 150.019 141.663 148.912C145.001 148.329 157.256 147.684 159.162 144.913C160.679 142.707 159.208 134.422 160.725 130.934C162.646 126.519 165.862 122.619 169.695 119.728Z" fill="#FFEEB4"/>
<path d="M49.2773 217.148C53.9814 217.807 58.1802 220.362 62.1558 222.963C66.1311 225.563 70.1464 228.316 74.7568 229.462C81.247 231.074 88.6636 228.989 92.9363 223.845C97.5366 218.305 97.9999 210.379 96.8276 203.275C93.4444 182.778 77.2634 164.902 57.1411 159.738C47.1812 157.182 36.0322 157.734 27.356 163.253C22.749 166.184 19.0198 170.393 16.3247 175.142C12.7325 181.471 10.9387 189.045 12.5541 196.141C13.9169 202.127 17.5924 207.386 22.0407 211.616C24.3319 213.796 26.8364 215.731 29.4212 217.548C30.7819 218.504 35.2587 222.533 36.8818 222.233C38.1738 221.993 40.5385 218.608 42.2754 217.924C44.4743 217.058 46.9438 216.821 49.2773 217.148Z" fill="#FFEEB4"/>
<path d="M139.885 3.90741L131.934 8.05554L126.749 6.21191C119.835 3.67694 118.798 3.79218 112.691 7.70984C108.774 10.2448 106.584 12.7798 103.819 18.3107C96.3292 33.4053 100.362 49.4218 116.263 67.0515L120.412 71.5453L116.724 69.5864C109.811 66.1296 100.362 55.8745 93.9095 44.928C90.4527 39.0514 87.572 33.751 87.572 33.1749C87.572 31.5617 81.2346 28.5658 77.893 28.5658C73.7449 28.5658 71.5556 32.5988 70.6337 41.7016C69.9424 49.0761 69.8272 49.4218 65.679 51.7263C63.2593 53.109 60.6091 55.5288 59.8025 57.142C56.2305 63.8251 59.572 82.4918 66.1399 92.8622C71.786 101.85 76.9712 103.117 88.0329 98.2778C93.679 95.7428 96.214 95.3971 106.7 95.3971H118.798L116.494 98.393C115.111 100.121 114.074 102.311 114.074 103.348C113.959 104.385 112.922 103.233 111.654 100.813C108.543 94.9362 104.971 95.1667 102.667 101.504C101.399 104.615 101.399 104.615 98.0576 102.887C93.679 100.698 86.4198 100.698 81.2346 102.772C76.9712 104.615 76.1646 106.228 78.6996 107.726C79.6214 108.187 82.0412 111.874 84.1152 115.907C88.7243 124.549 95.9835 131.348 103.473 133.998C106.584 135.15 114.074 136.187 121.103 136.533C136.774 137.34 144.84 135.265 151.292 128.813L155.671 124.319L158.091 129.735C159.358 132.73 161.432 137.455 162.469 140.335C163.621 143.216 166.733 150.706 169.383 157.043C178.716 179.397 179.407 188.73 171.226 180.78C166.733 176.401 160.28 175.019 153.942 177.208C150.14 178.475 145.185 183.084 145.185 185.389C145.185 187.002 148.296 186.541 149.794 184.698C151.984 182.047 155.095 182.623 160.856 187.002C166.617 191.381 171.802 192.187 175.951 189.307C178.14 187.693 178.37 187.924 180.099 192.533C181.136 195.183 182.519 199.677 183.21 202.558C184.938 209.586 186.091 248.763 184.938 262.821L184.132 274.228L173.531 263.973C154.749 245.883 136.198 230.327 133.317 230.212C132.741 230.212 130.206 228.714 127.44 226.87C124.79 225.027 115.918 219.726 107.737 215.233C99.4403 210.623 92.5267 206.706 92.2963 206.475C92.0658 206.245 92.9877 203.479 94.3704 200.368C99.5556 188.154 96.0988 175.479 84.9218 166.377C78.93 161.537 78.0082 161.307 75.4733 164.763C74.0905 166.607 73.284 166.953 72.9383 165.916C72.5926 165.224 71.2099 164.533 69.7119 164.533C68.0988 164.533 65.9095 163.265 64.5267 161.307C63.144 159.578 60.9547 157.619 59.572 156.813C51.2757 152.204 34.5679 159.002 34.5679 167.068C34.5679 169.603 33.9918 170.294 32.0329 170.294C29.1523 170.409 25.3498 172.714 25.3498 174.442C25.3498 175.019 23.5062 176.632 21.2016 178.13C16.1317 181.471 12.6749 188.615 12.6749 196.22C12.6749 203.595 15.5556 208.434 22.5844 212.928C26.0412 215.117 29.1523 218.344 31.3416 222.146C34.7984 228.253 41.0206 233.208 46.7819 234.36C50.8148 235.167 58.4198 232.401 59.4568 229.636C59.9177 228.368 61.7613 227.907 65.7942 227.907C75.0123 227.907 84 223.414 84.1152 218.689C84.2305 214.656 85.9588 213.619 90.107 215.233C96.0988 217.652 111.309 226.409 122.486 233.784C128.132 237.586 133.086 240.582 133.547 240.582C134.008 240.582 135.391 241.735 136.658 243.117C138.041 244.615 143.226 249.34 148.412 253.718C153.481 257.982 163.506 267.776 170.65 275.381C179.984 285.29 183.786 288.747 184.477 287.595C187.128 283.447 184.016 310.986 176.872 353.158C172.724 378.047 170.305 388.187 168.691 388.879C166.963 389.57 160.28 384.846 144.379 371.94C138.502 367.216 129.86 360.187 125.021 356.5C120.296 352.698 116.379 349.241 116.379 348.895C116.379 348.434 109.811 342.673 101.63 335.99C93.5638 329.307 85.3827 321.586 83.5391 318.821C81.5802 316.056 79.7366 313.636 79.2757 313.405C78.0082 312.829 78.1235 308.566 79.2757 308.566C80.5432 308.566 83.8848 297.85 84.8066 291.051C85.8436 283.677 82.3868 276.763 75.7037 272.615C70.5185 269.389 67.9835 268.582 67.9835 270.311C67.9835 270.887 69.7119 274.344 71.786 278.146C75.4733 284.829 75.4733 285.06 75.358 299.924C75.2428 308.105 75.0123 319.282 74.8971 324.698C74.5514 335.183 76.0494 340.714 80.5432 345.669C81.9259 347.051 82.963 348.78 82.963 349.586C82.963 352.121 100.593 368.599 112 376.78C118.222 381.158 127.556 386.92 132.856 389.57L142.305 394.294L132.51 396.253C127.095 397.405 118.914 399.019 114.42 399.825C109.811 400.632 106.008 401.669 106.008 402.13C106.008 402.706 99.786 403.051 92.1811 403.051C83.7695 403.051 78.3539 402.591 78.3539 401.899C78.3539 401.208 76.9712 400.747 75.358 400.747C69.8272 400.747 55.3086 394.986 44.7078 388.648C33.7613 382.08 22.3539 377.932 11.9835 376.895C5.53086 376.204 0 377.126 0 378.739C0 379.315 3.45679 382.196 7.83539 385.076C15.3251 390.146 22.3539 396.714 32.4938 408.121C45.6296 423.101 64.642 424.829 99.6708 414.228C113.728 409.965 116.84 409.389 124.444 409.85C140.576 410.656 156.132 410.541 159.128 409.735L162.239 408.813L163.621 418.953C168.922 457.554 170.881 468.73 175.605 486.014C180.56 503.644 182.173 513.669 180.099 513.669C179.523 513.669 177.103 512.286 174.568 510.788C169.037 507.331 163.621 507.101 160.856 510.097C158.436 512.747 156.938 521.735 158.897 521.735C159.588 521.735 160.165 520.006 160.165 517.932C160.165 513.669 162.93 509.06 165.58 509.06C166.502 509.06 169.844 510.442 172.84 512.056C175.835 513.669 179.292 514.821 180.444 514.591C183.901 513.899 182.979 505.027 176.988 483.479C170.765 460.895 162.815 408.928 165.119 405.356C166.502 403.051 165.35 399.134 163.621 400.171C163.045 400.516 162.469 401.899 162.469 403.051C162.469 404.319 161.086 406.278 159.358 407.315C155.44 409.965 138.502 410.196 128.708 407.776C121.564 406.047 120.988 406.047 94.6008 413.998C81.3498 417.916 70.2881 419.529 59.9177 418.953C49.3169 418.261 42.4033 415.381 36.1811 409.043C20.1646 392.451 14.749 387.496 8.64198 383.348L1.72839 378.854H8.64198C20.3951 378.854 32.2634 383.117 48.856 393.142C52.5432 395.331 58.3045 398.097 61.5309 399.134C64.7572 400.171 67.6379 401.554 67.9835 402.014C68.3292 402.591 73.9753 403.628 80.5432 404.319C89.5309 405.356 95.4074 405.356 104.626 404.434C111.309 403.628 117.07 402.591 117.416 402.13C117.992 401.208 129.975 398.558 140.807 396.714C143.342 396.368 147.49 396.714 150.831 397.751C155.671 399.134 156.823 399.134 158.667 397.866C160.626 396.368 160.51 396.253 157.514 395.101C155.671 394.41 152.214 393.833 149.679 393.833C135.737 393.833 93.4486 363.529 83.8848 346.821C81.9259 343.249 79.8519 339.907 79.2757 339.562C77.6626 338.525 76.0494 331.381 76.0494 325.043C76.0494 315.019 76.7407 314.673 82.8477 321.356C85.7284 324.698 93.5638 331.726 100.016 337.142C106.584 342.558 114.65 349.471 117.761 352.582C120.988 355.693 126.519 360.418 130.091 363.068C133.547 365.718 142.189 372.516 149.218 378.163C163.391 389.455 168.691 392.681 170.65 390.722C171.342 390.031 173.07 383.233 174.683 375.628C177.679 360.533 185.514 311.792 185.514 307.759C185.514 306.377 186.206 305.109 186.897 304.879C188.741 304.187 188.971 210.969 187.128 209.702C186.551 209.241 185.399 205.554 184.593 201.636C183.901 197.603 182.288 192.072 180.905 189.422C179.638 186.772 178.601 182.969 178.601 181.126C178.601 179.282 178.025 175.71 177.333 173.175C176.066 168.451 166.041 143.216 160.049 129.85C158.206 125.702 156.708 120.632 156.708 118.558C156.708 113.949 154.864 110.377 152.675 110.377C150.486 110.377 150.486 111.759 152.675 116.829C154.749 121.899 153.597 125.241 148.412 129.158C142.42 133.537 136.428 134.92 123.292 134.92C109.35 134.92 101.053 132.385 94.1399 126.163C89.07 121.784 80.0823 105.883 81.6955 104.27C82.2716 103.693 85.6132 103.117 89.1852 103.002C94.9465 102.887 95.8683 103.233 99.5556 106.805L103.704 110.837V106.228C103.704 97.9321 108.428 96.2037 110.848 103.693C111.77 106.344 113.037 108.648 113.613 108.879C114.189 109.109 115.342 106.92 116.148 104.154C117.07 100.813 118.222 98.7387 119.835 98.2778C122.255 97.4712 129.053 100.352 138.156 105.998C144.263 109.8 146.337 110.031 146.337 107.035C146.337 104.846 139.539 99.891 131.128 95.858C128.016 94.4753 126.749 93.0926 126.519 90.9033C126.058 86.6399 121.679 86.7552 121.218 91.0185L120.872 94.1296L106.815 93.8992C93.5638 93.6687 92.4115 93.8992 86.4198 96.7798C82.963 98.6235 78.8148 100.006 77.3169 100.006C70.6337 100.006 61.4156 83.1831 60.2634 68.6646C59.4568 59.5617 61.07 56.1049 67.5226 53.109C71.786 51.035 72.1317 50.1132 73.0535 39.858C73.7449 31.5617 74.2058 30.8704 78.93 30.8704C83.3086 30.8704 84 31.6769 93.1029 47.002C99.6708 58.2943 109.695 68.3189 118.568 72.928C121.909 74.5411 124.905 75.6934 125.366 75.3477C125.712 75.002 123.292 71.891 120.066 68.4341C112.23 60.1378 105.202 49.0761 103.012 41.4712C99.786 30.5247 103.358 18.4259 112 10.5905C116.955 6.09668 115.687 6.32715 130.091 8.51648C133.663 9.09259 135.621 8.51648 140.807 5.6358C149.103 0.911499 154.749 0.911499 160.971 5.40533C174.453 15.1996 176.181 27.9897 167.078 50.6893C161.893 63.3642 161.778 64.286 164.198 64.286C166.502 64.286 174.222 56.2202 180.79 47.002C183.671 42.8539 186.667 38.821 187.473 38.0144C188.28 37.2078 188.971 35.9403 188.971 35.3642C188.971 34.7881 190.7 30.5247 192.889 25.9156C197.728 15.8909 201.992 12.5494 207.062 14.9691C213.399 17.965 215.012 27.2983 210.749 36.5164C207.177 44.5823 209.942 45.0432 214.897 37.323C221.58 26.7222 223.77 27.2983 227.918 40.4341C231.374 51.035 231.259 62.0967 227.918 68.8951C224.115 76.3848 220.543 76.5 216.395 69.4712C212.362 62.9033 210.403 62.0967 206.716 65.4383L203.951 68.0885V64.5164C203.951 60.0226 200.263 55.9897 197.383 57.0267C194.272 58.0638 191.276 61.0597 189.317 64.8622C188.28 66.7057 187.128 68.5494 186.782 68.8951C186.321 69.2408 184.593 71.891 182.864 74.8868C179.177 81.3395 177.564 82.607 176.066 79.9568C174.798 77.6523 172.494 77.6523 168.23 79.8416L165.004 81.5699L166.156 77.4218C168.115 69.9321 163.852 69.4712 158.436 76.5C154.634 81.4547 153.251 81.4547 153.251 76.5C153.251 71.4301 151.292 66.2448 149.794 67.1667C149.218 67.5124 148.642 70.9691 148.642 74.7716C148.642 78.4589 148.181 81.5699 147.605 81.5699C147.029 81.5699 145.07 79.2654 143.226 76.3848C141.498 73.5041 139.309 70.9691 138.502 70.6234C135.506 69.4712 135.621 73.965 138.617 79.4959C140.346 82.4918 141.498 85.0268 141.267 85.0268C141.037 85.0268 137.35 83.4136 133.086 81.5699C128.823 79.6111 124.905 78.1132 124.329 78.1132C120.872 78.1132 127.44 87.4465 132.741 90.0967C134.584 91.0185 135.276 92.286 135.045 94.0144C134.584 97.2408 137.695 97.4712 139.309 94.3601C140.807 91.5947 148.642 88.4836 154.173 88.4836C162.584 88.4836 166.272 94.5905 161.778 101.043C160.165 103.348 159.128 103.693 155.095 103.117C149.909 102.426 146.683 103.578 148.066 105.652C148.527 106.459 151.062 106.92 154.173 106.805C157.169 106.574 161.202 106.92 163.276 107.381C168.922 108.648 172.033 106.574 171.111 101.965L170.42 98.2778L172.148 101.274C174.222 104.961 178.831 106.344 182.403 104.5C183.786 103.809 186.667 101.158 188.856 98.7387C191.967 95.1667 194.502 93.6687 200.955 91.8251C207.292 89.8662 210.058 88.3683 213.86 84.4506C216.51 81.6852 219.045 79.7263 219.391 80.072C221.235 81.9156 219.967 95.0515 217.317 100.698C211.786 112.681 193.004 121.899 174.683 121.899C168.691 121.899 167.77 121.208 164.428 114.986C162.93 112.105 160.971 109.8 160.049 109.8C157.053 109.8 157.745 113.718 161.663 118.097C163.852 120.516 166.387 123.973 167.309 125.932C170.189 131.463 179.523 160.73 182.173 172.368C185.284 185.965 187.243 187.578 192.313 180.204C197.037 173.405 204.527 167.068 209.827 165.57C212.362 164.763 216.28 164.533 219.737 165.109L225.267 165.916L219.621 167.414C215.012 168.566 212.708 170.294 205.794 177.438C198.074 185.504 191.045 189.883 189.547 187.578C189.202 187.002 188.165 186.772 187.128 187.233C185.63 187.809 185.63 188.039 187.128 189.191C188.971 190.574 191.276 200.829 193.811 218.113C196 233.554 195.654 287.249 193.235 309.142C190.008 337.257 187.473 353.504 186.436 353.504C185.975 353.504 185.514 354.541 185.514 355.924C185.514 359.611 181.021 376.434 178.37 382.656C175.49 389.34 176.527 391.068 180.675 386.228C198.074 366.294 203.374 346.591 198.881 318.936C197.498 310.755 197.267 305.916 197.959 303.957C198.881 301.307 199.111 301.537 200.955 307.529C209.481 336.912 203.259 372.747 186.551 390.837C182.288 395.447 181.481 395.792 179.062 394.755C175.72 393.257 174.222 394.41 175.835 397.06C177.218 399.134 177.564 399.249 191.506 400.286C202.568 401.208 210.173 399.019 231.835 389.109C247.852 381.735 251.77 379.43 257.877 373.784L261.564 370.327V375.512C261.449 383.578 255.687 394.064 246.123 403.282C242.551 406.739 221.58 416.418 214.206 418.031C206.255 419.759 190.7 419.068 186.091 416.879C183.325 415.496 182.519 414.228 181.942 410.311C181.597 407.545 180.905 405.01 180.444 404.549C179.062 403.051 177.333 406.969 178.255 409.965C178.601 411.578 179.062 425.29 179.177 440.5C179.292 461.126 179.868 470.805 181.366 478.525C183.671 491.084 185.514 497.537 186.782 497.537C187.243 497.537 187.934 498.574 188.395 499.726C188.741 500.879 190.815 503.759 193.004 506.064C195.885 509.175 197.844 510.212 200.724 510.212C205.218 510.212 213.514 508.023 214.321 506.64C214.667 506.064 217.778 505.142 221.235 504.566C227.226 503.644 227.342 503.529 222.963 503.414C217.778 503.298 209.481 505.257 208.444 506.986C207.984 507.562 205.333 508.138 202.453 508.138C198.074 508.253 196.807 507.677 194.272 504.912C192.774 503.068 190.469 499.496 189.317 496.961C188.28 494.426 186.897 492.121 186.551 491.776C186.091 491.43 184.823 486.821 183.671 481.405C181.712 471.265 179.868 425.521 181.366 419.875C182.058 417.109 182.173 417.109 185.745 418.837C191.045 421.488 204.181 422.064 214.091 419.875C225.844 417.455 242.897 409.158 248.889 402.936C259.374 392.105 264.905 380.121 263.523 371.364C263.177 369.06 263.523 365.603 264.329 363.529C265.251 361.57 266.288 356.961 266.749 353.504C267.901 343.71 270.436 335.875 275.391 326.311C278.963 319.743 280 316.401 280 312.138C280 305.34 277.004 295.43 274.123 292.895C272.049 291.051 271.934 291.167 271.934 295.545C271.934 301.883 269.169 310.64 263.177 323.776C256.724 337.603 255.802 344.171 258.683 357.537C260.527 366.41 260.527 367.562 258.914 370.097C254.996 376.089 231.605 388.648 210.058 396.253C203.144 398.788 187.473 399.825 184.593 397.982C183.556 397.405 184.362 395.907 187.704 392.681C198.189 382.541 206.601 357.768 206.601 337.372C206.601 315.364 200.379 292.78 196.576 300.73C196.115 301.537 196.115 298.08 196.461 293.01C198.996 254.525 198.305 234.706 193.465 205.093C192.198 197.257 191.276 190.689 191.506 190.459C191.737 190.344 194.041 189.076 196.691 187.693C199.226 186.426 204.066 182.278 207.407 178.475C210.634 174.788 214.782 170.986 216.626 170.294C219.967 168.912 228.609 169.257 233.679 170.87C238.173 172.368 236.56 169.372 231.374 166.607C227.342 164.533 224.576 163.957 216.626 163.957C207.638 163.957 206.486 164.187 202.222 167.298C199.687 169.142 195.654 173.06 193.119 176.171C190.7 179.167 188.049 181.356 187.243 181.126C186.436 180.78 185.169 177.323 184.362 173.405C182.749 165.57 174.453 138.722 170.65 128.928L168.115 122.821L171.918 123.512C177.449 124.549 193.58 121.323 201.3 117.751C210.864 113.142 218.354 105.307 220.658 97.1255C222.502 91.0185 222.617 83.1831 220.889 79.2654C220.313 78.1132 221.235 76.9609 223.77 75.8087C225.844 74.8868 228.609 72.2366 229.877 70.0473C235.868 59.6769 229.646 27.4136 221.58 27.4136C220.658 27.4136 218.584 28.7963 216.971 30.5247L214.091 33.751L214.897 29.9485C216.741 21.3066 211.325 12.4341 204.296 12.4341C198.765 12.4341 193.926 17.7346 190.123 27.7592C188.626 32.0226 187.012 35.4794 186.551 35.4794C186.206 35.4794 183.901 38.5905 181.597 42.393C177.218 49.4218 166.041 62.4424 165.119 61.5206C164.774 61.2901 166.272 57.3724 168.23 52.7634C171.802 44.6975 175.144 31.9074 175.144 26.2613C175.144 20.2695 172.494 14.2778 167.539 8.97736C157.86 -1.27777 151.868 -2.43005 139.885 3.90741ZM200.955 66.3601C200.955 70.2778 201.185 73.5041 201.531 73.5041C201.877 73.5041 203.72 71.6605 205.449 69.4712C207.177 67.2819 209.366 65.4383 210.288 65.4383C211.095 65.4383 213.284 67.858 215.243 70.9691L218.584 76.3848L214.206 80.9938C211.671 83.5288 209.712 85.9485 209.712 86.4095C209.712 87.1008 201.646 89.9815 195.885 91.249C194.272 91.5947 190.354 94.4753 187.243 97.7017C183.786 101.043 180.444 103.463 178.947 103.463C176.181 103.463 174.337 101.619 176.412 100.928C178.14 100.352 178.37 92.8622 176.642 92.286C175.835 91.9403 174.568 93.0926 173.877 94.7057C173.07 96.4342 171.457 97.7017 170.305 97.7017C168.461 97.7017 168.23 98.2778 168.922 101.735C169.613 105.652 169.498 105.767 166.272 105.767C161.547 105.767 160.971 104.846 163.621 101.389C167.078 97.0103 166.617 92.8622 161.893 88.714C159.012 86.0638 156.823 85.0268 153.827 85.0268C151.638 85.0268 149.794 85.4876 149.794 86.179C149.794 86.7552 148.527 87.3313 146.914 87.3313C145.3 87.3313 144.033 86.7552 144.033 85.9485C144.033 85.142 142.65 82.607 141.037 80.3025C139.424 77.8827 138.272 75.3477 138.502 74.6564C138.733 73.965 140.576 75.6934 142.535 78.5741C147.72 85.9485 149.794 85.6029 149.909 77.1913C150.025 72.2366 150.255 71.3148 150.947 73.5041C151.407 75.1173 151.868 78.1132 151.984 80.072C152.099 82.1461 152.444 83.8745 152.905 83.8745C153.366 83.8745 156.247 81.4547 159.243 78.4589C164.889 72.8127 165.926 73.2737 163.506 80.3025C161.778 85.142 162.7 85.8333 166.848 82.8375C173.531 78.1132 178.025 81.5699 172.263 86.8704C170.074 88.8292 169.498 90.2119 170.305 91.0185C171.918 92.6317 175.951 90.3271 176.988 87.1008C177.449 85.6029 179.062 82.8375 180.79 80.8786C187.012 73.5041 187.934 72.2366 190.239 67.1667C192.889 61.5206 196.461 58.2943 199.342 58.8704C200.724 59.1008 201.07 60.8292 200.955 66.3601ZM131.588 82.9527C134.354 84.3354 136.774 85.8333 137.119 86.2943C137.465 86.8704 139.078 87.6769 140.576 88.2531L143.457 89.4054L140.23 90.2119C137.926 90.7881 136.428 90.5576 134.93 89.1749C133.778 88.1378 132.395 87.3313 131.819 87.2161C130.667 87.2161 125.021 80.4177 126.058 80.4177C126.403 80.4177 128.938 81.5699 131.588 82.9527ZM139.193 102.656C145.185 106.689 145.646 108.072 139.77 104.5C133.663 100.928 124.675 96.5494 123.177 96.5494C122.601 96.5494 122.37 96.0885 122.716 95.3971C123.523 94.1296 131.819 97.8169 139.193 102.656ZM175.835 98.5082C174.568 99.7757 173.877 98.0473 174.798 95.858C175.605 93.784 175.72 93.784 176.066 95.7428C176.296 96.8951 176.181 98.1626 175.835 98.5082ZM162.354 114.986C163.621 117.751 163.621 117.751 162.008 115.677C160.971 114.409 160.165 112.912 160.165 112.22C160.165 110.837 160.741 111.414 162.354 114.986ZM61.5309 161.191C63.4897 162.92 64.7572 164.648 64.4115 164.994C64.1811 165.34 58.535 166.031 52.0823 166.607C38.4856 167.874 36.4115 168.912 40.214 173.06C43.3251 176.401 52.3128 181.356 57.1523 182.278C62.6831 183.43 64.9877 190.574 63.9506 202.558C63.144 211.43 63.144 211.545 66.2551 213.619C69.0206 215.348 70.0576 215.463 74.7819 214.195C82.2716 212.237 85.2675 209.01 85.2675 203.019C85.2675 198.064 81.5802 187.578 79.7366 187.578C78.1235 187.578 73.7449 178.821 73.7449 175.479C73.7449 170.525 77.0864 164.533 79.2757 165.34C83.3086 166.837 87.8025 170.986 91.3745 176.516C95.9835 183.776 96.3292 192.187 92.2963 200.023C90.9136 202.788 89.9918 205.784 90.3374 206.591C90.5679 207.397 95.4074 210.508 101.053 213.619C106.584 216.615 115.802 221.916 121.333 225.257C126.864 228.599 131.704 231.364 132.049 231.364C132.856 231.364 145.185 240.582 147.72 243.117C148.988 244.385 155.325 250.031 161.778 255.562C174.914 266.854 184.362 276.648 184.362 278.837C184.362 279.644 184.016 281.488 183.671 282.986C182.979 285.29 181.136 283.677 166.041 268.467C148.412 250.492 137.35 240.467 132.51 237.817C130.897 237.01 125.021 233.323 119.259 229.521C113.613 225.833 104.049 220.302 98.1728 217.307C86.3045 211.2 83.7695 211.2 82.3868 217.422C81.5802 221.34 78.3539 223.759 71.4403 225.603C61.3004 228.368 54.1564 224.566 54.1564 216.385C54.1564 212.352 54.5021 211.776 56.9218 211.776C59.9177 211.776 62.7984 209.01 61.6461 207.282C61.3004 206.591 59.4568 206.36 57.6132 206.821C54.8477 207.282 54.1564 207.051 54.1564 205.438C54.1564 200.023 46.0905 197.142 40.0988 200.368C37.9095 201.521 37.7942 201.405 38.6008 199.562C40.4444 195.298 42.6337 185.85 42.6337 182.508C42.6337 180.665 41.0206 176.632 39.0617 173.636C33.9918 165.685 35.8354 162.113 47.0123 158.08C52.6584 156.006 57.3827 157.043 61.5309 161.191ZM71.5556 168.335C72.9383 168.451 73.0535 169.142 72.1317 172.714C71.2099 176.171 71.4403 177.784 73.5144 182.047C74.8971 184.813 77.0864 188.154 78.2387 189.537C79.5062 190.805 81.3498 194.492 82.5021 197.718C84.2305 202.442 84.3457 204.056 83.1934 206.591C80.7737 211.776 68.9053 215.002 65.7942 211.315C64.7572 210.047 64.7572 208.089 65.7942 202.788C67.0617 196.912 66.9465 195.183 65.2181 189.883C64.1811 186.656 63.3745 183.776 63.6049 183.66C63.8354 183.545 65.3333 182.854 67.177 182.047C70.4033 180.665 71.3251 178.014 69.0206 176.516C68.3292 176.171 66.2551 176.977 64.2963 178.36C61.7613 180.204 59.9177 180.665 57.1523 180.204C53.0041 179.397 41.251 172.714 40.6749 170.755C40.214 169.257 60.4938 166.722 66.2551 167.644C68.214 167.874 70.5185 168.22 71.5556 168.335ZM39.7531 178.936C40.9053 181.586 41.0206 183.891 40.0988 188.154C38.716 194.953 33.07 207.397 30.3045 209.586C28.5761 211.084 28.4609 210.508 29.1523 201.405C29.6132 195.99 29.3827 188.5 28.8066 184.698C27.7695 178.706 27.8848 177.669 29.6132 176.632C30.6502 175.94 32.2634 174.673 33.3004 173.636C35.0288 171.907 35.2593 171.907 36.7572 173.636C37.5638 174.673 38.9465 177.093 39.7531 178.936ZM31.9177 173.29C31.572 173.636 30.535 173.751 29.7284 173.405C28.8066 173.06 29.1523 172.714 30.4198 172.714C31.6872 172.599 32.3786 172.944 31.9177 173.29ZM25.3498 181.817C25.3498 183.66 25.9259 185.274 26.5021 185.274C27.1934 185.274 27.6543 188.961 27.6543 193.916C27.6543 198.87 27.1934 202.558 26.5021 202.558C24.7737 202.558 25.1193 209.471 26.963 211.315C27.8848 212.237 29.2675 212.698 30.1893 212.352C30.9959 212.121 32.7243 213.504 33.9918 215.578C36.1811 219.035 44.823 224.22 54.1564 227.677L58.1893 229.175L55.3086 230.788C51.6214 232.977 46.7819 232.977 42.749 230.903C38.9465 228.829 32.4938 221.8 31.1111 217.998C30.535 216.5 27.4239 213.735 24.3128 211.776C16.5926 206.936 14.749 203.825 14.8642 195.414C14.8642 188.154 16.5926 184.121 21.2016 180.434C24.6584 177.553 25.3498 177.899 25.3498 181.817ZM169.037 181.817C170.765 183.66 172.955 185.274 173.646 185.274C175.951 185.274 175.374 187.348 172.955 188.73C170.074 190.228 165.926 188.73 160.395 184.121C158.091 182.163 155.095 180.665 153.827 180.665C151.984 180.665 151.868 180.434 153.251 179.512C154.173 178.936 157.399 178.36 160.395 178.36C164.889 178.36 166.272 178.936 169.037 181.817ZM50.8148 202.673C52.8889 204.747 53.1193 205.899 52.428 211.776C51.8519 216.846 52.0823 219.496 53.465 222.146C55.1934 225.603 55.0782 225.718 52.6584 224.912C48.1646 223.529 39.177 218.689 36.8724 216.385C33.8765 213.389 33.9918 209.356 36.9877 205.554C41.3663 200.023 47.0123 198.87 50.8148 202.673ZM77.6626 277.224C79.9671 279.298 82.1564 282.294 82.5021 284.023C83.5391 288.056 81.3498 301.076 79.2757 303.15C78.0082 304.418 77.7778 303.15 77.7778 295.2C77.6626 286.903 77.3169 284.944 74.0905 278.722C70.2881 271.348 70.8642 271.002 77.6626 277.224ZM187.819 284.368C187.819 284.944 187.358 285.521 186.667 285.521C186.091 285.521 185.514 284.944 185.514 284.368C185.514 283.677 186.091 283.216 186.667 283.216C187.358 283.216 187.819 283.677 187.819 284.368ZM278.041 310.986C278.041 316.747 277.35 319.051 272.741 328.039C268.823 335.414 266.979 340.714 266.058 346.821C265.251 351.43 264.214 357.307 263.523 359.842L262.37 364.451L260.872 358.689C259.951 355.463 259.259 349.356 259.259 344.977C259.259 338.179 259.951 335.644 263.984 326.541C270.321 312.484 273.086 304.418 273.086 299.463L273.202 295.315L275.621 299.809C277.119 302.805 277.926 306.607 278.041 310.986ZM197.844 332.303C198.305 344.516 198.074 348.665 196.461 354.196C194.272 361.57 189.202 372.516 186.321 376.089C185.284 377.241 183.556 379.315 182.519 380.582L180.675 382.887L181.481 380.582C181.827 379.315 183.095 375.167 184.132 371.364C185.169 367.562 186.321 364.22 186.782 363.875C187.588 363.298 191.967 335.298 194.156 317.208C194.963 310.755 195.078 310.525 196.115 313.751C196.691 315.595 197.498 324.006 197.844 332.303Z" fill="black"/>
</svg>
