<svg width="361" height="575" viewBox="0 0 361 575" fill="none" xmlns="http://www.w3.org/2000/svg">
<path d="M217.945 78.6135C197.612 98.1622 170.404 108.296 143.742 116.619C117.081 124.942 89.5638 132.223 66.0448 147.658C42.5264 163.091 23.2632 188.826 23.9568 216.679C24.3389 232.061 30.7451 246.629 39.6599 258.863C69.7195 300.115 127.579 314.662 177.92 301.918C228.26 289.174 271.02 252.99 301.511 210.18C318.231 186.704 332.163 159.752 332.795 131.266C333.426 102.78 317.573 72.9965 290.636 65.1962C266.374 58.1711 235.551 61.6868 217.945 78.6135Z" fill="#FAA2A3"/>
<path d="M167.976 513.067C206.667 492.106 229.053 447.238 221.526 405.737C220.616 400.723 219.22 395.585 215.807 391.645C212.005 387.257 206.059 384.872 200.093 384.211C188.727 382.951 177.323 387.464 168.361 394.181C159.4 400.898 152.485 409.689 145.679 418.372C138.054 428.101 130.429 437.83 122.803 447.557C115.591 456.758 108.246 466.207 104.803 477.182C101.362 488.157 102.556 501.15 110.91 509.448C116.845 515.343 130.774 533.22 167.976 513.067Z" fill="#ADC4A9"/>
<path d="M131.947 573.947C164.705 519.556 151.726 475.674 109.078 428.7C66.4303 381.726 50.3602 331.045 61.4857 323.01C72.6111 314.974 101.205 334.753 104.213 353.296C107.222 371.838 98.5706 408.305 96.0982 400.888C93.6259 393.471 78.1739 358.24 79.41 344.642C80.6462 331.045 108.46 351.441 112.168 363.185C115.877 374.928 98.8796 425.92 98.8796 425.92C98.8796 425.92 122.985 450.025 125.148 458.679C127.311 467.332 97.0254 431.174 64.267 421.903C31.5087 412.631 33.3629 431.174 40.7799 435.809C48.1969 440.445 61.7947 427.156 59.3224 425.611C56.85 424.066 38.9257 424.066 32.1268 429.629C25.3279 435.191 38.6166 455.279 60.8676 450.025C83.1185 444.772 130.093 461.151 142.762 485.565" stroke="#0C1A3B" stroke-width="2" stroke-miterlimit="10" stroke-linecap="round" stroke-linejoin="round"/>
<path d="M149.021 530.642C166.559 475.365 199.007 449.715 194.064 406.758C189.119 363.801 255.872 338.769 262.36 335.987M262.36 335.987C268.85 333.206 252.162 371.836 239.491 382.653C226.821 393.469 200.243 411.084 199.316 402.431C198.389 393.778 208.278 379.562 226.512 371.527C244.745 363.492 262.36 335.987 262.36 335.987Z" stroke="#0C1A3B" stroke-width="2" stroke-miterlimit="10" stroke-linecap="round" stroke-linejoin="round"/>
<path d="M194.064 406.758C186.338 362.565 180.466 304.158 185.72 278.507C190.974 252.857 186.956 248.221 180.775 255.947C174.594 263.673 175.211 311.544 180.775 331.044C186.34 350.545 192.519 331.354 191.901 301.995C191.283 272.636 234.239 240.186 256.49 217.008C278.741 193.83 336.221 184.868 346.728 182.705C357.236 180.541 362.181 209.591 359.09 224.734C356 239.877 314.897 271.091 292.337 274.49C269.777 277.889 237.01 279.949 214.459 294.676C191.91 309.403 193.753 283.143 210.441 268.002C227.13 252.861 282.968 227.481 296.044 209.284C309.122 191.087 311.187 137.896 305.006 121.516C298.825 105.137 265.758 140.986 245.979 153.039C226.201 165.091 202.404 252.355 200.55 262.032C198.696 271.709 233.927 229.37 245.67 206.194C257.414 183.016 273.793 152.111 270.703 120.591C267.612 89.0689 240.108 83.1972 223.419 71.4536C206.731 59.71 190.043 89.378 181.39 112.556C172.737 135.734 163.156 135.425 155.739 132.953C148.322 130.48 132.561 91.2322 117.727 81.0339C102.893 70.8355 82.8056 75.1075 74.7705 68.7995C66.7354 62.4914 69.8259 94.9407 63.645 115.956C57.4642 136.97 67.0445 145.932 84.6598 175.909C102.275 205.886 118.963 216.394 139.978 231.846C160.993 247.298 176.754 298.29 171.809 305.398C166.865 312.506 138.124 292.727 107.529 281.602C76.9338 270.476 63.9541 269.549 52.5195 256.569C41.085 243.589 46.9568 219.484 35.2132 202.796C23.4697 186.108 18.525 189.507 20.3793 183.635C22.2335 177.764 50.8016 167.482 68.5897 173.128C86.3777 178.774 105.366 196.615 131.325 212.994C157.284 229.374 168.41 251.315 169.955 266.149C171.5 280.983 171.5 280.983 171.5 280.983C171.5 280.983 173.973 263.986 171.5 249.461C169.028 234.936 148.631 218.248 136.888 208.359C125.144 198.469 118.654 172.819 121.436 156.749C124.217 140.679 154.503 112.556 155.43 97.7221C156.357 82.8881 183.862 107.611 192.824 134.807C201.786 162.003 213.53 176.528 214.457 190.434C215.384 204.341 200.55 262.034 200.55 262.034" stroke="#0C1A3B" stroke-width="2" stroke-miterlimit="10" stroke-linecap="round" stroke-linejoin="round"/>
</svg>
