<svg width="386" height="228" viewBox="0 0 386 228" fill="none" xmlns="http://www.w3.org/2000/svg">
<g filter="url(#filter0_d_27_54101)">
<path d="M315.717 169.461L290.629 175.688C290.629 175.688 283.979 147.645 266.107 144.448C248.238 141.246 205.214 117.439 239.574 57.9634C274.832 -3.06521 351.602 5.97898 367.758 53.4361C387.379 111.08 311.351 132.723 315.717 169.461Z" fill="#FFE31A"/>
<path d="M281.647 90.8302C275.179 90.3627 270.771 88.6402 266.909 85.0684C262.707 81.1936 260.198 75.9831 260.195 71.1323C260.194 67.2232 261.83 63.6411 264.929 60.7765C266.541 59.2782 269.225 57.2766 271.475 56.5694C273.782 55.8332 276.215 55.7801 278.577 56.2304C278.913 54.8657 279.252 53.7716 279.451 53.1655C282.168 44.8456 290.919 34.9932 300.319 33.5874C305.803 32.7707 312.001 34.6935 316.113 38.4965C317.045 39.3595 317.827 40.3457 318.438 41.4193C322.014 40.332 325.652 39.8749 328.629 40.029C333.999 40.3166 338.783 43.0648 341.427 47.3814C343.36 50.5388 343.98 54.2185 343.224 58.0215C341.836 65.0469 338.059 69.6118 331.996 71.5843L331.494 69.2608C336.881 67.5074 340.096 63.6445 341.319 57.453C341.933 54.3709 341.428 51.3881 339.858 48.8249C337.564 45.0767 333.335 42.6864 328.544 42.4296C325.912 42.2892 322.654 42.6881 319.413 43.6179C319.695 44.4809 319.881 45.3798 319.959 46.2976C320.217 49.3214 319.339 52.3504 317.419 55.0575C315.277 58.0831 310.654 60.7731 307.457 59.8005C305.797 59.2954 304.661 57.8434 304.257 55.715C303.527 51.77 306.999 48.1228 308.082 47.1006C310.355 44.9432 313.297 43.284 316.401 42.1128C315.984 41.5049 315.492 40.9348 314.932 40.4177C311.205 36.9709 305.563 35.2243 300.557 35.976C291.867 37.2756 283.779 46.3746 281.27 54.061C281.002 54.8829 280.74 55.7801 280.502 56.7167C285.838 58.3759 290.49 62.4922 291.983 66.9167C292.737 69.1529 292.229 72.0843 290.721 74.2144C289.141 76.4386 286.871 77.2827 284.492 76.5328C279.902 75.0705 278.29 69.3789 277.739 66.1153C277.341 63.7781 277.612 61.0248 278.057 58.619C275.995 58.2372 273.9 58.2817 271.964 58.9015C270.119 59.482 267.695 61.2251 266.11 62.6977C263.483 65.1256 262.153 67.9646 262.156 71.134C262.158 75.9626 265.221 80.5086 268.087 83.1524C271.619 86.4177 275.709 87.9964 281.762 88.4347L281.647 90.8302ZM279.98 59.095C279.543 61.4323 279.347 63.7935 279.659 65.6239C280.12 68.343 281.422 73.0706 284.985 74.2041C287.224 74.9147 288.612 73.526 289.242 72.6356C290.26 71.2008 290.643 69.2265 290.172 67.8345C288.918 64.1137 284.702 60.571 279.98 59.095ZM317.497 44.2343C314.411 45.3318 311.473 46.9226 309.281 49.003C307.61 50.5834 305.792 53.1484 306.167 55.1774C306.405 56.4291 306.981 57.1807 307.929 57.4684C310.334 58.1927 314.21 55.9256 315.939 53.4822C317.494 51.2888 318.209 48.8917 318.01 46.5493C317.943 45.7582 317.768 44.9808 317.497 44.2343Z" fill="#09103F"/>
<g opacity="0.4">
<path d="M261.792 92.9145C257.202 110.027 247.831 121.617 240.857 118.804C233.88 115.991 231.947 99.8407 236.534 82.7317C241.123 65.621 250.496 54.0324 257.47 56.8439C264.445 59.6555 266.379 75.8039 261.792 92.9145Z" fill="white"/>
<path d="M329.394 27.427C329.394 27.427 380.263 49.1711 342.283 114.366C342.283 114.366 406.136 57.4499 329.394 27.427Z" fill="white"/>
</g>
<path d="M300.578 143.326C297.341 144.892 293.725 143.676 293.725 143.676C304.486 144.929 304.778 133.813 304.718 131.467C304.162 131.707 303.877 132.073 303.877 132.073L303.695 131.269C305.652 129.796 307.807 131.955 307.807 131.955C306.645 131.245 305.737 131.187 305.097 131.342C306.874 132.782 314.081 139.123 313.644 147.172C313.149 156.359 303.111 153.252 303.111 153.252C303.111 153.252 308.023 153.538 310.84 151.126L310.805 151.146L300.578 143.326Z" fill="#09103F"/>
<path d="M312.017 149.86C312.017 149.86 313.923 146.968 311.831 141.302C311.831 141.302 309.161 144.891 312.017 149.86Z" fill="#FF6E6E"/>
<path d="M301.983 142.877L303.693 144.368L307.782 134.87L305.878 133.459C305.878 133.459 305.335 139.142 301.983 142.877Z" fill="white"/>
<path d="M308.188 123.514L305.899 124.944C305.899 124.944 302.785 96.9329 297.257 99.0013C291.726 101.073 295.591 128.771 295.591 128.771C295.591 128.771 288.639 102.695 296.893 96.9261C305.147 91.1557 308.188 123.514 308.188 123.514Z" fill="#09103F"/>
<path d="M287.529 129.176L285.3 130.569C285.3 130.569 282.265 103.284 276.882 105.299C271.496 107.318 275.256 134.298 275.256 134.298C275.256 134.298 268.487 108.893 276.527 103.277C284.567 97.6588 287.529 129.176 287.529 129.176Z" fill="#09103F"/>
<path d="M287.529 170.498L292.585 181.712L315.293 181.847L317.439 167.642L287.529 170.498Z" fill="#09103F"/>
<path opacity="0.7" d="M287.529 170.498L292.585 181.712L315.293 181.847L317.439 167.642L287.529 170.498Z" fill="white"/>
<path d="M310.33 170.931L293.767 172.029L293.84 173.669L310.402 172.57L310.33 170.931Z" fill="#09103F"/>
<path d="M314.292 173.87L292.805 176.241L292.925 177.876L314.412 175.506L314.292 173.87Z" fill="#09103F"/>
<path d="M310.378 179.279H297.012V180.921H310.378V179.279Z" fill="#09103F"/>
<path d="M318.988 169.511C318.988 169.511 337.424 182.594 349.33 173.666C361.234 164.735 351.76 137.635 351.76 137.635C351.76 137.635 359.24 133.245 358.696 131.593C358.147 129.94 351.823 136.344 351.823 136.344C351.823 136.344 360.389 124.67 358.75 123.238C357.116 121.807 350.912 135.551 350.912 135.551C350.912 135.551 353.631 118.84 351.799 118.46C349.963 118.079 349.862 135.476 349.862 135.476C349.862 135.476 344.482 128.928 343.836 130.041C343.189 131.156 350.214 137.461 350.214 137.461C350.214 137.461 357.739 160.842 348.987 171.182C340.241 181.524 318.988 169.511 318.988 169.511Z" fill="#09103F"/>
<path d="M286.55 174.994C286.55 174.994 271.831 193.877 258.363 189.389C244.895 184.897 247.814 155.63 247.814 155.63C247.814 155.63 239.627 153.979 239.776 152.203C239.924 150.43 247.456 154.412 247.456 154.412C247.456 154.412 236.57 146.137 237.817 144.204C239.059 142.267 248.149 153.339 248.149 153.339C248.149 153.339 241.728 138.228 243.401 137.231C245.078 136.238 249.142 152.904 249.142 152.904C249.142 152.904 252.813 144.771 253.688 145.618C254.564 146.467 249.256 154.929 249.256 154.929C249.256 154.929 247.366 179.956 258.124 186.885C268.882 193.817 286.55 174.994 286.55 174.994Z" fill="#09103F"/>
<path d="M295.756 182.808C295.756 182.808 284.367 182.26 279.232 190.883L304.129 203.068C304.129 203.068 273.205 197.594 269.743 205.121C269.743 205.121 290.285 209.913 310.377 203.342L281.466 190.337L295.756 182.808Z" fill="#09103F"/>
<path d="M311.161 183.9L306.585 191.292L331.703 176.781C331.703 176.781 328.242 196.492 317.301 205.254C317.301 205.254 315.85 192.522 329.023 181.846L305.247 192.797C305.244 192.799 305.244 187.048 311.161 183.9Z" fill="#09103F"/>
<path d="M120.19 182.628L130.125 191.936L108.023 209.594C108.023 209.594 133.361 205.898 136.822 211.099C136.822 211.099 117.289 214.661 102.33 211.099L127.446 192.073L120.19 182.628Z" fill="#09103F"/>
<path d="M142.629 176.635L152.562 185.943L130.459 203.602C130.459 203.602 155.799 199.907 159.26 205.11C159.26 205.11 139.725 208.67 124.766 205.11L149.884 186.082L142.629 176.635Z" fill="#09103F"/>
<path d="M42.6063 116.237C42.6063 116.237 21.3957 113.775 15.9262 98.032C10.4567 82.2894 30.9971 66.9578 30.9971 66.9578C30.9971 66.9578 26.977 58.0608 28.2058 57.102C29.4345 56.1448 31.5542 65.8619 31.5542 65.8619C31.5542 65.8619 30.1034 50.2581 32.1128 50.2581C34.1221 50.2581 32.6713 65.8619 32.6713 65.8619C32.6713 65.8619 38.3642 50.318 40.0385 51.3145C41.7127 52.311 33.5636 66.5468 33.5636 66.5468C33.5636 66.5468 41.0424 65.0418 41.0424 66.4099C41.0424 67.7797 32.3348 67.9149 32.3348 67.9149C32.3348 67.9149 15.1443 81.6028 17.377 96.2512C19.6098 110.9 42.6063 116.237 42.6063 116.237Z" fill="#09103F"/>
<path d="M197.255 120.683C197.255 120.683 217.997 114.732 221.687 98.2287C225.375 81.7225 203.335 69.9335 203.335 69.9335C203.335 69.9335 206.337 60.451 205.015 59.7045C203.693 58.9596 202.662 68.9404 202.662 68.9404C202.662 68.9404 202.381 53.2389 200.389 53.5711C198.398 53.9016 201.553 69.1253 201.553 69.1253C201.553 69.1253 194.202 54.667 192.653 55.9289C191.103 57.1943 200.746 69.9524 200.746 69.9524C200.746 69.9524 193.168 69.6989 193.319 71.0551C193.471 72.4095 202.112 71.103 202.112 71.103C202.112 71.103 220.653 81.8218 220.054 96.7048C219.453 111.588 197.255 120.683 197.255 120.683Z" fill="#09103F"/>
<path d="M145.418 146.628C145.418 146.628 131.576 180.575 114.831 181.945C98.0863 183.313 93.1753 166.888 93.1753 166.888C93.1753 166.888 90.7191 174.005 86.0316 172.911C81.3426 171.815 81.1192 163.585 81.1192 163.585C81.1192 163.585 61.9193 175.923 57.2304 172.365C52.5414 168.805 57.2304 153.342 57.2304 153.342C57.2304 153.342 49.2097 156.494 48.7545 153.342C48.2993 150.19 53.4351 146.63 53.4351 146.63C53.4351 146.63 40.0399 137.868 41.8258 124.18C43.6117 110.492 59.2411 106.385 59.2411 106.385C59.2411 106.385 55.2224 98.0066 56.5615 94.9399C57.9006 91.8732 63.0364 96.2549 63.0364 96.2549C63.0364 96.2549 66.6083 69.9699 74.4223 82.0191C74.4223 82.0191 81.1206 39.8563 132.695 46.7019C184.269 53.5458 168.64 92.1506 154.574 81.7469C154.574 81.7469 166.854 132.668 150.11 135.68C150.107 135.676 149.884 156.758 145.418 146.628Z" fill="#FF6E6E"/>
<path d="M123.761 167.774C123.761 167.774 133.306 184.611 146.367 171.675C146.367 171.675 149.046 177.341 151.892 176.562C154.739 175.782 155.577 169.622 155.577 169.622C155.577 169.622 159.431 178.246 168.303 173.113C177.177 167.98 178.851 147.241 178.851 147.241C178.851 147.241 182.536 156.275 185.048 152.374C187.559 148.474 183.708 140.465 183.708 140.465C183.708 140.465 195.094 134.305 196.099 120.959C197.104 107.612 187.393 101.864 187.393 101.864C187.393 101.864 195.263 99.4 194.091 96.3196C192.918 93.2393 181.365 91.5972 181.365 91.5972C181.365 91.5972 188.231 86.6693 187.393 84.8217C186.555 82.9725 182.536 84.8217 182.536 84.8217C182.536 84.8217 199.28 41.7018 150.554 54.227C101.826 66.7522 123.761 167.774 123.761 167.774Z" fill="#FF6E6E"/>
<path opacity="0.3" d="M157.948 55.1309C177.367 68.3359 165.498 89.8265 154.573 81.7429C154.573 81.7429 167.556 129.924 149.455 134.304C149.455 134.304 164.619 128.418 153.01 80.2344C153.01 80.2344 167.08 86.2085 167.187 74.2123C167.298 61.7556 157.505 55.8688 157.505 55.8688" fill="white"/>
<path opacity="0.3" d="M56.9147 138.823C56.9147 138.823 55.9108 148.474 59.0917 148.679C62.2726 148.885 66.7939 140.465 66.7939 140.465C66.7939 140.465 67.1291 161.821 76.8407 158.946C86.5523 156.071 91.744 135.743 91.744 135.743C91.744 135.743 83.0363 157.713 75.1665 157.918C67.2966 158.124 67.6318 137.385 67.6318 137.385C67.6318 137.385 57.2499 157.713 56.9147 138.823Z" fill="white"/>
<path opacity="0.3" d="M170.061 73.2729C170.061 73.2729 170.328 66.2783 171.492 66.2868C172.655 66.2954 173.743 72.5794 173.743 72.5794C173.743 72.5794 175.26 57.2255 178.584 59.7734C181.913 62.3212 182.462 77.2111 182.462 77.2111C182.462 77.2111 180.746 60.9668 177.913 60.4309C175.075 59.8932 173.844 74.8362 173.844 74.8362C173.844 74.8362 171.417 59.6946 170.061 73.2729Z" fill="white"/>
<path opacity="0.3" d="M145.523 158.797C145.523 158.797 145.639 163.656 147.986 163.115C150.328 162.579 152.901 157.607 152.901 157.607C152.901 157.607 155.024 167.845 161.877 164.513C168.732 161.175 170.74 150.325 170.74 150.325C170.74 150.325 166.301 162.674 160.566 164.348C154.82 166.03 153.238 155.955 153.238 155.955C153.238 155.955 147.436 167.846 145.523 158.797Z" fill="white"/>
<path opacity="0.3" d="M64.3183 112.542C64.3183 112.542 61.8063 124.451 65.1561 124.862C68.506 125.271 72.5233 117.675 72.5233 117.675C72.5233 117.675 80.2256 133.279 86.5887 129.995C92.9519 126.709 90.1061 107.819 90.1061 107.819C90.1061 107.819 104.674 116.353 112.71 105.766C120.748 95.176 107.686 78.252 107.686 78.252C107.686 78.252 117.565 97.9653 111.035 105.355C104.504 112.747 89.3675 106.176 89.3675 106.176C89.3675 106.176 91.2749 125.889 85.4144 128.351C79.5539 130.815 72.5219 116.237 72.5219 116.237C72.5219 116.237 68.5032 123.218 65.4884 123.218C62.4765 123.218 64.3183 112.542 64.3183 112.542Z" fill="white"/>
<path opacity="0.3" d="M184.948 125.268C184.948 125.268 190.518 124.751 190.093 122.517C189.669 120.277 185.681 119.046 185.681 119.046C185.681 119.046 191.005 111.262 188.45 107.738C185.893 104.214 178.283 109.447 178.283 109.447C178.283 109.447 179.337 98.4972 173.34 95.2028C167.345 91.9101 162.413 103.394 162.413 103.394C162.413 103.394 169.114 93.4665 173.465 96.3603C177.817 99.254 177.712 110.219 177.712 110.219C177.712 110.219 185.843 105.446 187.954 108.791C190.068 112.139 185.064 119.305 185.064 119.305C185.064 119.305 188.785 120.649 189.328 122.597C189.868 124.541 184.948 125.268 184.948 125.268Z" fill="white"/>
<path opacity="0.3" d="M101.324 95.2922C101.324 95.2922 90.2528 95.8401 89.3689 82.5615C88.4864 69.2829 103.891 66.5449 111.928 74.7587C111.928 74.7587 111.146 63.6718 113.938 62.9852C116.728 62.3002 119.631 70.103 119.631 70.103C119.631 70.103 128.002 55.5933 141.956 64.492C155.909 73.3872 139.611 91.7307 139.611 91.7307C139.611 91.7307 152.114 70.24 140.505 65.0382C128.895 59.8363 119.741 71.8838 119.741 71.8838C119.741 71.8838 116.95 64.0793 114.16 64.6272C111.37 65.1751 112.709 75.9898 112.709 75.9898C112.709 75.9898 99.6767 63.9594 91.3866 76.4007C84.2442 87.1247 101.324 95.2922 101.324 95.2922Z" fill="white"/>
<path opacity="0.3" d="M86.2953 103.833C86.2953 103.833 90.6966 101.867 89.1759 96.1635C87.6567 90.4583 81.2544 92.3726 79.2632 97.3861C79.2632 97.3861 78.0135 92.614 76.828 92.8811C75.6411 93.1499 75.6034 96.9769 75.6034 96.9769C75.6034 96.9769 70.2944 92.59 66.0928 99.0641C61.8898 105.531 70.8334 109.94 70.8334 109.94C70.8334 109.94 62.9315 103.47 66.7351 99.0025C70.5416 94.5369 75.8086 97.7405 75.8086 97.7405C75.8086 97.7405 75.8059 93.9376 76.9718 93.6105C78.1378 93.2869 79.1334 98.0539 79.1334 98.0539C79.1334 98.0539 82.5377 90.4634 87.5227 94.0026C91.822 97.0505 86.2953 103.833 86.2953 103.833Z" fill="white"/>
<path opacity="0.3" d="M123.416 153.768C123.416 153.768 130.229 157.887 127.447 165.183C124.665 172.483 114.954 167.846 112.596 160.456C112.596 160.456 110.299 166.565 108.611 165.854C106.925 165.14 107.259 159.937 107.259 159.937C107.259 159.937 99.1406 164.325 93.7269 154.309C88.3147 144.288 101.696 140.934 101.696 140.934C101.696 140.934 89.6091 147.394 94.6499 154.577C99.6935 161.76 107.64 158.963 107.64 158.963C107.64 158.963 107.242 164.125 108.896 164.907C110.549 165.693 112.476 159.512 112.476 159.512C112.476 159.512 116.616 170.82 124.186 167.481C130.708 164.603 123.416 153.768 123.416 153.768Z" fill="white"/>
<path d="M135.518 162.798L147.302 145.556C147.005 145.453 146.709 145.296 146.46 145.068C143.772 142.693 146.159 135.097 146.282 134.669C145.99 134.799 136.468 139.205 132.537 151.11C129.997 158.786 131.575 162.562 135.518 162.798Z" fill="white"/>
<path d="M133.026 151.438C137.427 140.039 145.335 135.712 145.335 135.712C145.335 135.712 142.642 144.238 146.109 145.926C151.005 148.316 155.117 142.393 155.117 142.393C155.117 142.393 149.219 147.518 146.461 145.066C143.698 142.611 146.292 134.663 146.292 134.663C146.292 134.663 136.536 139.013 132.538 151.109C128.549 163.204 134.747 165.627 144.326 159.771C144.326 159.771 136.662 163.686 133.425 161.805C130.194 159.932 133.026 151.438 133.026 151.438Z" fill="#09103F"/>
<path d="M146.97 135.466C146.97 135.466 146.212 134.219 142.197 134.752C142.197 134.752 145.056 133.149 147.548 134.885L146.97 135.466Z" fill="#09103F"/>
<path d="M134.257 162.179L146.087 145.232L145.74 145.068L133.91 162.012L134.257 162.179Z" fill="#09103F"/>
<path d="M131.84 157.331L145.111 142.515L144.78 142.33L131.511 157.143L131.84 157.331Z" fill="#09103F"/>
<path d="M134.827 147.268L145.114 139.604L144.821 139.387L134.532 147.046L134.827 147.268Z" fill="#09103F"/>
<path d="M144.148 150.475C141.622 149.33 140.05 147.64 139.476 145.453C138.611 142.164 140.322 138.994 140.396 138.861L140.763 139.164C140.746 139.195 139.099 142.256 139.897 145.292C140.429 147.309 141.911 148.883 144.303 149.967L144.148 150.475Z" fill="#09103F"/>
<path d="M126.746 115.456H129.314C129.314 115.456 121.724 142.15 127.417 143.381C133.11 144.614 139.918 117.783 139.918 117.783C139.918 117.783 136.461 144.888 126.971 145.436C117.48 145.981 126.746 115.456 126.746 115.456Z" fill="#09103F"/>
<path d="M163.861 121.139H166.362C166.362 121.139 158.968 147.141 164.515 148.342C170.059 149.54 176.694 123.406 176.694 123.406C176.694 123.406 173.323 149.807 164.08 150.34C154.836 150.872 163.861 121.139 163.861 121.139Z" fill="#09103F"/>
</g>
<defs>
<filter id="filter0_d_27_54101" x="0" y="0" width="386" height="227.682" filterUnits="userSpaceOnUse" color-interpolation-filters="sRGB">
<feFlood flood-opacity="0" result="BackgroundImageFix"/>
<feColorMatrix in="SourceAlpha" type="matrix" values="0 0 0 0 0 0 0 0 0 0 0 0 0 0 0 0 0 0 127 0" result="hardAlpha"/>
<feOffset/>
<feGaussianBlur stdDeviation="7.5"/>
<feComposite in2="hardAlpha" operator="out"/>
<feColorMatrix type="matrix" values="0 0 0 0 0 0 0 0 0 0 0 0 0 0 0 0 0 0 0.25 0"/>
<feBlend mode="normal" in2="BackgroundImageFix" result="effect1_dropShadow_27_54101"/>
<feBlend mode="normal" in="SourceGraphic" in2="effect1_dropShadow_27_54101" result="shape"/>
</filter>
</defs>
</svg>
