<svg width="372" height="241" viewBox="0 0 372 241" fill="none" xmlns="http://www.w3.org/2000/svg">
<g filter="url(#filter0_d_10_722)">
<path d="M360.394 126.562C358.905 126.125 356.514 126.686 355.461 127.884C334.849 151.324 308.226 169.287 278.766 179.607C250.946 189.352 221.008 191.897 191.962 187.282C192.389 186.877 192.814 186.47 193.237 186.061C218.72 161.396 235.326 128.362 240.114 93.2207C241.266 84.7595 241.714 76.2141 241.48 67.6783C241.24 58.9565 240.298 50.1783 237.633 41.8347C235.027 33.6753 230.668 25.8403 224.073 20.2471C217.941 15.0476 210.428 11.959 202.507 10.8048C185.907 8.38539 169.204 14.8596 157.672 26.8499C147.659 37.259 142.008 50.7616 140.344 64.9006C136.448 58.1213 130.975 52.4966 123.127 49.5468C110.536 44.814 95.4319 48.0109 84.7269 55.7782C73.045 64.2544 67.1203 78.2644 66.9366 92.486C66.7358 108.031 72.7507 122.56 82.221 134.708C92.3398 147.688 105.813 157.998 119.808 166.479C133.772 174.941 148.885 181.522 164.544 186.125C170.101 187.759 175.728 189.134 181.401 190.252C160.706 208.255 135.175 220.989 108.03 224.997C79.4991 229.209 48.9845 224.293 25.2048 207.283C22.3172 205.218 19.5761 202.971 16.955 200.577C15.727 199.455 13.7049 199.728 12.2962 200.355C11.4593 200.728 9.2686 202.293 10.5069 203.424C33.9058 224.795 66.3132 232.712 97.3807 230.373C130.657 227.867 162.521 213.32 187.501 191.352C213.921 195.674 241.184 194.435 267.096 187.456C299.239 178.799 329.182 161.737 352.791 138.233C355.673 135.364 358.453 132.394 361.138 129.34C362.129 128.213 361.897 127.003 360.394 126.562ZM135.047 168.553C148.299 159.386 161.535 150.198 174.755 140.985C188.344 131.514 201.917 122.02 215.473 112.501C220.988 108.628 226.499 104.751 232.009 100.87C230.509 109.128 228.354 117.261 225.569 125.169C205.872 139.023 186.14 152.827 166.371 166.579C161.665 169.852 156.957 173.12 152.247 176.387C146.388 174.074 140.637 171.461 135.047 168.553ZM102.882 146.708C120.39 134.647 137.871 122.547 155.324 110.406C173.142 98.0115 190.932 85.5754 208.692 73.0979C216.963 67.2877 225.225 61.4662 233.482 55.6383C234.423 61.7819 234.713 68.0733 234.605 74.2903C219.14 85.2061 203.653 96.0915 188.144 106.945C172.103 118.17 156.038 129.361 139.951 140.519C131.992 146.038 124.027 151.548 116.058 157.051C111.474 153.836 107.07 150.387 102.882 146.708ZM100.249 144.339C96.7182 141.082 93.3498 137.584 90.2733 133.853C108.531 121.291 126.76 108.687 144.959 96.0391C163.692 83.0192 182.393 69.9536 201.063 56.8427C210.164 50.4516 219.255 44.0474 228.341 37.6347C230.643 42.7495 232.19 48.1756 233.172 53.7455C215.797 66.018 198.395 78.2518 180.964 90.445C163.178 102.887 145.364 115.287 127.52 127.645C118.884 133.627 110.239 139.597 101.589 145.559C101.14 145.155 100.692 144.749 100.249 144.339ZM80.3852 118.805C96.419 107.78 112.431 96.7246 128.42 85.6352C131.785 83.3013 135.148 80.9641 138.511 78.6274C139.443 81.6305 140.197 84.6859 140.858 87.7601C141.438 90.461 148.248 88.6842 147.835 85.8907C147.194 81.5577 146.859 77.1569 146.869 72.7626C166.12 59.366 185.338 45.9227 204.522 32.4306C208.907 29.3463 213.289 26.2577 217.671 23.1683C221.642 26.5176 224.856 30.7325 227.249 35.3611C209.116 48.1647 190.955 60.9269 172.762 73.6449C154.065 86.7158 135.335 99.7412 116.574 112.721C107.302 119.136 98.0196 125.538 88.7317 131.931C85.5282 127.825 82.6921 123.447 80.3852 118.805ZM75.7541 106.407C75.2494 104.411 74.8466 102.378 74.5504 100.325C89.9724 89.7257 105.374 79.096 120.754 68.436C123.853 66.2878 126.951 64.1366 130.048 61.9861C133.432 66.0745 135.84 70.9065 137.62 75.9317C121.633 87.0439 105.625 98.1245 89.593 109.171C86.1341 111.555 82.6729 113.935 79.2119 116.315C77.7904 113.131 76.6189 109.828 75.7541 106.407ZM213.102 19.9141C213.92 20.3983 214.713 20.917 215.483 21.4662C196.401 34.9225 177.286 48.3333 158.138 61.6951C154.408 64.2979 150.675 66.8962 146.942 69.4955C147.265 61.8835 148.674 54.3474 151.405 47.2716C164.084 38.4311 176.751 29.573 189.402 20.692C192.167 18.7511 194.93 16.8082 197.693 14.8652C203.111 15.4481 208.397 17.129 213.102 19.9141ZM156.7 36.7715C164.615 24.3997 177.615 14.8907 192.694 14.636C193.197 14.6275 193.699 14.6308 194.202 14.641C181.808 23.3557 169.401 32.0517 156.979 40.7266C155.657 41.6502 154.333 42.5725 153.01 43.4956C154.086 41.1904 155.31 38.9435 156.7 36.7715ZM126.183 58.041C127.097 58.8239 127.957 59.6536 128.765 60.5232C113.39 71.2028 97.9947 81.8542 82.5778 92.4738C79.8141 94.3776 77.0483 96.2785 74.2832 98.1802C73.5502 91.3145 74.0368 84.2898 76.0197 77.7199C76.3642 77.4626 76.7024 77.2097 77.0353 76.9807C78.4602 76.0001 79.8848 75.0194 81.3091 74.0382C84.1053 72.1124 86.9008 70.1853 89.6957 68.2575C95.2855 64.4013 100.872 60.5411 106.457 56.6765C108.671 55.144 110.884 53.61 113.098 52.0763C117.897 52.8487 122.461 54.8531 126.183 58.041ZM80.8199 67.1933C86.9476 57.6066 97.8573 51.4798 109.148 51.7207C107.817 52.6428 106.486 53.5649 105.155 54.4864C102.363 56.4193 99.5707 58.351 96.7776 60.2818C91.1916 64.1431 85.6027 68.0004 80.0108 71.8535C79.1734 72.4305 78.3355 73.0067 77.4978 73.5836C78.4143 71.3741 79.5153 69.2345 80.8199 67.1933ZM118.336 158.619C133.831 147.922 149.305 137.195 164.757 126.437C180.824 115.25 196.868 104.029 212.888 92.7745C220.102 87.7066 227.309 82.6301 234.514 77.5488C234.403 80.4167 234.218 83.2608 233.981 86.0572C233.628 90.2095 233.11 94.3459 232.43 98.4539C219.368 107.662 206.292 116.849 193.199 126.012C179.628 135.51 166.041 144.984 152.436 154.433C146.08 158.848 139.719 163.256 133.356 167.661C128.19 164.901 123.169 161.887 118.336 158.619ZM154.557 177.281C174.507 163.442 194.422 149.554 214.3 135.613C217.645 133.267 220.986 130.917 224.328 128.568C220.242 139.375 214.97 149.727 208.588 159.361C207.344 160.232 206.101 161.103 204.857 161.974C202.033 163.951 199.209 165.927 196.384 167.902C190.838 171.778 185.289 175.651 179.738 179.519C177.832 180.847 175.926 182.173 174.019 183.5C167.459 181.782 160.949 179.708 154.557 177.281ZM183.01 185.626C180.75 185.149 178.493 184.629 176.242 184.068C186.094 177.214 195.937 170.346 205.77 163.466C202.704 167.778 199.409 171.933 195.89 175.903C192.72 179.48 189.376 182.921 185.877 186.208C184.92 186.021 183.964 185.828 183.01 185.626Z" fill="#D7768A"/>
</g>
<defs>
<filter id="filter0_d_10_722" x="0.136108" y="0.302307" width="371.601" height="240.466" filterUnits="userSpaceOnUse" color-interpolation-filters="sRGB">
<feFlood flood-opacity="0" result="BackgroundImageFix"/>
<feColorMatrix in="SourceAlpha" type="matrix" values="0 0 0 0 0 0 0 0 0 0 0 0 0 0 0 0 0 0 127 0" result="hardAlpha"/>
<feOffset/>
<feGaussianBlur stdDeviation="5"/>
<feComposite in2="hardAlpha" operator="out"/>
<feColorMatrix type="matrix" values="0 0 0 0 1 0 0 0 0 1 0 0 0 0 1 0 0 0 0.5 0"/>
<feBlend mode="normal" in2="BackgroundImageFix" result="effect1_dropShadow_10_722"/>
<feBlend mode="normal" in="SourceGraphic" in2="effect1_dropShadow_10_722" result="shape"/>
</filter>
</defs>
</svg>
