<svg width="290" height="226" viewBox="0 0 290 226" fill="none" xmlns="http://www.w3.org/2000/svg">
<g filter="url(#filter0_d_47_1488)">
<path d="M192.616 89.2585C202.43 60.1425 186.782 28.5835 157.666 18.7696C128.55 8.95567 96.9913 24.6031 87.1774 53.7192C77.3635 82.8352 93.0109 114.394 122.127 124.208C151.243 134.022 182.802 118.375 192.616 89.2585Z" fill="#9CD0E4"/>
<path d="M189.465 81.7536C195.135 54.3768 177.538 27.5871 150.162 21.9172C122.785 16.2472 95.9951 33.8441 90.3252 61.2209C84.6552 88.5977 102.252 115.387 129.629 121.057C157.006 126.727 183.795 109.13 189.465 81.7536Z" fill="#699FBB"/>
<path d="M146.859 55.2531C146.615 55.7291 145.644 56.1531 145.194 56.4127C144.532 56.7954 143.84 57.1457 143.123 57.4152C141.73 57.938 140.268 58.2488 138.779 58.2802C137.286 58.3117 135.807 58.0925 134.378 57.6586C133.6 57.4224 132.841 57.1134 132.087 56.8143C131.382 56.5349 130.652 56.048 129.871 56.1379C129.215 56.2133 128.796 56.6975 128.931 57.3712C129.12 58.3153 130.065 58.9441 130.805 59.4669C131.595 60.0256 132.463 60.4083 133.367 60.7514C135.228 61.4583 137.251 61.7844 139.241 61.7224C141.189 61.6622 143.128 61.258 144.931 60.5187C145.838 60.1469 146.704 59.7157 147.525 59.1785C148.373 58.6216 149.454 57.9703 149.915 57.0379C150.918 55.0096 147.905 53.2185 146.859 55.2531Z" fill="#2C2E4D"/>
<path d="M117.978 24.2141C118.015 25.1285 118.064 26.034 118.059 26.9053C118.046 29.7969 118.063 32.6884 118.07 35.5799C118.084 41.2804 118.108 46.9808 118.108 52.6813C118.108 64.1648 118.154 75.6483 118.191 87.1309C118.213 93.6012 117.995 100.035 119.161 106.463C119.294 107.198 120.651 107.2 120.785 106.463C121.833 100.682 121.729 94.9324 121.748 89.1134C121.766 83.413 121.785 77.7125 121.803 72.0121C121.841 60.5286 121.842 49.0451 121.87 37.5624C121.877 34.423 121.899 31.2835 121.89 28.144C121.887 26.4921 121.875 24.8393 121.867 23.1874C121.867 23.1362 121.868 23.085 121.868 23.0347C120.553 23.403 119.255 23.7946 117.978 24.2141Z" fill="#9CD0E4"/>
<path d="M158.004 24.2141C158.048 25.1285 158.103 26.034 158.098 26.9053C158.083 29.7969 158.102 32.6884 158.111 35.5799C158.127 41.2804 158.154 46.9808 158.154 52.6813C158.154 64.1648 158.207 75.6483 158.25 87.1309C158.274 93.6012 158.023 100.035 159.373 106.463C159.527 107.198 161.097 107.2 161.253 106.463C162.466 100.682 162.346 94.9324 162.368 89.1134C162.39 83.413 162.411 77.7125 162.433 72.0121C162.477 60.5286 162.478 49.0451 162.51 37.5624C162.519 34.423 162.543 31.2835 162.535 28.144C162.53 26.4921 162.517 24.8393 162.508 23.1874C162.508 23.1362 162.509 23.085 162.509 23.0347C160.986 23.403 159.482 23.7946 158.004 24.2141Z" fill="#9CD0E4"/>
<path d="M119.96 53.8652C124.825 53.8652 128.769 49.9215 128.769 45.0568C128.769 40.192 124.825 36.2483 119.96 36.2483C115.095 36.2483 111.152 40.192 111.152 45.0568C111.152 49.9215 115.095 53.8652 119.96 53.8652Z" fill="#2C2E4D"/>
<path d="M119.96 50.1609C122.779 50.1609 125.064 47.8757 125.064 45.0569C125.064 42.238 122.779 39.9529 119.96 39.9529C117.141 39.9529 114.856 42.238 114.856 45.0569C114.856 47.8757 117.141 50.1609 119.96 50.1609Z" fill="white"/>
<path d="M160.604 53.8652C165.469 53.8652 169.413 49.9215 169.413 45.0568C169.413 40.192 165.469 36.2483 160.604 36.2483C155.739 36.2483 151.796 40.192 151.796 45.0568C151.796 49.9215 155.739 53.8652 160.604 53.8652Z" fill="#2C2E4D"/>
<path d="M165.709 45.0568C165.709 47.8756 163.424 50.1617 160.605 50.1617C157.786 50.1617 155.501 47.8765 155.501 45.0568C155.501 42.2371 157.786 39.9519 160.605 39.9519C163.424 39.9528 165.709 42.238 165.709 45.0568Z" fill="white"/>
<path d="M228.17 55.0285C228.17 55.0285 216.776 39.8998 220.044 34.7796C223.835 28.8411 235.134 43.4452 237.019 49.4727L228.17 55.0285Z" fill="#EFBE48"/>
<path d="M235.341 48.3913C235.341 48.3913 239.418 22.8193 246.05 18.186C252.682 13.5527 250.573 42.9379 245.852 49.78L235.341 48.3913Z" fill="#EFBE48"/>
<path d="M243.333 52.3731C243.333 52.3731 259.121 31.8476 267.16 30.9412C275.199 30.0348 259.322 54.8505 251.907 58.6107L243.333 52.3731Z" fill="#EFBE48"/>
<path d="M245.548 63.3249C245.548 63.3249 265.642 51.1919 272.73 53.0747C279.818 54.9575 258.234 70.6844 250.734 71.4165L245.548 63.3249Z" fill="#EFBE48"/>
<path d="M188.494 103.139C188.494 103.139 198.247 98.0817 210.528 78.9377C222.809 59.7937 229.672 35.9545 246.648 44.2617C263.625 52.5698 260.735 80.021 241.952 99.165C223.169 118.309 199.33 122.282 191.383 121.56C183.438 120.839 179.103 108.918 188.494 103.139Z" fill="#699FBB"/>
<path d="M251.501 56.1986C249.896 53.6996 247.355 52.3145 244.386 52.3225C241.105 52.3315 237.706 53.2909 235.614 55.9453C234.995 56.7322 234.517 57.6215 234.099 58.5431C233.788 59.0856 233.524 59.6345 233.306 60.1438C232.26 62.5781 231.967 65.2415 232.344 67.8573C232.74 70.6096 233.948 73.3107 236.237 74.9842C238.306 76.4978 240.995 76.9244 243.485 76.4951C249.004 75.5429 252.359 70.3338 253.06 65.096C253.46 62.1038 253.167 58.7937 251.501 56.1986ZM244.504 73.8973C242.629 74.5575 240.458 74.6123 238.598 73.8667C236.362 72.9702 235.145 70.8845 234.567 68.6388C233.953 66.2575 234.054 63.7297 234.763 61.3798C235.1 60.2633 235.598 59.2015 236.255 58.2359C236.662 57.6376 237.123 57.087 237.571 56.5256C238.672 55.5321 239.999 54.8907 241.64 54.694C244.158 54.3931 246.809 54.3266 248.703 56.2615C250.5 58.0984 251.001 60.7852 250.96 63.268C250.886 67.5348 248.8 72.3846 244.504 73.8973Z" fill="white"/>
<path d="M230.387 38.8902C229.785 38.203 229.168 37.5616 228.549 36.9607C228.496 37.0496 228.455 37.1457 228.401 37.2338C227.573 38.5884 226.508 39.7965 225.264 40.7855C224.012 41.7799 222.578 42.6306 221.074 43.183C221.365 43.8478 221.675 44.5143 222.011 45.1781C223.777 44.6724 225.442 43.8792 226.891 42.7456C228.265 41.6694 229.431 40.349 230.387 38.8902Z" fill="#EF8B3E"/>
<path d="M241.235 25.6899C241.014 26.2316 240.797 26.7849 240.588 27.3535C241.85 28.1638 243.296 28.7306 244.787 29.0656C246.596 29.4717 248.399 29.4618 250.219 29.2498C250.25 28.2527 250.255 27.2853 250.235 26.3592C248.732 26.6403 247.201 26.7894 245.673 26.7319C244.151 26.6744 242.641 26.3044 241.235 25.6899Z" fill="#EF8B3E"/>
<path d="M263.163 39.4138C261.814 38.0834 260.739 36.5294 259.735 34.9314C259.184 35.3724 258.631 35.8261 258.075 36.312C258.129 36.4225 258.17 36.5384 258.225 36.648C259.186 38.5595 260.484 40.383 261.996 41.8984C262.81 42.714 263.722 43.4416 264.704 44.0561C265.219 43.2225 265.706 42.3951 266.158 41.5822C265.08 40.9795 264.056 40.2941 263.163 39.4138Z" fill="#EF8B3E"/>
<path d="M267.737 59.3644C267.041 57.9137 266.527 56.348 266.104 54.7976C266.014 54.4661 265.93 54.1266 265.851 53.7861C265.289 53.9505 264.712 54.1383 264.128 54.3368C264.136 54.4832 264.136 54.6305 264.146 54.776C264.287 56.7998 264.761 58.7293 265.52 60.6094C265.825 61.3667 266.226 62.2191 266.712 63.0509C267.458 62.4805 268.173 61.9074 268.845 61.3361C268.431 60.7082 268.064 60.0471 267.737 59.3644Z" fill="#EF8B3E"/>
<path d="M226.61 107.809C225.538 104.035 223.712 100.461 221.731 97.0916C218.271 91.2043 214.161 85.5191 209.538 80.4304C209.365 80.6936 209.192 80.9577 209.019 81.2146C212.334 86.6213 215.968 91.8358 218.964 97.4329C220.765 100.799 222.171 104.31 223.189 107.988C223.611 109.511 223.933 111.048 224.169 112.606C225.232 112.022 226.296 111.42 227.363 110.766C227.134 109.737 226.871 108.73 226.61 107.809Z" fill="#9CD0E4"/>
<path d="M224.148 72.143C221.914 70.4992 219.535 69.0117 217.086 67.7029C216.787 68.2463 216.485 68.7925 216.181 69.3395C217.941 70.4157 219.694 71.5017 221.37 72.7045C225.871 75.9356 229.731 79.9463 232.851 84.5221C235.72 88.7279 237.944 93.4124 239.878 98.1094C240.181 98.8442 240.449 99.5916 240.729 100.334C241.135 99.9383 241.551 99.5754 241.954 99.1658C242.465 98.6448 242.918 98.0959 243.406 97.5624C241.08 92.5177 238.325 87.7272 235.04 83.2421C231.948 79.0184 228.372 75.2511 224.148 72.143Z" fill="#9CD0E4"/>
<path d="M60.8303 166.746C60.8303 166.746 73.2471 181.047 70.3421 186.383C66.9727 192.57 54.6879 178.786 52.3875 172.903L60.8303 166.746Z" fill="#EFBE48"/>
<path d="M54.1383 173.866C54.1383 173.866 51.8459 199.659 45.5517 204.743C39.2575 209.825 39.3213 180.364 43.5557 173.21L54.1383 173.866Z" fill="#EFBE48"/>
<path d="M45.8875 170.448C45.8875 170.448 31.5627 192.02 23.6058 193.483C15.6489 194.945 29.7653 169.087 36.9011 164.822L45.8875 170.448Z" fill="#EFBE48"/>
<path d="M42.9178 159.677C42.9178 159.677 23.7137 173.176 16.5131 171.79C9.31167 170.404 29.7519 153.216 37.1824 151.965L42.9178 159.677Z" fill="#EFBE48"/>
<path d="M97.0696 115.998C97.0696 115.998 87.6916 121.72 76.7695 141.67C65.8474 161.619 60.6563 185.878 43.1435 178.769C25.6308 171.66 26.6081 144.074 44.0158 123.673C61.4243 103.271 84.9303 97.6524 92.9079 97.8213C100.885 97.9911 106.037 109.581 97.0696 115.998Z" fill="#699FBB"/>
<path d="M37.4744 167.199C39.2494 169.581 41.8804 170.786 44.8412 170.572C48.1136 170.336 51.4381 169.143 53.3406 166.35C53.9047 165.521 54.3197 164.601 54.6719 163.653C54.944 163.091 55.1695 162.525 55.3527 162.001C56.2268 159.499 56.3337 156.823 55.7767 154.239C55.191 151.521 53.7978 148.911 51.3985 147.4C49.2292 146.033 46.5164 145.794 44.0632 146.395C38.6242 147.728 35.6392 153.158 35.3024 158.431C35.1093 161.444 35.6312 164.726 37.4744 167.199ZM43.2261 149.058C45.0504 148.269 47.2117 148.063 49.1196 148.678C51.4129 149.417 52.7711 151.413 53.505 153.613C54.2829 155.946 54.3575 158.474 53.814 160.868C53.5553 162.006 53.1322 163.1 52.5447 164.108C52.18 164.734 51.7578 165.316 51.3509 165.907C50.3215 166.974 49.0424 167.706 47.4192 168.016C44.9283 168.491 42.2883 168.742 40.2645 166.942C38.3439 165.235 37.6577 162.589 37.5274 160.109C37.3001 155.848 39.0446 150.865 43.2261 149.058Z" fill="white"/>
<path d="M59.7388 183.001C60.3882 183.645 61.0466 184.242 61.7069 184.798C61.7536 184.706 61.7877 184.608 61.8353 184.516C62.5674 183.108 63.5465 181.828 64.7188 180.755C65.8982 179.676 67.2699 178.729 68.7314 178.072C68.3954 177.429 68.0388 176.786 67.6588 176.147C65.9324 176.774 64.3262 177.681 62.9591 178.913C61.6629 180.081 60.5921 181.479 59.7388 183.001Z" fill="#EF8B3E"/>
<path d="M49.8335 196.922C50.0159 196.366 50.1937 195.799 50.3635 195.217C49.0475 194.497 47.5672 194.032 46.0554 193.801C44.2229 193.521 42.4246 193.656 40.6235 193.995C40.6622 194.992 40.7241 195.957 40.8086 196.879C42.288 196.494 43.8043 196.24 45.3332 196.191C46.8557 196.143 48.3882 196.407 49.8335 196.922Z" fill="#EF8B3E"/>
<path d="M27.0058 184.754C28.4431 185.989 29.6234 187.464 30.7373 188.988C31.2565 188.509 31.7766 188.02 32.2976 187.496C32.2365 187.39 32.1871 187.277 32.1242 187.172C31.0328 185.331 29.6108 183.602 27.9984 182.196C27.1298 181.439 26.1686 180.776 25.1464 180.232C24.691 181.099 24.2625 181.959 23.8682 182.801C24.9856 183.325 26.0546 183.938 27.0058 184.754Z" fill="#EF8B3E"/>
<path d="M21.0577 165.168C21.8518 166.568 22.4734 168.093 23.0034 169.611C23.1166 169.935 23.2235 170.269 23.3259 170.603C23.8756 170.4 24.4379 170.173 25.0065 169.934C24.9886 169.788 24.9778 169.641 24.958 169.497C24.6769 167.488 24.0696 165.596 23.1831 163.773C22.8264 163.039 22.3665 162.217 21.824 161.421C21.1197 162.041 20.4469 162.663 19.8154 163.279C20.2718 163.877 20.6841 164.511 21.0577 165.168Z" fill="#EF8B3E"/>
<path d="M58.722 113.985C60.0533 117.675 62.1229 121.114 64.3327 124.337C68.1934 129.97 72.6893 135.356 77.6531 140.112C77.8076 139.838 77.963 139.562 78.1167 139.293C74.4346 134.129 70.4472 129.18 67.0697 123.805C65.0396 120.573 63.3931 117.167 62.1211 113.569C61.5947 112.079 61.1662 110.568 60.8231 109.03C59.8036 109.686 58.784 110.36 57.7654 111.087C58.0654 112.098 58.3969 113.085 58.722 113.985Z" fill="#9CD0E4"/>
<path d="M63.6546 149.395C65.9973 150.88 68.4738 152.198 71.0088 153.334C71.2693 152.771 71.5325 152.205 71.7974 151.639C69.9677 150.687 68.1424 149.726 66.3871 148.642C61.673 145.732 57.5446 141.998 54.114 137.651C50.9602 133.654 48.4163 129.135 46.1607 124.584C45.8077 123.871 45.4888 123.145 45.1574 122.423C44.7801 122.846 44.3902 123.237 44.0175 123.674C43.5432 124.229 43.1291 124.808 42.6799 125.374C45.3496 130.245 48.4316 134.833 52.0193 139.079C55.3959 143.077 59.2252 146.588 63.6546 149.395Z" fill="#9CD0E4"/>
<path d="M85.9058 97.8759C95.0179 64.4637 181.987 66.0896 193.545 94.625C205.103 123.16 172.956 208.044 140.086 210.933C107.216 213.823 79.4041 121.716 85.9058 97.8759Z" fill="#9CD0E4"/>
<path d="M111.835 179.509C110.382 181.061 109.022 182.699 107.721 184.384C108.166 185.166 108.615 185.937 109.068 186.695C109.705 185.875 110.356 185.067 111.032 184.276C116.122 178.314 122.455 173.108 129.903 170.421C137.975 167.508 146.411 168.424 154.519 170.746C161.713 172.805 168.463 176.113 174.112 181.012C174.749 179.937 175.371 178.836 175.988 177.726C170.792 173.525 164.823 170.392 158.421 168.319C150.063 165.614 140.706 164.224 132.114 166.608C124.283 168.78 117.348 173.627 111.835 179.509Z" fill="#699FBB"/>
<path d="M191.452 130.29C188.182 127.112 185.432 123.447 183.184 119.485C177.943 110.243 175.61 99.7668 175.136 89.2148C174.994 86.0457 174.891 82.8667 174.92 79.694C174.921 79.6149 174.934 79.3931 174.947 79.094C174.264 78.82 173.566 78.5568 172.859 78.3008C172.775 79.2053 172.703 80.1126 172.639 81.0163C172.43 83.9285 172.341 86.8245 172.469 89.743C172.714 95.3814 173.452 101.026 174.879 106.491C177.335 115.903 181.97 124.736 188.923 131.607C190.087 132.756 191.322 133.836 192.604 134.852C192.836 133.88 193.058 132.911 193.267 131.949C192.649 131.411 192.04 130.862 191.452 130.29Z" fill="#699FBB"/>
<path d="M105.522 82.7201C105.698 85.7302 105.806 88.7466 105.896 91.7603C106.077 97.7976 105.902 103.874 105.066 109.862C103.65 119.999 100.336 129.952 94.4992 138.422C93.4141 139.998 92.2338 141.505 90.9717 142.941C91.2798 144.04 91.5996 145.143 91.9283 146.249C93.2533 144.864 94.5208 143.427 95.6894 141.906C98.819 137.833 101.338 133.346 103.331 128.617C107.866 117.856 109.363 106.109 109.304 94.4992C109.286 91.0148 109.098 87.5555 108.763 84.0873C108.592 82.3195 108.456 80.5283 108.177 78.774C108.139 78.5342 108.1 78.2872 108.059 78.0383C107.12 78.3788 106.199 78.7363 105.301 79.1118C105.337 80.3163 105.451 81.5191 105.522 82.7201Z" fill="#699FBB"/>
<path d="M151.778 202.44C151.311 197.001 150.906 191.105 147.641 186.503C146.233 184.516 144.325 182.578 142.014 181.678C139.142 180.559 136.98 182.714 135.162 184.69C131.662 188.493 129.183 193.049 127.754 198.012C126.932 200.868 126.545 203.845 126.375 206.812C127.443 207.537 128.521 208.18 129.608 208.728C129.724 206.741 129.944 204.762 130.32 202.808C131.184 198.316 132.584 193.993 135.134 190.158C136.265 188.456 137.842 186.281 139.662 185.256C141.333 184.313 143.572 187.419 144.352 188.675C146.812 192.642 147.232 197.331 147.593 201.876C147.771 204.13 147.95 206.384 148.129 208.638C149.466 208.004 150.796 207.253 152.115 206.389C152.002 205.073 151.891 203.756 151.778 202.44Z" fill="#EFBE48"/>
<path d="M140.809 150.371C157.233 150.371 170.548 137.056 170.548 120.632C170.548 104.207 157.233 90.8928 140.809 90.8928C124.384 90.8928 111.07 104.207 111.07 120.632C111.07 137.056 124.384 150.371 140.809 150.371Z" fill="#699FBB"/>
<path d="M165.268 124.565C167.441 111.055 158.25 98.3405 144.739 96.1674C131.229 93.9943 118.514 103.185 116.341 116.696C114.168 130.207 123.359 142.921 136.87 145.094C150.38 147.267 163.095 138.076 165.268 124.565Z" fill="#2C2E4D"/>
<path d="M141.306 113.785C141.306 113.785 132.499 104.841 126.306 111.17C120.114 117.5 134.975 131.536 141.718 133.738C141.718 133.738 159.606 120.665 155.341 112.271C151.076 103.878 141.306 113.785 141.306 113.785Z" fill="#EFBE48"/>
<path d="M140.848 117.647C140.848 117.647 136.556 113.289 133.539 116.373C130.522 119.458 137.764 126.298 141.05 127.371C141.05 127.371 149.767 121 147.689 116.909C145.61 112.819 140.848 117.647 140.848 117.647Z" fill="white"/>
</g>
<defs>
<filter id="filter0_d_47_1488" x="0" y="0.840332" width="289.139" height="225.16" filterUnits="userSpaceOnUse" color-interpolation-filters="sRGB">
<feFlood flood-opacity="0" result="BackgroundImageFix"/>
<feColorMatrix in="SourceAlpha" type="matrix" values="0 0 0 0 0 0 0 0 0 0 0 0 0 0 0 0 0 0 127 0" result="hardAlpha"/>
<feOffset/>
<feGaussianBlur stdDeviation="7.5"/>
<feComposite in2="hardAlpha" operator="out"/>
<feColorMatrix type="matrix" values="0 0 0 0 0 0 0 0 0 0 0 0 0 0 0 0 0 0 0.25 0"/>
<feBlend mode="normal" in2="BackgroundImageFix" result="effect1_dropShadow_47_1488"/>
<feBlend mode="normal" in="SourceGraphic" in2="effect1_dropShadow_47_1488" result="shape"/>
</filter>
</defs>
</svg>
