<svg width="73" height="71" viewBox="0 0 73 71" fill="none" xmlns="http://www.w3.org/2000/svg">
<path d="M44.796 12.5649L50.046 34.3759L72.085 40.5609L49.546 45.3159L43.269 68.073L38.529 45.1559L16.445 40.1439L39.114 34.2319L44.796 12.5649Z" fill="white"/>
<path d="M15.363 0L18.668 12.075L31.227 14.832L18.764 17.979L15.6 30.124L12.594 18.102L0 15.313L12.513 12.168L15.363 0Z" fill="white"/>
<path d="M60.067 3.09277L62.112 10.8658L69.888 12.8768L62.171 14.6628L60.36 22.3638L58.378 14.5978L50.587 12.6058L58.31 10.8138L60.067 3.09277Z" fill="white"/>
<path d="M18.016 53.2729L19.424 60.007L25.925 61.533L19.369 63.348L17.768 70.197L16.183 63.429L9.722 61.9399L16.231 60.0949L18.016 53.2729Z" fill="white"/>
</svg>
