<svg width="438" height="110" viewBox="0 0 438 110" fill="none" xmlns="http://www.w3.org/2000/svg">
<path d="M435.304 102.071C435.193 102.073 435.081 102.075 434.971 102.077C431.727 100.463 428.655 98.5779 425.822 96.3564C428.634 95.2733 431.406 94.0901 434.122 92.7805C435.891 91.9266 435.823 89.0612 434.122 88.187C429.681 85.9075 425.141 83.837 420.525 81.9425C425.718 79.1573 430.637 75.9133 435.245 72.204C436.561 71.1454 436.109 68.7627 434.708 68.0274C432.378 66.8044 430.049 65.5814 427.719 64.3585C426.598 63.7699 425.476 63.1807 424.354 62.5926C424.172 62.4975 423.964 62.4001 423.745 62.3028C424.227 62.0136 424.709 61.7249 425.19 61.4367C426.672 60.5471 428.153 59.6586 429.634 58.7701C432.043 57.3254 436.352 55.4968 435.207 51.9332C434.695 50.3423 433.115 49.6522 431.754 48.9311C430.236 48.1293 428.72 47.3275 427.203 46.5267C425.615 45.6866 424.025 44.8464 422.436 44.0069C426.937 41.8757 431.436 39.7457 435.937 37.6156C437.764 36.751 437.576 33.9398 435.937 33.022C432.614 31.1621 429.291 29.3011 425.967 27.4411C427.252 26.7105 428.537 25.9794 429.823 25.2488C431.898 24.0684 435.941 22.6524 435.176 19.5753C434.573 17.1512 431.151 16.2446 429.133 15.3466C427.904 14.8 426.675 14.2566 425.475 13.6483C425.163 13.4893 424.809 13.3176 424.451 13.1384C424.735 12.873 425.018 12.6088 425.302 12.3434C426.239 11.4704 427.174 10.5973 428.11 9.72417C429.668 8.27151 431.225 6.81886 432.783 5.3662C435.981 5.1365 435.921 0.0644046 432.569 0.0686583C432.49 0.0691901 432.412 0.0691776 432.332 0.0691776C431.956 -0.0217467 431.562 -0.0249095 431.169 0.0708003C375.788 0.145241 320.408 0.220212 265.029 0.295185C209.467 0.370689 153.904 0.445116 98.3415 0.520089C67.3177 0.562095 36.2935 0.6041 5.26922 0.646106C2.87009 -0.194544 0.859035 2.66026 1.99958 4.49842C2.3218 5.23166 2.96262 5.80328 3.92291 5.92823C5.89347 7.01666 7.76503 8.23749 9.52077 9.62155C6.43892 11.3635 3.5321 13.3829 0.820859 15.688C-0.883838 17.1369 0.342197 19.4371 1.99425 20.1326C5.42917 21.5794 8.73336 23.3894 11.8168 25.4817C12.5049 25.948 13.1866 26.4282 13.848 26.9317C14.0293 27.07 14.3631 27.4225 14.6285 27.6262C14.2605 27.9303 13.7033 28.4551 13.564 28.5513C12.7568 29.107 11.939 29.643 11.1446 30.2162C8.63809 32.0256 2.51544 35.7179 5.95035 39.357C7.21691 40.699 9.39959 41.3637 11.0197 42.1692C11.8827 42.5983 12.7457 43.0269 13.6081 43.4555C13.7091 43.5054 13.8124 43.5618 13.9145 43.6155C13.4827 43.9027 13.0509 44.1898 12.6197 44.4769C11.4887 45.2288 10.3582 45.9796 9.22726 46.7309C6.80474 48.3415 4.38174 49.9515 1.95868 51.5621C0.389576 52.6048 0.0838367 55.1831 1.95868 56.1551C4.46734 57.4552 6.94945 58.8063 9.39589 60.2217C10.5263 60.8752 11.6493 61.542 12.7643 62.222C13.0738 62.4102 13.4284 62.6001 13.7895 62.7952C13.2838 63.1366 12.7781 63.4779 12.2725 63.8188C11.0102 64.6695 9.74833 65.5214 8.48602 66.3727C6.34691 67.8152 2.97378 69.3077 2.45003 72.0998C1.83377 75.3821 5.38299 76.4121 7.66248 77.5239C8.9737 78.163 10.2641 78.8441 11.5307 79.5694C11.9072 79.7858 12.2783 80.0123 12.6505 80.2367C12.291 80.3994 11.9407 80.5547 11.6344 80.7158C10.4636 81.3326 9.29326 81.9483 8.12241 82.5646C6.7846 83.2686 5.44194 83.9646 4.10945 84.6777C3.00081 85.2705 1.91346 85.9245 1.428 87.1501C0.188029 90.2766 3.53157 91.6863 5.71695 92.8337C6.97447 93.4941 8.23196 94.1545 9.49001 94.8144C10.161 95.1664 10.8315 95.5184 11.502 95.8704C11.5536 95.8975 11.6057 95.9246 11.6573 95.9528C11.3414 96.3207 11.0261 96.6887 10.7103 97.055C9.89248 98.0079 9.07521 98.9597 8.25742 99.9125C7.06424 101.303 5.87108 102.694 4.67843 104.084C4.56145 104.083 4.444 104.083 4.32702 104.081C1.10798 104.054 0.914329 108.752 3.75 109.339C4.65392 110.055 6.10402 110.165 7.02496 109.42C62.3292 109.885 117.636 110.073 172.942 109.975C228.86 109.875 284.777 109.488 340.691 108.81C342.694 108.786 344.698 108.754 346.703 108.73C347.94 109.095 349.195 109.043 350.367 108.679C378.681 108.321 406.994 107.897 435.305 107.391C438.723 107.329 438.733 102.01 435.304 102.071Z" fill="white" fill-opacity="0.75"/>
<path d="M323.74 103.674C323.87 103.184 323.959 102.663 323.994 102.105C324.357 96.4787 330.536 96.3691 334.49 97.5559C336.548 98.1733 338.525 98.7927 339.751 100.554C340.435 101.534 340.903 102.51 341.395 103.472C335.511 103.544 329.626 103.609 323.74 103.674ZM253.408 104.301C253.503 104.091 253.56 103.85 253.565 103.575C253.641 99.5919 256.801 96.2101 260.859 96.292C264.61 96.3691 267.855 99.7934 267.223 103.631C267.191 103.827 267.197 104.022 267.213 104.213C267.045 104.214 266.878 104.216 266.711 104.217C262.276 104.251 257.843 104.271 253.408 104.301ZM344.745 14.6995C344.806 14.7176 344.806 14.7649 344.779 14.8255C344.77 14.783 344.754 14.7425 344.745 14.6995ZM98.9558 104.618C69.8446 104.536 40.7339 104.369 11.6243 104.133C12.0699 103.613 12.5161 103.093 12.9616 102.574C13.8422 101.548 14.7226 100.522 15.6031 99.4961C16.5113 98.438 17.5743 97.3927 17.7641 95.9469C18.1736 92.83 14.9034 91.6533 12.6771 90.484C11.503 89.8667 10.3295 89.251 9.15548 88.6353C8.96246 88.5337 8.76901 88.4322 8.57547 88.3306C8.8174 88.203 9.05984 88.0764 9.30178 87.9477C10.6396 87.2432 11.9773 86.5392 13.3151 85.8352C15.483 84.6936 19.1566 83.5296 19.5187 80.6972C19.9026 77.6977 16.3577 76.2031 14.2144 74.9743C12.9483 74.2501 11.6578 73.5684 10.346 72.9287C9.9621 72.7416 9.44321 72.5587 8.91999 72.3555C9.47086 72.02 10.0456 71.7217 10.4599 71.4431C11.8003 70.5381 13.1413 69.6342 14.4823 68.7287C16.7246 67.2165 21.3421 65.2512 20.3791 61.8535C19.9521 60.3493 18.5802 59.5751 17.3418 58.7988C16.0024 57.9582 14.652 57.1372 13.2897 56.3343C11.6998 55.3974 10.0913 54.4935 8.47278 53.6076C9.77975 52.7383 11.0872 51.8699 12.3953 51.0006C13.6873 50.1419 14.98 49.2826 16.272 48.4244C17.3855 47.6848 18.6297 46.9951 19.4996 45.9641C21.6674 43.3949 19.824 40.6799 17.327 39.3767C15.9616 38.6636 14.5653 38.0037 13.1854 37.3178C12.6208 37.0381 12.0571 36.7579 11.4929 36.4772C12.0884 36.03 12.7202 35.6243 13.1669 35.2925C14.4223 34.3583 15.7568 33.5352 17.0095 32.5993C19.4863 30.7479 21.4478 27.8558 19.3779 24.8963C18.5069 23.6505 17.1452 22.779 15.9328 21.8947C14.7109 21.0051 13.4513 20.1682 12.1593 19.3829C10.7358 18.5178 9.27522 17.7282 7.78853 16.9949C10.2403 15.269 12.843 13.7631 15.5511 12.4615C17.1005 11.7171 17.2414 9.4025 16.0891 8.28482C15.2474 7.46757 14.3664 6.69603 13.4614 5.95322C19.3768 5.94578 25.2917 5.93724 31.2066 5.92927C30.5504 7.01079 30.176 8.2577 30.1734 9.5684C30.1697 11.8154 31.3075 14.0109 33.059 15.3966C35.0381 16.962 37.4655 17.5527 39.9571 17.2033C42.3211 16.8731 44.7505 15.7002 46.0522 13.6254C47.5405 11.2513 46.9038 8.38848 46.0361 5.90853C82.1319 5.85961 118.227 5.81071 154.323 5.76233C153.414 6.12177 152.526 6.72421 151.706 7.63026C141.663 18.7363 143.767 35.9173 155.227 45.334C164.847 53.2407 186.529 53.027 190.645 39.1698C193.283 30.2917 179.427 26.4994 176.797 35.3526C176.575 36.0996 170.627 35.9587 169.649 35.9199C166.812 35.8077 164.772 35.0256 162.868 32.8418C159.243 28.6859 157.92 22.1425 161.861 17.785C165.926 13.2899 162.947 7.35056 158.663 5.75593C163.06 5.75009 167.457 5.74373 171.854 5.73841C193.158 5.70916 214.462 5.68044 235.767 5.65173C235.355 5.95162 235.091 6.45195 235.035 6.96347C234.627 7.40373 234.473 8.03119 234.564 8.67829C234.922 11.2508 235.45 13.7961 236.167 16.2931C236.513 17.4979 236.8 18.8416 237.967 19.5211C239.099 20.1794 240.349 19.8737 241.556 19.6642C245.916 18.9054 250.553 19.9109 254.468 17.3224C255.261 16.7971 255.604 15.7725 255.133 14.9122C255.125 14.1773 254.984 13.4521 254.712 12.7428C254.365 11.8463 253.816 10.9269 253.682 9.96027C253.532 8.86865 253.804 7.77966 253.54 6.68537C253.448 6.30626 253.289 5.95906 253.102 5.6294C271.598 5.60441 290.095 5.57942 308.59 5.55443C307.547 7.014 307.215 8.96754 308.156 11.2816C310.259 16.4504 311.226 22.5386 307.116 27.045C305.373 28.957 303.122 29.8041 300.617 30.2545C298.906 30.5629 291.78 31.6055 290.53 29.8285C285.255 22.3233 272.8 29.4914 278.13 37.0764C285.44 47.4795 303.225 47.2626 313.208 40.589C324.083 33.3187 326.748 19.1192 322.004 7.46384C321.706 6.72953 321.324 6.09306 320.885 5.53794C326.77 5.52997 332.654 5.52147 338.541 5.51402C340.957 5.51083 343.375 5.50709 345.793 5.5039C345.147 6.35678 344.814 7.33303 345.271 8.3433C345.667 9.21639 346.504 9.6657 347.176 10.3011C347.286 10.4048 347.419 10.5281 347.558 10.6605C347.481 10.6765 347.406 10.6914 347.33 10.7068C346.647 10.8451 345.963 10.9833 345.28 11.121C344 11.38 342.697 11.6804 341.859 12.7757C340.856 14.0875 341.156 15.6343 341.781 17.0263C341.982 17.4708 342.258 18.0148 342.484 18.5566C341.764 18.5183 341.044 18.4657 340.332 18.4354C339.363 18.3944 338.537 19.2893 338.537 20.2299C338.537 21.2365 339.36 21.984 340.332 22.025C341.67 22.0813 343.08 22.2653 344.414 22.1813C345.323 22.125 346.15 21.5507 346.398 20.651C346.583 19.9763 346.386 19.2457 346.219 18.5885C345.91 17.3783 345.284 16.3335 344.875 15.1716C344.844 15.0871 344.826 14.9983 344.804 14.9122C344.81 14.9079 344.817 14.9042 344.824 14.9005C345.163 14.9185 345.944 14.6415 346.382 14.5527C347.713 14.2837 349.111 14.1024 350.418 13.7339C352.24 13.2197 352.471 11.3635 351.524 9.94057C350.854 8.93296 350.052 8.01417 349.115 7.2453C349.495 6.88426 349.896 6.58277 350.355 6.31372C350.73 6.09624 350.971 5.80963 351.101 5.49592C375.719 5.46295 400.338 5.42946 424.956 5.39596C424.322 5.98776 423.688 6.57904 423.054 7.17085C421.902 8.24439 420.741 9.3105 419.598 10.3941C418.605 11.3353 417.721 12.3881 417.937 13.8572C418.311 16.401 421.64 17.6979 423.689 18.6805C424.905 19.2648 426.145 19.7981 427.377 20.3506C427.43 20.3745 427.491 20.3985 427.548 20.4224C426.751 20.8749 425.954 21.3279 425.157 21.7815C423.176 22.9077 421.194 24.0338 419.213 25.1606C417.495 26.1373 417.476 28.7816 419.213 29.7541C422.411 31.5444 425.609 33.3352 428.807 35.1255C424.261 37.2779 419.715 39.4304 415.168 41.5828C413.372 42.4324 413.493 45.2899 415.168 46.1758C417.864 47.6008 420.559 49.0258 423.256 50.4508C424.604 51.1633 425.952 51.8758 427.3 52.5883C427.697 52.7983 428.206 53.011 428.72 53.2429C428.141 53.5454 427.556 53.8134 427.198 54.0282C425.88 54.8184 424.563 55.6085 423.246 56.3981C421.849 57.2361 420.417 58.0326 419.049 58.9158C417.805 59.7197 416.704 60.7274 416.668 62.3252C416.6 65.498 420.949 66.8076 423.222 68.0002C424.967 68.9164 426.71 69.8315 428.454 70.7466C423.526 74.3335 418.201 77.3692 412.674 79.9289C410.394 80.9833 411.388 84.0741 413.308 84.7898C417.798 86.4616 422.206 88.3258 426.533 90.3702C424.369 91.2673 422.177 92.0946 419.952 92.8449C418.122 93.4606 417.257 95.8406 418.778 97.2896C420.675 99.0969 422.71 100.741 424.845 102.244C401.765 102.641 378.685 102.997 355.605 103.296C356.211 101.156 355.817 98.739 353.802 96.6679C352.246 95.0664 351.869 92.3988 350.353 90.6186C348.846 88.8479 347.016 87.4421 344.953 86.3585C340.244 83.8854 334.538 82.195 329.19 82.3859C318.536 82.7666 310.303 91.691 309.632 102.105C309.593 102.724 309.626 103.297 309.711 103.834C296.717 103.967 283.723 104.08 270.729 104.181C271.468 98.2955 267.129 93.0012 261.123 92.7114C254.997 92.4147 250.087 97.5937 249.974 103.574C249.97 103.858 250.02 104.106 250.112 104.32C199.727 104.65 149.342 104.757 98.9558 104.618ZM15.3336 44.361C15.3687 44.4312 15.3825 44.4158 15.3336 44.361V44.361ZM15.2634 42.7116C15.5266 42.4558 15.5708 42.4261 15.3948 42.6228C15.3517 42.6531 15.307 42.6813 15.2634 42.7116ZM42.4509 6.50195C42.7656 7.36865 43.0681 8.246 43.2536 9.15046C43.3839 9.78374 43.4243 10.5361 43.2541 11.1449C43.1696 11.4464 43.0889 11.6341 42.8486 11.9712C42.7279 12.1403 42.815 12.0116 42.8406 11.9813C42.7794 12.0531 42.7141 12.1217 42.6482 12.1892C42.5902 12.2488 42.2295 12.5816 42.3672 12.4711C41.7047 13.0038 41.0349 13.2798 40.2793 13.4904C39.4812 13.7131 38.8341 13.7764 37.9249 13.7036C37.2884 13.6525 36.5327 13.3968 35.9856 13.0815C35.599 12.8587 35.5273 12.8097 35.3183 12.6279C35.0248 12.3737 34.7403 12.093 34.5048 11.7841C34.6505 11.9755 34.3601 11.5442 34.3229 11.4831C34.2298 11.3289 34.1469 11.171 34.0661 11.0104C34.0544 10.9875 34.0523 10.9833 34.0459 10.97C34.0214 10.9057 33.9975 10.8403 33.9751 10.7749C33.9081 10.5749 33.8597 10.3723 33.8087 10.1676C33.8076 10.1639 33.7971 10.1017 33.7881 10.0522C33.7833 9.98791 33.7715 9.85922 33.7704 9.83955C33.7603 9.62845 33.7689 9.41897 33.7774 9.20735C33.7774 9.20363 33.7843 9.14405 33.7896 9.0946C33.8029 9.03239 33.8279 8.90002 33.8322 8.88035C33.8785 8.67351 33.9407 8.47302 34.0045 8.27203C34.0114 8.2513 34.0448 8.1726 34.0624 8.12953C34.1028 8.04552 34.1443 7.96045 34.1894 7.87857C34.233 7.79987 34.2788 7.72277 34.3267 7.6462C34.3373 7.62865 34.4181 7.50637 34.4479 7.45745C34.4798 7.41704 34.5228 7.36227 34.5233 7.36067C34.6031 7.27294 34.684 7.18415 34.7691 7.1012C34.8329 7.03846 34.8987 6.97783 34.9663 6.91881C34.9827 6.90499 34.9871 6.9002 34.9966 6.89116C35.0243 6.87255 35.0556 6.85181 35.1035 6.81938C35.439 6.59127 35.6895 6.27491 35.8378 5.92291C38.019 5.91972 40.1999 5.91706 42.3805 5.91441C42.3651 6.11061 42.3807 6.30893 42.4509 6.50195ZM239.929 16.2782C239.862 16.0734 239.777 15.84 239.766 15.8071C239.612 15.2881 239.466 14.7675 239.328 14.2443C238.846 12.4195 238.484 10.568 238.191 8.70328C240.075 8.3566 241.962 8.02056 243.853 7.7212C245.004 7.53935 246.155 7.36811 247.306 7.20168C247.977 7.10544 248.814 6.9906 249.403 7.09322C249.912 7.18202 250.047 7.2942 250.099 7.89557C250.184 8.87181 250.03 9.81722 250.202 10.7961C250.366 11.7277 250.786 12.5737 251.145 13.4409C251.332 13.8907 251.531 14.3688 251.567 14.8122C248.691 16.1075 245.258 15.6438 242.181 15.9841C242.069 15.9969 240.534 16.1543 239.929 16.2782ZM435.304 102.071C435.193 102.073 435.081 102.075 434.971 102.077C431.727 100.463 428.655 98.5779 425.822 96.3564C428.634 95.2733 431.406 94.0901 434.122 92.7805C435.891 91.9266 435.823 89.0612 434.122 88.187C429.681 85.9075 425.141 83.837 420.525 81.9425C425.718 79.1573 430.637 75.9133 435.245 72.204C436.561 71.1454 436.109 68.7627 434.708 68.0274C432.378 66.8044 430.049 65.5814 427.719 64.3585C426.598 63.7699 425.476 63.1807 424.354 62.5926C424.172 62.4975 423.964 62.4001 423.745 62.3028C424.227 62.0136 424.709 61.7249 425.19 61.4367C426.672 60.5471 428.153 59.6586 429.634 58.7701C432.043 57.3254 436.352 55.4968 435.207 51.9332C434.695 50.3423 433.115 49.6522 431.754 48.9311C430.236 48.1293 428.72 47.3275 427.203 46.5267C425.615 45.6866 424.025 44.8464 422.436 44.0069C426.937 41.8757 431.436 39.7457 435.937 37.6156C437.764 36.751 437.576 33.9398 435.937 33.022C432.614 31.1621 429.291 29.3011 425.967 27.4411C427.252 26.7105 428.537 25.9794 429.823 25.2488C431.898 24.0684 435.941 22.6524 435.176 19.5753C434.573 17.1512 431.151 16.2446 429.133 15.3466C427.904 14.8 426.675 14.2566 425.475 13.6483C425.163 13.4893 424.809 13.3176 424.451 13.1384C424.735 12.873 425.018 12.6088 425.302 12.3434C426.239 11.4704 427.174 10.5973 428.11 9.72417C429.668 8.27151 431.225 6.81886 432.783 5.3662C435.981 5.1365 435.921 0.0644046 432.569 0.0686583C432.49 0.0691901 432.412 0.0691776 432.332 0.0691776C431.956 -0.0217467 431.562 -0.0249095 431.169 0.0708003C375.788 0.145241 320.408 0.220212 265.029 0.295185C209.467 0.370689 153.904 0.445116 98.3415 0.520089C67.3177 0.562095 36.2935 0.6041 5.26922 0.646106C2.87009 -0.194544 0.859035 2.66026 1.99958 4.49842C2.3218 5.23166 2.96262 5.80328 3.92291 5.92823C5.89347 7.01666 7.76503 8.23749 9.52077 9.62155C6.43892 11.3635 3.5321 13.3829 0.820859 15.688C-0.883838 17.1369 0.342197 19.4371 1.99425 20.1326C5.42917 21.5794 8.73336 23.3894 11.8168 25.4817C12.5049 25.948 13.1866 26.4282 13.848 26.9317C14.0293 27.07 14.3631 27.4225 14.6285 27.6262C14.2605 27.9303 13.7033 28.4551 13.564 28.5513C12.7568 29.107 11.939 29.643 11.1446 30.2162C8.63809 32.0256 2.51544 35.7179 5.95035 39.357C7.21691 40.699 9.39959 41.3637 11.0197 42.1692C11.8827 42.5983 12.7457 43.0269 13.6081 43.4555C13.7091 43.5054 13.8124 43.5618 13.9145 43.6155C13.4827 43.9027 13.0509 44.1898 12.6197 44.4769C11.4887 45.2288 10.3582 45.9796 9.22726 46.7309C6.80474 48.3415 4.38174 49.9515 1.95868 51.5621C0.389576 52.6048 0.0838367 55.1831 1.95868 56.1551C4.46734 57.4552 6.94945 58.8063 9.39589 60.2217C10.5263 60.8752 11.6493 61.542 12.7643 62.222C13.0738 62.4102 13.4284 62.6001 13.7895 62.7952C13.2838 63.1366 12.7781 63.4779 12.2725 63.8188C11.0102 64.6695 9.74833 65.5214 8.48602 66.3727C6.34691 67.8152 2.97378 69.3077 2.45003 72.0998C1.83377 75.3821 5.38299 76.4121 7.66248 77.5239C8.9737 78.163 10.2641 78.8441 11.5307 79.5694C11.9072 79.7858 12.2783 80.0123 12.6505 80.2367C12.291 80.3994 11.9407 80.5547 11.6344 80.7158C10.4636 81.3326 9.29326 81.9483 8.12241 82.5646C6.7846 83.2686 5.44194 83.9646 4.10945 84.6777C3.00081 85.2705 1.91346 85.9245 1.428 87.1501C0.188029 90.2766 3.53157 91.6863 5.71695 92.8337C6.97447 93.4941 8.23196 94.1545 9.49001 94.8144C10.161 95.1664 10.8315 95.5184 11.502 95.8704C11.5536 95.8975 11.6057 95.9246 11.6573 95.9528C11.3414 96.3207 11.0261 96.6887 10.7103 97.055C9.89248 98.0079 9.07521 98.9597 8.25742 99.9125C7.06424 101.303 5.87108 102.694 4.67843 104.084C4.56145 104.083 4.444 104.083 4.32702 104.081C1.10798 104.054 0.914329 108.752 3.75 109.339C4.65392 110.055 6.10402 110.165 7.02496 109.42C62.3292 109.885 117.636 110.073 172.942 109.975C228.86 109.875 284.777 109.488 340.691 108.81C342.694 108.786 344.698 108.754 346.703 108.73C347.94 109.095 349.195 109.043 350.367 108.679C378.681 108.321 406.994 107.897 435.305 107.391C438.723 107.329 438.733 102.01 435.304 102.071Z" fill="#EAB6FF" fill-opacity="0.75"/>
<path d="M62.496 22.4503C64.4246 26.8035 63.668 32.3472 60.8222 36.1299C57.4154 40.6564 50.761 37.9505 46.5179 35.8449C38.2656 31.748 30.9815 44.1307 39.2695 48.2446C49.7162 53.431 62.828 55.8987 71.2276 46.0002C78.6765 37.2215 79.4426 25.4625 74.8969 15.2019C71.1611 6.76879 58.7825 14.0672 62.496 22.4503Z" fill="#EAB6FF" fill-opacity="0.75"/>
<path d="M89.5273 66.9836C82.583 79.1441 87.5735 94.4762 99.7925 100.858C107.976 105.131 115.246 92.7423 107.041 88.4571C102.304 85.9841 99.3705 81.322 101.203 75.8857C102.678 71.5112 111.201 68.5208 114.584 72.3992C120.67 79.377 130.792 69.1844 124.739 62.2444C115.856 52.0598 95.8898 55.8414 89.5273 66.9836Z" fill="#EAB6FF" fill-opacity="0.75"/>
<path d="M256.498 58.7866C247.181 50.8943 233.594 48.9386 223.303 56.3561C213.025 63.7651 212.452 78.8936 217.779 89.485C221.933 97.7431 234.325 90.4798 230.18 82.2371C228.108 78.1168 227.781 70.5206 232.059 67.7137C236.379 64.8786 242.497 65.6825 246.344 68.942C253.356 74.8813 263.563 64.7711 256.498 58.7866Z" fill="#EAB6FF" fill-opacity="0.75"/>
<path d="M393.355 66.4934C402.262 64.0688 398.482 50.2111 389.538 52.6453C383.28 54.3484 375.611 55.2688 370.441 50.4211C365.847 46.1142 367.148 39.7213 372.052 36.213C379.503 30.8814 372.34 18.42 364.803 23.8127C354.301 31.327 349.219 45.023 356.908 56.5258C365.01 68.6442 380.373 70.0272 393.355 66.4934Z" fill="#EAB6FF" fill-opacity="0.75"/>
<path d="M176.703 83.0149C174.731 84.3671 172.59 85.5002 170.508 86.6854C169.641 82.0323 168.773 77.3781 167.906 72.7245C170.799 75.1651 173.765 77.519 176.812 79.7671C177.346 80.1622 177.884 80.5541 178.422 80.9423C178.451 80.963 178.542 81.039 178.646 81.1262C178.157 81.8951 177.448 82.5039 176.703 83.0149ZM181.436 78.7213C179.008 76.7502 176.376 75.0189 173.928 73.0643C171.384 71.0326 168.902 68.9232 166.478 66.7501C165.096 65.5112 163.149 66.7357 163.476 68.4963C164.795 75.5681 166.113 82.6406 167.431 89.713C167.61 90.6669 168.762 91.2082 169.64 90.9662C170.028 90.8594 170.303 90.6281 170.517 90.3521C170.885 90.4239 171.292 90.376 171.71 90.1325C174.237 88.6655 176.946 87.3362 179.275 85.5608C181.19 84.0996 184.08 80.8684 181.436 78.7213Z" fill="#EAB6FF" fill-opacity="0.75"/>
<path d="M280.33 76.3344C281.282 76.4561 282.254 76.5848 283.232 76.7321C282.954 77.6275 282.693 78.5288 282.456 79.4369C282.222 80.3451 282.755 81.4277 283.71 81.6452C284.647 81.859 285.666 81.3639 285.918 80.3914C286.18 79.3806 286.477 78.381 286.791 77.3851C288.441 77.7477 290.076 78.2076 291.641 78.8425C292.514 79.1966 293.65 78.4575 293.849 77.5887C294.085 76.5471 293.53 75.7596 292.595 75.3805C291.098 74.7722 289.555 74.3234 287.989 73.9677C288.07 73.7571 288.143 73.5428 288.227 73.3323C288.295 73.1648 288.362 72.9973 288.432 72.8287C288.474 72.7261 288.517 72.624 288.559 72.5209C288.571 72.4927 288.576 72.4804 288.601 72.4214C288.768 72.0338 288.94 71.6467 289.114 71.2618C289.5 70.4083 289.388 69.2896 288.47 68.8057C287.685 68.3899 286.428 68.5361 286.014 69.4496C285.439 70.7173 284.918 72.0062 284.425 73.3057C283.063 73.0951 281.694 72.918 280.329 72.7431C279.394 72.6235 278.495 73.6545 278.535 74.5382C278.583 75.6134 279.328 76.2052 280.33 76.3344Z" fill="#EAB6FF" fill-opacity="0.75"/>
<path d="M296.687 68.2603C296.686 68.2603 296.685 68.2603 296.684 68.2603C296.706 68.2635 296.726 68.2661 296.748 68.2698C296.865 68.2911 296.983 68.3119 297.101 68.3347C297.366 68.3884 297.626 68.4517 297.885 68.5245C298.348 68.6527 298.801 68.8095 299.248 68.9829C299.36 69.0265 299.472 69.0717 299.583 69.1174C299.617 69.1312 299.624 69.1339 299.628 69.1355C299.643 69.1435 299.673 69.1567 299.739 69.186C299.767 69.1987 299.794 69.2115 299.821 69.2243C299.17 70.7636 298.509 72.3003 297.663 73.7476C297.19 74.5585 297.451 75.7506 298.308 76.2036C299.168 76.6577 300.258 76.4254 300.764 75.5587C301.658 74.0284 302.345 72.3986 303.034 70.771C304.539 71.4878 306.086 72.1376 307.734 72.413C308.655 72.5667 309.71 72.1711 309.941 71.1587C310.139 70.2914 309.678 69.1163 308.688 68.9515C307.686 68.784 306.721 68.4793 305.782 68.0954C305.725 68.0704 305.632 68.0322 305.593 68.0141C305.482 67.9652 305.371 67.9146 305.26 67.8647C305.039 67.7631 304.818 67.6594 304.599 67.5531C304.57 67.5392 304.542 67.5238 304.512 67.5105C304.574 67.3893 304.63 67.2643 304.693 67.1436C304.922 66.7092 305.165 66.2823 305.425 65.8659C305.571 65.6314 305.724 65.4017 305.881 65.1757C305.952 65.0747 306.024 64.9758 306.096 64.8764C306.117 64.8498 306.126 64.837 306.133 64.8253C306.156 64.7988 306.177 64.7722 306.212 64.7286C306.798 63.9964 306.979 62.8941 306.212 62.1896C305.559 61.5909 304.301 61.4069 303.673 62.1896C302.721 63.3769 301.959 64.6526 301.286 65.9877C299.814 65.3592 298.315 64.8615 296.687 64.6717C295.751 64.5611 294.853 65.5756 294.892 66.4668C294.94 67.5324 295.684 68.1428 296.687 68.2603Z" fill="#EAB6FF" fill-opacity="0.75"/>
<path d="M296.684 68.2603C296.53 68.2433 296.595 68.2481 296.684 68.2603V68.2603Z" fill="#EAB6FF" fill-opacity="0.75"/>
<path d="M394.29 91.7965C393.285 91.2158 392.279 90.6341 391.272 90.0535C389.732 89.1655 388.193 88.2765 386.654 87.3891C388.272 86.4559 389.871 85.4902 391.425 84.4497C392.521 83.7159 393.6 82.9566 394.66 82.1707C395.14 81.8166 395.612 81.4534 396.083 81.0892C396.1 81.5353 396.117 81.982 396.128 82.4275C396.161 83.7409 396.171 85.0548 396.155 86.3676C396.129 88.4706 396.022 90.5698 395.873 92.6685C395.843 92.6536 395.818 92.6424 395.752 92.6127C395.248 92.3846 394.77 92.073 394.29 91.7965ZM397.537 76.4037C396.035 76.1522 394.876 77.5325 393.787 78.3657C392.622 79.2558 391.432 80.1135 390.221 80.9398C387.798 82.5929 385.287 84.1126 382.706 85.5057C381.405 86.2081 381.681 87.7267 382.579 88.444C382.674 88.9433 382.962 89.4037 383.421 89.6691C385.65 90.9553 387.878 92.241 390.107 93.5277C392.369 94.8326 394.759 96.7548 397.507 96.3145C397.818 96.2645 398.078 96.0992 398.287 95.8774C398.909 95.5956 399.297 94.956 399.358 94.2355C399.625 91.0951 399.761 87.9431 399.752 84.7911C399.748 83.2156 399.708 81.6395 399.633 80.0661C399.561 78.5343 399.393 76.7147 397.537 76.4037Z" fill="#EAB6FF" fill-opacity="0.75"/>
<path d="M397.012 14.55C397.33 14.5782 397.673 14.5208 398.022 14.3336C399.989 13.2792 402.418 13.4483 404.169 14.8127C404.917 15.3971 405.593 16.2255 405.914 17.1411C406.265 18.1439 405.716 19.0335 405.113 19.839C403.912 21.4411 402.001 22.5875 400.006 22.8305C397.877 23.0894 395.508 22.31 394.63 20.2554C393.739 18.1721 395.412 15.9819 397.012 14.55ZM399.082 26.4611C402.343 26.485 405.609 24.9095 407.655 22.378C408.752 21.0216 409.747 19.361 409.63 17.5505C409.514 15.7304 408.483 13.9938 407.208 12.7305C404.282 9.8294 399.81 9.30352 396.21 11.2337C396.132 11.2751 396.07 11.3257 396.002 11.3735C395.513 11.3544 395.015 11.5309 394.617 11.8771C392.108 14.0582 390.108 17.3761 391.039 20.8031C392.007 24.3581 395.543 26.4361 399.082 26.4611Z" fill="#EAB6FF" fill-opacity="0.75"/>
<path d="M100.142 22.6807C100.747 21.789 102.658 22.8365 103.287 23.146C104.985 23.9839 106.677 24.6284 108.604 24.5433C110.318 24.4678 112.057 23.9552 113.473 22.9705C114.063 22.5595 114.588 21.8948 115.238 21.5848C115.922 21.2578 116.845 21.4386 117.566 21.5104C118.532 21.6077 119.361 20.616 119.361 19.7153C119.361 18.6635 118.534 18.018 117.566 17.9202C115.398 17.7027 113.735 18.0733 112.076 19.5228C110.836 20.6054 109.177 21.1435 107.532 20.9239C105.611 20.6671 104.077 19.25 102.169 18.9198C100.166 18.5737 98.2114 19.1437 97.0411 20.8697C95.7405 22.7865 98.8495 24.5848 100.142 22.6807Z" fill="#EAB6FF" fill-opacity="0.75"/>
<path d="M113.98 27.0396C113.386 27.5389 112.85 28.1244 112.196 28.5487C111.469 29.0203 110.837 29.0315 109.99 28.9262C106.241 28.4625 101.978 25.5567 98.5916 28.5083C96.8459 30.0295 99.3944 32.56 101.13 31.0467C102.167 30.1428 104.151 31.1732 105.211 31.512C106.937 32.0634 108.791 32.4903 110.606 32.5743C112.345 32.6551 113.766 31.9203 115.072 30.8473C115.98 30.1018 117.248 28.4349 118.581 28.8257C120.804 29.4787 121.752 26.0145 119.536 25.3637C117.457 24.7533 115.548 25.7231 113.98 27.0396Z" fill="#EAB6FF" fill-opacity="0.75"/>
<path d="M55.0726 86.0985C54.2192 86.8722 53.3653 87.6463 52.5114 88.42C52.085 88.8081 51.6584 89.1952 51.2309 89.5812C51.2384 89.5743 50.8992 89.837 50.6195 90.0455C50.5057 89.8657 50.3356 89.6541 50.2942 89.585C50.0108 89.1192 49.7241 88.655 49.4343 88.1924C48.8536 87.2683 48.2604 86.3521 47.6543 85.4455C46.5541 83.8004 45.4012 82.1914 44.2176 80.6042C45.4501 79.4589 46.7269 78.362 48.0865 77.3698C48.8868 76.7865 49.7055 76.2287 50.5408 75.6986C51.0284 75.3881 52.0865 74.5283 52.5922 74.5713C53.2042 74.6208 53.8475 75.5481 54.2325 75.949C54.9402 76.687 55.6311 77.4405 56.3064 78.2088C57.4129 79.4679 58.4582 80.776 59.469 82.1122C58.0041 83.4409 56.5381 84.7692 55.0726 86.0985ZM63.292 81.246C61.8202 79.227 60.2654 77.2682 58.6059 75.4003C57.1809 73.7961 55.5102 71.4458 53.2573 71.0651C50.9284 70.6711 48.6255 72.6018 46.8421 73.8625C44.8142 75.2961 42.8927 76.8747 41.0981 78.5911C40.6935 78.9766 40.5398 79.4174 40.5552 79.8412C40.233 80.3963 40.1467 81.1146 40.5402 81.6336C42.1513 83.7589 43.6944 85.9353 45.1556 88.1674C45.8867 89.2825 46.5945 90.4129 47.2884 91.5513C47.9722 92.6748 48.7756 93.7425 50.2038 93.8318C51.5002 93.9121 52.5503 93.1932 53.485 92.3781C54.5453 91.4524 55.5727 90.4857 56.6154 89.5392C58.7024 87.6474 60.7893 85.7556 62.8763 83.8637C63.2725 83.5037 63.4334 83.0932 63.4382 82.6923C63.6083 82.2079 63.5988 81.6666 63.292 81.246Z" fill="#EAB6FF" fill-opacity="0.75"/>
<path d="M143.056 89.2904C141.899 89.0602 140.753 88.7826 139.612 88.4848C139.842 87.9627 140.067 87.44 140.305 86.9216C140.696 86.0698 140.576 84.9484 139.662 84.4656C138.872 84.0482 137.623 84.1987 137.206 85.1095C136.846 85.8944 136.496 86.6823 136.157 87.4757C135.112 87.1364 134.071 86.7786 133.044 86.3819C132.166 86.0443 131.037 86.7546 130.836 87.6368C130.602 88.663 131.149 89.4819 132.09 89.8434C132.987 90.1912 133.895 90.5107 134.809 90.8138C134.288 92.1675 133.79 93.5314 133.333 94.9086C133.038 95.8019 133.676 96.9089 134.588 97.1173C135.577 97.3433 136.48 96.8185 136.797 95.8641C137.245 94.5082 137.739 93.1694 138.25 91.8363C139.524 92.1788 140.806 92.4925 142.101 92.7514C143.02 92.9354 144.084 92.4898 144.31 91.4981C144.512 90.6069 144.04 89.4877 143.056 89.2904Z" fill="#EAB6FF" fill-opacity="0.75"/>
<path d="M216.572 41.276C216.689 40.111 216.804 38.9461 216.92 37.7805C216.971 37.2626 217.023 36.7447 217.074 36.2274C217.092 36.0546 217.108 35.8817 217.126 35.7095C217.133 35.7095 217.145 35.7084 217.15 35.7095C217.579 35.7323 218.007 35.7562 218.435 35.7791C219.23 35.8227 220.025 35.8658 220.819 35.9089C223.129 36.0349 223.122 32.4442 220.819 32.3187C219.597 32.2517 218.374 32.1858 217.151 32.1188C215.82 32.0464 214.498 32.1507 213.885 33.539C213.419 34.5945 213.501 36.0604 213.388 37.1978C213.33 37.7795 213.272 38.3606 213.215 38.9418C212.447 38.7158 211.679 38.4883 210.911 38.2623C209.589 37.8715 208.046 37.2169 206.888 38.3511C205.885 39.3332 206.184 40.747 206.197 42.0045C206.204 42.7425 206.182 43.4822 206.13 44.2191C206.112 44.46 206.103 44.8923 206.068 45.2485C205.783 45.2874 205.467 45.3108 205.262 45.3421C204.622 45.44 203.982 45.5378 203.342 45.6362C202.257 45.8026 200.911 45.7877 200.074 46.6002C198.342 48.282 200.323 51.3229 201.309 52.9287C202.516 54.895 205.622 53.093 204.409 51.1166C204.092 50.6014 203.795 50.0766 203.529 49.5326C203.471 49.4151 203.418 49.2949 203.363 49.1753C204.192 49.045 205.053 48.9828 205.833 48.8642C207.042 48.6787 208.412 48.6537 209.118 47.4786C209.723 46.4731 209.678 44.9923 209.745 43.8512C209.78 43.2365 209.795 42.6203 209.788 42.0051C209.787 41.8939 209.781 41.7823 209.778 41.6717C210.261 41.8136 210.743 41.9566 211.225 42.0986C212.25 42.4012 213.277 42.7043 214.302 43.0063C215.512 43.3641 216.461 42.398 216.572 41.276Z" fill="#EAB6FF" fill-opacity="0.75"/>
</svg>
