<svg width="534" height="136" viewBox="0 0 534 136" fill="none" xmlns="http://www.w3.org/2000/svg">
<path d="M526.176 18.1113C459.594 12.082 392.863 7.54343 326.07 4.52341C322.628 4.36764 319.183 4.23396 315.741 4.08639C315.598 3.99874 315.479 3.89092 315.328 3.81146C312.426 2.30618 308.929 2.2841 306.267 3.68344C246.064 1.23287 185.824 -0.00377504 125.614 8.65623e-06C87.9683 0.00253112 50.3356 0.489966 12.7319 1.44976C11.6517 1.47814 10.5689 1.64402 9.55238 1.93978C9.37013 1.92338 9.18972 1.90446 9.00305 1.89879C4.65558 1.79789 0.407733 4.43133 0.332689 8.31719C-0.217839 37.0531 -0.0873187 65.8086 0.740681 94.5629C0.97464 102.681 1.26472 110.796 1.60778 118.912C1.68156 120.646 2.39926 122.393 3.64158 123.758C3.675 124.043 3.72486 124.322 3.81063 124.592C5.0769 128.59 9.0403 130.367 13.6589 130.048C47.2891 127.73 81.266 126.685 115.538 126.307C150.143 125.927 184.775 126.19 219.399 126.603C236.632 126.81 253.873 127.139 271.096 128.061C288.391 128.989 305.638 130.577 322.896 131.986C357.595 134.816 392.301 135.842 427.077 135.552C444.371 135.409 461.654 135.004 478.929 134.504C487.651 134.248 496.371 133.971 505.09 133.688C512.254 133.456 520.493 133.333 525.782 128.666C528.175 126.553 529.624 123.923 529.664 121.083C529.703 120.842 529.724 120.597 529.727 120.347C530.032 96.5468 530.334 72.7486 530.639 48.9491C530.717 42.8094 530.795 36.6691 530.872 30.5307C532.713 29.3294 533.983 27.5106 534 25.5374C534.029 21.6661 530.79 18.5288 526.176 18.1113Z" fill="white" fill-opacity="0.75"/>
<path d="M513.496 98.7899C513.416 105.084 513.335 111.377 513.255 117.672C513.08 118.144 512.976 118.637 512.939 119.142C512.58 119.224 511.904 119.397 511.717 119.43C511.101 119.545 510.399 119.552 509.802 119.703C509.772 119.711 509.765 119.712 509.74 119.72C509.477 119.728 509.214 119.736 508.952 119.746C507.779 119.782 506.606 119.822 505.432 119.859C496.88 120.136 488.328 120.407 479.774 120.658C477.446 120.724 475.116 120.786 472.788 120.849C478.292 109.74 484.047 98.7199 490.095 87.8178C491.823 84.7025 493.571 81.5974 495.344 78.501C496.196 77.0141 497.05 75.5283 497.912 74.0445C497.952 73.9745 497.988 73.9152 498.043 73.8225C498.275 73.4252 498.508 73.0254 498.74 72.6275C499.207 71.8329 499.675 71.0383 500.145 70.2431C503.84 63.9906 507.624 57.7752 511.497 51.6008C512.371 50.2084 513.269 48.8299 514.151 47.4413C513.934 64.5581 513.715 81.6737 513.496 98.7899ZM513.204 121.382C513.184 121.585 513.211 121.54 513.204 121.382V121.382ZM497.879 74.1012C497.463 74.8126 497.718 74.3768 497.879 74.1012V74.1012ZM454.586 121.301C446.577 121.472 438.566 121.602 430.553 121.679C444.408 96.2561 457.904 73.043 473.354 48.1236C477.411 41.5797 481.529 35.0617 485.688 28.5638C492.567 29.1263 499.445 29.7014 506.32 30.2948C491.564 52.845 477.959 75.9483 465.589 99.5207C461.802 106.738 458.139 113.998 454.586 121.301ZM425.134 98.4827C420.889 106.026 416.714 113.594 412.601 121.189C412.504 121.367 412.428 121.55 412.359 121.738C394.848 121.686 377.344 121.288 359.85 120.463C368.972 109.719 375.999 97.7973 382.789 85.8837C384.719 82.496 386.63 79.102 388.567 75.7188C389.039 74.8971 389.513 74.0747 389.986 73.2543C390.026 73.1875 390.054 73.1377 390.087 73.0847C390.109 73.0462 390.133 73.0033 390.168 72.9459C390.437 72.4931 390.701 72.0385 390.969 71.5838C391.986 69.8616 393.018 68.1469 394.07 66.4405C398.473 59.3107 403.253 52.3519 408.393 45.5904C414.022 38.1864 420.1 31.0371 426.555 24.1356C440.316 25.074 454.075 26.0584 467.827 27.1247C452.943 50.6234 438.691 74.4083 425.134 98.4827ZM340.644 118.584C340.409 118.826 340.217 119.088 340.045 119.358C335.784 119.074 331.523 118.762 327.263 118.423C324.343 118.189 321.424 117.945 318.507 117.703C335.38 92.1022 352.351 66.5307 370.863 41.7544C375.944 34.9538 381.16 28.227 386.495 21.5683C393.269 21.9669 400.04 22.3926 406.811 22.8239C397.554 33.3634 389.187 44.4553 381.85 56.0372C377.354 63.1298 373.254 70.4001 369.14 77.6585C368.204 79.3063 367.269 80.9573 366.327 82.6019C365.857 83.4262 365.383 84.2453 364.909 85.0677C364.845 85.178 364.801 85.2556 364.757 85.3313C364.482 85.803 364.209 86.2721 363.932 86.7401C361.904 90.1839 359.82 93.6037 357.629 96.9706C352.687 104.568 347.169 111.892 340.644 118.584ZM301.697 114.383C301.316 114.964 301.049 115.595 300.842 116.24C292.889 115.594 284.933 114.983 276.966 114.503C265.648 113.819 254.317 113.422 242.985 113.155C260.868 87.1456 279.633 61.5721 299.289 36.5007C304.18 30.2614 309.139 24.0637 314.136 17.8868C331.864 18.6435 349.591 19.5125 367.311 20.4837C349.341 43.488 332.916 67.3347 316.918 91.3638C311.818 99.0245 306.758 106.703 301.697 114.383ZM224.471 112.152C224.328 112.36 224.228 112.589 224.11 112.808C214.633 112.679 205.156 112.573 195.679 112.487C212.748 86.8069 230.345 61.3805 248.511 36.2491C253.406 29.4782 258.355 22.7363 263.328 16.0069C273.758 16.3317 284.189 16.7057 294.617 17.1074C276.021 40.3696 258.169 64.0612 241.108 88.1589C235.476 96.1135 229.933 104.112 224.471 112.152ZM178.669 109.408C178.072 110.31 177.71 111.32 177.552 112.348C160.002 112.249 142.453 112.245 124.912 112.382C121.031 112.412 117.151 112.453 113.272 112.502C131.282 87.3177 149.291 62.1328 167.3 36.9478C172.714 29.3785 178.127 21.8105 183.539 14.2412C193.119 14.3667 202.701 14.5155 212.281 14.7041C222.905 14.9141 233.529 15.1751 244.153 15.4608C227.012 38.8422 210.311 62.455 194.124 86.3239C188.923 93.9941 183.772 101.689 178.669 109.408ZM94.7877 111.172C94.4201 111.686 94.1616 112.251 93.9542 112.826C85.1388 113.009 76.3265 113.244 67.518 113.541C85.5171 87.8367 103.311 62.0047 121.791 36.5537C127.328 28.9276 133.141 21.4447 139.666 14.397C139.818 14.2317 139.954 14.0583 140.081 13.8805C148.141 13.9083 156.198 13.9543 164.258 14.0255C146.592 38.7299 128.924 63.4369 111.257 88.1407C105.768 95.8184 100.277 103.496 94.7877 111.172ZM47.7406 114.203C47.7172 114.237 47.7046 114.273 47.6813 114.307C39.3061 114.681 30.9353 115.116 22.5721 115.621C21.0328 115.714 19.4946 115.821 17.9559 115.92C17.7964 111.924 17.6551 107.931 17.5215 103.938C17.8223 103.665 18.1168 103.381 18.3659 103.052C35.9261 79.7358 52.9501 56.1299 69.4117 32.2403C73.5713 26.2059 77.6791 20.1431 81.768 14.0735C94.328 13.9505 106.89 13.8824 119.454 13.866C110.647 24.4238 102.992 35.6595 95.1851 46.7583C85.0826 61.1187 74.9807 75.4791 64.8788 89.8402C59.1661 97.9606 53.4533 106.082 47.7406 114.203ZM16.6216 62.8649C17.2831 62.2343 17.7686 61.475 17.9773 60.5758C19.0317 56.0278 21.0207 51.7831 23.3445 47.6185C23.3685 47.5762 23.3755 47.5643 23.3913 47.5359C23.4354 47.4646 23.4966 47.3662 23.595 47.2067C23.9456 46.636 24.2905 46.0628 24.6436 45.4914C25.2326 44.5436 25.8324 43.5989 26.434 42.6574C27.7715 40.5619 29.1166 38.4701 30.4579 36.3765C32.9242 32.5291 35.3307 28.6476 37.9774 24.886C39.332 22.962 40.7547 21.0714 42.2978 19.2496C42.9965 18.426 43.7198 17.6169 44.4728 16.8261C44.5295 16.7668 45.1223 16.1722 45.3128 15.9697C45.6823 15.6273 46.0551 15.2874 46.4347 14.9532C46.5778 14.8258 46.7127 14.6934 46.8458 14.5584C52.054 14.4657 57.2611 14.3686 62.4694 14.2948C48.5523 34.7476 34.2581 55.0144 19.5351 75.0547C18.6447 76.2668 17.7333 77.4668 16.8403 78.6783C16.7376 73.4069 16.6777 68.135 16.6216 62.8649ZM16.7527 15.1859C19.7633 15.1121 22.7739 15.0484 25.7844 14.9815C22.4933 19.3397 19.5905 23.9187 16.6436 28.5165C16.624 28.548 16.6039 28.5789 16.5843 28.6092C16.6228 24.135 16.6815 19.6601 16.7527 15.1859ZM526.176 18.1113C459.594 12.082 392.863 7.54343 326.07 4.52341C322.628 4.36764 319.183 4.23396 315.741 4.08639C315.598 3.99874 315.479 3.89092 315.328 3.81146C312.426 2.30618 308.929 2.2841 306.267 3.68344C246.064 1.23287 185.824 -0.00377504 125.614 8.65623e-06C87.9683 0.00253112 50.3356 0.489966 12.7319 1.44976C11.6517 1.47814 10.5689 1.64402 9.55238 1.93978C9.37013 1.92338 9.18972 1.90446 9.00305 1.89879C4.65558 1.79789 0.407733 4.43133 0.332689 8.31719C-0.217839 37.0531 -0.0873187 65.8086 0.740681 94.5629C0.97464 102.681 1.26472 110.796 1.60778 118.912C1.68156 120.646 2.39926 122.393 3.64158 123.758C3.675 124.043 3.72486 124.322 3.81063 124.592C5.0769 128.59 9.0403 130.367 13.6589 130.048C47.2891 127.73 81.266 126.685 115.538 126.307C150.143 125.927 184.775 126.19 219.399 126.603C236.632 126.81 253.873 127.139 271.096 128.061C288.391 128.989 305.638 130.577 322.896 131.986C357.595 134.816 392.301 135.842 427.077 135.552C444.371 135.409 461.654 135.004 478.929 134.504C487.651 134.248 496.371 133.971 505.09 133.688C512.254 133.456 520.493 133.333 525.782 128.666C528.175 126.553 529.624 123.923 529.664 121.083C529.703 120.842 529.724 120.597 529.727 120.347C530.032 96.5468 533.983 27.5106 533.999 25.5374C534.029 21.6661 530.79 18.5288 526.176 18.1113Z" fill="#FF9FE2" fill-opacity="0.75"/>
</svg>
