<svg width="538" height="293" viewBox="0 0 538 293" fill="none" xmlns="http://www.w3.org/2000/svg">
<path d="M488.973 50.0871C488.864 49.8425 488.899 49.6415 488.939 49.8067C488.913 49.6476 488.898 49.5134 488.974 49.2889C489.334 48.2344 489.831 47.3099 490.414 46.356C493.922 40.606 497.641 34.9734 501.253 29.2867C502.939 26.6317 501.217 23.129 498.378 22.2926C495.612 21.4775 492.845 20.6632 490.077 19.8472C492.355 15.8755 494.186 11.6608 495.519 7.25812C496.565 3.79955 493.102 0.414593 489.676 1.38525C430.39 18.1751 371.105 34.9625 311.819 51.7516C252.534 68.5399 193.249 85.3293 133.963 102.117C100.776 111.515 67.5894 120.914 34.4023 130.311C28.2593 132.347 21.9777 133.883 15.8001 135.796C12.105 136.941 11.3776 141.001 13.6771 143.804C14.811 145.186 16.4258 146.2 18.0008 147.159C15.7551 149.5 13.7714 152.051 11.638 154.696C9.7615 157.025 9.73908 160.563 12.6462 162.191C15.6338 163.864 18.7683 165.224 21.8641 166.672C19.001 169.824 15.8152 172.72 13.3849 176.253C11.8831 178.435 13.0874 181.488 15.1327 182.776C18.7398 185.047 22.7587 186.552 26.9287 187.256C26.8407 187.601 26.7519 187.95 26.6634 188.291C26.298 189.702 25.9489 191.117 25.546 192.517C25.3709 193.122 25.1879 193.725 24.9888 194.324C24.9202 194.53 24.9 194.617 24.8982 194.652C24.8585 194.709 24.7952 194.813 24.6718 195.033C23.1647 197.72 24.5569 201.191 27.5459 202.026C30.4595 202.84 33.4286 203.389 36.3992 203.939C34.523 205.605 32.6479 207.273 30.7483 208.913C28.9557 210.46 28.8553 214.172 30.7845 215.667C32.6144 217.085 34.4387 218.171 36.554 219.111C37.2974 219.441 38.0975 219.759 38.8884 220.1C38.3894 221.218 37.9109 222.343 37.4239 223.459C36.833 224.81 36.2458 226.164 35.6181 227.499C35.009 228.793 34.045 230.113 33.6672 231.489C31.7099 238.634 40.0804 240.724 44.9945 242.168C46.1328 242.501 46.4374 242.521 47.226 243.094C47.8168 243.524 48.378 244.068 48.9053 244.579C48.922 244.595 49.0944 244.807 49.3 245.063C48.7452 245.566 48.2374 246.313 47.7843 246.828C46.5133 248.275 45.3012 249.763 44.1342 251.294C41.0832 255.292 37.6911 259.791 39.8396 265.012C41.3209 268.611 44.5398 271.978 48.2767 274.058C47.5509 275.047 46.7919 276.01 46.1099 276.949C44.2988 279.448 42.7417 281.892 41.5765 284.757C40.1609 288.238 44.2394 291.477 47.4187 290.629C110.117 273.944 172.803 257.212 235.476 240.434C297.827 223.745 360.165 207.009 422.492 190.23C457.692 180.753 492.889 171.263 528.082 161.758C532.295 160.62 532.555 155.272 529.233 153.01C525.216 150.273 520.92 148.055 516.556 145.93C514.674 145.015 512.515 144.045 510.566 142.976C514.649 137.158 518.375 131.088 521.157 124.528C522.202 122.061 521.803 119.543 519.41 118.004C514.737 115.003 509.303 112.459 504.976 108.8C510.507 103.1 514.823 95.02 508.889 88.2419C506.284 85.2663 502.061 84.9197 499.376 82.6761C498.85 82.2376 499.507 82.8713 499.23 82.2033C499.235 82.1783 499.232 82.1745 499.238 82.1403C499.237 82.1457 499.383 81.7261 499.453 81.5066C499.524 81.3569 499.61 81.1779 499.639 81.13C500.082 80.3965 500.516 79.6787 501.003 78.9733C502.272 77.1445 504.796 74.3444 506.215 71.7498C507.915 68.6403 508.755 65.0748 507.588 61.6292C505.108 54.3009 497.207 53.6853 490.984 51.3874C490.862 51.3444 490.795 51.3191 490.716 51.2917C490.685 51.2744 490.661 51.2612 490.598 51.2303C490.196 51.0354 489.809 50.8235 489.431 50.5876C489.408 50.574 489.404 50.5739 489.385 50.5625C489.338 50.5185 489.304 50.4864 489.234 50.4226C489.181 50.3769 489.153 50.3543 489.118 50.3231C489.107 50.3084 489.104 50.3044 489.087 50.2835C489.036 50.2204 489.001 50.1536 488.973 50.0889C488.973 50.0954 488.974 50.0972 488.975 50.1029C488.974 50.0964 488.974 50.0934 488.973 50.0871Z" fill="#EAB6FF" fill-opacity="0.75"/>
<path d="M488.973 50.0879L488.973 50.0891C488.965 49.9467 488.952 49.8611 488.939 49.8062C488.952 49.8887 488.965 49.9774 488.973 50.0879Z" fill="#CCFFFF" fill-opacity="0.75"/>
<path d="M58.9304 152.78C59.168 152.176 59.8375 151.425 60.5286 150.75C60.8058 151.449 61.1096 152.137 61.4124 152.826C60.5874 152.779 59.7591 152.785 58.9304 152.78ZM61.6858 144.15C61.9196 144.256 62.1526 144.364 62.3855 144.472C62.2324 144.62 62.0767 144.766 61.9244 144.915C61.8472 144.659 61.7598 144.406 61.6858 144.15ZM71.8589 140.242C72.7189 139.502 73.5784 138.755 74.4636 138.045C75.1468 137.497 75.6947 137.101 76.329 137.925C77.4536 139.39 76.1113 142.221 75.6461 143.727C75.3051 144.832 74.9255 145.925 74.563 147.023C72.4376 145.827 70.274 144.7 68.0909 143.609C69.3351 142.474 70.5821 141.341 71.8589 140.242ZM81.9623 155.367C79.7371 155.216 77.521 154.96 75.3102 154.635C75.6599 153.705 75.9896 152.768 76.3241 151.832C78.2286 152.97 80.1095 154.143 81.9623 155.367ZM63.085 148.351C63.9084 147.538 64.7454 146.739 65.585 145.944C68.2755 147.266 70.9185 148.677 73.5235 150.157C73.0537 151.494 72.5437 152.815 72.0426 154.14C69.7336 153.777 67.4241 153.413 65.1067 153.149C64.36 151.581 63.6912 149.979 63.085 148.351ZM69.4064 160.71C68.5069 159.371 67.68 157.989 66.8966 156.589C68.2255 156.769 69.5531 156.968 70.8795 157.177C70.4056 158.362 69.9057 159.535 69.4064 160.71ZM74.1196 157.685C78.5019 158.359 82.8919 158.917 87.3478 158.678C89.0223 158.587 89.4713 156.602 88.165 155.67C84.686 153.185 81.0775 150.897 77.4032 148.722C77.7833 147.594 78.1654 146.466 78.5217 145.33C79.3966 142.535 80.8689 139.045 79.1095 136.294C77.5843 133.91 74.8398 133.675 72.709 135.341C70.0081 137.453 67.3973 139.723 64.8689 142.082C63.2788 141.334 61.6963 140.57 60.0793 139.878C58.8176 139.34 57.3855 140.232 57.7175 141.691C58.1637 143.657 58.7156 145.595 59.3507 147.504C58.8208 148.047 58.2794 148.583 57.7576 149.128C56.8899 150.035 56.0316 151.034 55.6859 152.271C55.3445 153.494 55.6308 155.297 56.948 155.847C57.562 156.104 58.3438 155.961 59.0002 155.962C59.8044 155.964 60.6083 155.991 61.4113 156.035C61.9388 156.064 62.4646 156.112 62.9919 156.157C64.5673 159.226 66.3898 162.171 68.4705 164.941C69.5489 166.375 71.8306 165.316 71.5371 163.914C72.4375 161.853 73.2916 159.774 74.1196 157.685Z" fill="#CCFFFF" fill-opacity="0.75"/>
<path d="M354.669 109.013C354.907 108.409 355.576 107.658 356.267 106.983C356.545 107.682 356.848 108.37 357.151 109.06C356.326 109.012 355.498 109.018 354.669 109.013ZM357.424 100.383C357.658 100.489 357.891 100.597 358.124 100.704C357.971 100.853 357.815 100.999 357.663 101.148C357.586 100.893 357.499 100.64 357.424 100.383ZM367.598 96.4751C368.458 95.7348 369.317 94.9882 370.202 94.2786C370.886 93.7307 371.433 93.334 372.068 94.1587C373.192 95.623 371.85 98.4536 371.385 99.96C371.044 101.065 370.664 102.158 370.302 103.257C368.176 102.061 366.013 100.933 363.83 99.8422C365.074 98.707 366.32 97.5745 367.598 96.4751ZM377.701 111.6C375.476 111.45 373.259 111.194 371.049 110.869C371.399 109.939 371.728 109.002 372.063 108.066C373.967 109.204 375.848 110.376 377.701 111.6ZM358.824 104.584C359.647 103.771 360.484 102.972 361.324 102.178C364.014 103.499 366.657 104.91 369.262 106.39C368.793 107.727 368.283 109.048 367.781 110.374C365.472 110.011 363.163 109.646 360.846 109.382C360.099 107.814 359.43 106.213 358.824 104.584ZM365.145 116.944C364.246 115.604 363.419 114.223 362.635 112.822C363.964 113.002 365.291 113.202 366.618 113.411C366.144 114.595 365.645 115.769 365.145 116.944ZM369.858 113.918C374.241 114.592 378.631 115.15 383.087 114.911C384.761 114.821 385.21 112.836 383.904 111.903C380.425 109.419 376.816 107.13 373.142 104.955C373.522 103.827 373.904 102.699 374.26 101.563C375.135 98.7675 376.608 95.2781 374.848 92.5267C373.323 90.1423 370.578 89.9079 368.448 91.5738C365.747 93.6858 363.137 95.9555 360.608 98.3152C359.018 97.5668 357.436 96.8031 355.819 96.1112C354.557 95.5721 353.125 96.4649 353.457 97.9244C353.903 99.8907 354.455 101.828 355.09 103.737C354.56 104.279 354.019 104.815 353.497 105.361C352.629 106.268 351.771 107.267 351.425 108.503C351.084 109.727 351.37 111.53 352.687 112.08C353.301 112.337 354.083 112.193 354.739 112.194C355.544 112.196 356.348 112.224 357.151 112.268C357.678 112.297 358.204 112.344 358.731 112.389C360.306 115.458 362.129 118.403 364.21 121.172C365.288 122.606 367.57 121.548 367.276 120.146C368.176 118.087 369.03 116.007 369.858 113.918Z" fill="#CCFFFF" fill-opacity="0.75"/>
<path d="M102.714 244.624C102.056 247.707 101.178 250.735 100.125 253.706C94.1715 251.435 88.2271 248.798 82.7957 245.487C81.7782 244.866 80.1922 243.81 80.8675 242.42C81.5663 240.982 83.4659 240.801 84.8632 240.808C87.8509 240.822 91.083 241.454 93.4865 243.333C94.4815 244.11 96.2995 243.722 96.2312 242.197C96.1651 240.699 96.1928 239.203 96.3579 237.711C96.4861 236.552 96.55 234.608 97.2363 233.617C97.8709 232.701 99.6343 233.192 100.483 233.576C101.54 234.055 102.453 234.867 103.011 235.885C104.393 238.41 103.275 241.992 102.714 244.624ZM95.1161 231.096C93.867 232.375 93.604 234.417 93.3432 236.101C93.1756 237.184 93.076 238.267 93.0236 239.355C90.4407 238.099 87.5396 237.542 84.6406 237.583C82.5894 237.611 80.4623 238.084 78.9799 239.599C77.643 240.966 77.0924 242.934 77.7934 244.748C78.5182 246.622 80.2651 247.77 81.9409 248.717C83.9204 249.837 85.9365 250.894 87.9746 251.901C92.1041 253.94 96.3445 255.752 100.662 257.356C101.952 257.835 102.747 256.632 102.58 255.554C102.833 255.374 103.042 255.113 103.17 254.758C104.615 250.71 105.721 246.551 106.423 242.31C107.03 238.644 107.124 234.871 104.133 232.181C101.974 230.238 97.5146 228.641 95.1161 231.096Z" fill="#CCFFFF" fill-opacity="0.75"/>
<path d="M220.354 218.97C222.571 219.757 224.723 220.693 226.768 221.874C225.023 223.081 222.995 223.885 220.903 224.551C220.794 222.686 220.618 220.825 220.354 218.97ZM217.624 233.528C216.297 232.44 215 231.318 213.751 230.141C214.727 229.792 215.7 229.438 216.686 229.115C217.068 228.991 217.457 228.873 217.844 228.755C217.834 230.347 217.749 231.939 217.624 233.528ZM201.797 231.619C202.31 229.224 202.991 226.875 203.845 224.588C204.463 225.238 205.075 225.882 205.667 226.522C206.418 227.334 207.186 228.127 207.956 228.921C205.881 229.767 203.824 230.66 201.797 231.619ZM198.83 213.474C199.797 213.595 200.832 213.988 201.602 214.167C202.714 214.427 203.826 214.685 204.938 214.944C204.453 215.746 203.959 216.541 203.52 217.371C203.275 217.832 203.074 218.314 202.843 218.782C201.352 217.101 199.953 215.349 198.83 213.474ZM217.764 225.482C216.503 225.84 215.259 226.19 214.083 226.597C213.117 226.93 212.162 227.288 211.207 227.646C210.097 226.524 209.003 225.386 207.934 224.23C207.051 223.277 206.124 222.314 205.195 221.336C206.084 219.395 207.104 217.519 208.243 215.711C210.177 216.158 212.111 216.605 214.036 217.092C215.012 217.338 215.981 217.603 216.947 217.882C217.107 218.811 217.27 219.741 217.385 220.675C217.581 222.274 217.693 223.877 217.764 225.482ZM213.389 208.924C213.47 208.838 214.468 207.76 214.259 207.743C214.469 207.76 214.757 208.924 214.778 208.983C215.215 210.292 215.586 211.627 215.924 212.964C216.039 213.418 216.124 213.879 216.229 214.336C215.427 214.121 214.623 213.915 213.819 213.718C212.609 213.422 211.396 213.15 210.183 212.866C211.186 211.503 212.238 210.177 213.389 208.924ZM219.724 215.355C219.277 213.117 218.754 210.893 218.071 208.713C217.409 206.602 216.234 203.815 213.458 204.798C211.213 205.594 209.385 208.553 208.004 210.37C207.584 210.924 207.209 211.507 206.81 212.077C206.063 211.904 205.317 211.726 204.571 211.552C201.75 210.894 198.31 209.415 195.551 210.897C194.731 211.337 194.624 212.336 194.977 213.102C196.479 216.358 198.876 219.257 201.394 221.988C199.95 225.521 198.872 229.198 198.241 232.968C198.213 233.136 198.241 233.28 198.255 233.43C196.918 234.505 198.424 236.877 200.155 235.995C203.51 234.29 206.945 232.765 210.442 231.388C212.877 233.74 215.415 235.983 218.139 238.022C219.224 238.835 220.427 237.686 220.557 236.638C220.92 233.692 221.069 230.735 221.039 227.78C224.544 226.702 227.989 225.445 230.673 222.829C231.463 222.06 231.165 220.87 230.332 220.3C227.075 218.072 223.46 216.547 219.724 215.355Z" fill="#CCFFFF" fill-opacity="0.75"/>
<path d="M256.394 91.3632C258.611 92.1492 260.764 93.0859 262.808 94.2664C261.062 95.4735 259.035 96.2774 256.943 96.9429C256.834 95.0791 256.659 93.2188 256.394 91.3632ZM253.664 105.92C252.337 104.833 251.041 103.71 249.791 102.534C250.767 102.185 251.741 101.831 252.726 101.508C253.109 101.383 253.497 101.266 253.885 101.148C253.874 102.741 253.789 104.332 253.664 105.92ZM237.838 104.012C238.35 101.616 239.031 99.268 239.885 96.9809C240.503 97.6309 241.116 98.2751 241.707 98.9145C242.458 99.727 243.227 100.52 243.996 101.313C241.921 102.16 239.865 103.053 237.838 104.012ZM234.871 85.8663C235.837 85.9878 236.872 86.3804 237.643 86.5597C238.755 86.8194 239.867 87.0778 240.979 87.3362C240.494 88.1386 240 88.9332 239.562 89.7632C239.317 90.2244 239.115 90.7056 238.885 91.174C237.392 89.4941 235.993 87.7425 234.871 85.8663ZM253.804 97.8744C252.543 98.2326 251.3 98.5828 250.123 98.99C249.158 99.3228 248.203 99.6811 247.248 100.039C246.138 98.9169 245.044 97.779 243.974 96.6228C243.092 95.6703 242.164 94.7071 241.236 93.729C242.124 91.7876 243.145 89.9118 244.283 88.1037C246.217 88.5506 248.152 88.9974 250.076 89.4843C251.052 89.7306 252.022 89.9951 252.987 90.2743C253.147 91.2032 253.31 92.1332 253.425 93.0677C253.621 94.6672 253.734 96.27 253.804 97.8744ZM249.43 81.3169C249.511 81.231 250.509 80.1525 250.299 80.1359C250.51 80.1529 250.798 81.3165 250.818 81.3759C251.256 82.6844 251.627 84.02 251.965 85.3571C252.08 85.8112 252.164 86.2722 252.27 86.7287C251.467 86.5133 250.663 86.3074 249.86 86.1108C248.649 85.8145 247.436 85.5424 246.223 85.2587C247.226 83.8967 248.278 82.5697 249.43 81.3169ZM255.764 87.7482C255.318 85.5098 254.794 83.2855 254.112 81.1063C253.45 78.9945 252.275 76.2079 249.499 77.1905C247.253 77.9864 245.426 80.9456 244.045 82.7624C243.624 83.3166 243.249 83.8994 242.851 84.47C242.103 84.297 241.358 84.1189 240.611 83.945C237.791 83.2874 234.35 81.8085 231.591 83.2899C230.772 83.7299 230.664 84.7291 231.018 85.4952C232.519 88.7513 234.916 91.6495 237.434 94.3814C235.99 97.9144 234.913 101.591 234.281 105.362C234.253 105.53 234.281 105.674 234.295 105.824C232.958 106.899 234.464 109.271 236.195 108.389C239.55 106.684 242.985 105.159 246.482 103.783C248.917 106.134 251.456 108.378 254.179 110.417C255.264 111.23 256.468 110.08 256.597 109.034C256.961 106.087 257.109 103.131 257.079 100.176C260.585 99.0973 264.03 97.8402 266.713 95.2244C267.503 94.4557 267.205 93.2647 266.372 92.6959C263.116 90.465 259.5 88.9399 255.764 87.7482Z" fill="#CCFFFF" fill-opacity="0.75"/>
<path d="M151.105 161.628C151.05 161.533 151.023 161.435 150.946 161.342C148.631 158.607 146.498 155.73 144.569 152.71C142.872 150.055 141.021 147.219 140.463 144.062C140.225 142.712 140.279 141.163 140.969 139.943C141.833 138.413 143.455 138.847 144.736 139.611C147.554 141.294 149.333 144.347 149.967 147.501C150.13 148.317 151.154 148.908 151.941 148.64C153.562 148.089 154.623 147.02 155.627 145.675C156.679 144.266 157.63 142.892 159.432 142.43C163.204 141.461 165.917 144.927 165.454 148.439C164.541 155.381 156.996 159.283 151.105 161.628ZM168.738 147.598C168.807 143.243 165.604 139.367 161.167 139.065C159.015 138.921 156.823 139.7 155.218 141.13C154.223 142.016 153.49 143.544 152.486 144.582C151.349 141.346 149.146 138.38 146.158 136.706C144.448 135.748 142.288 135.234 140.441 136.132C138.649 137.001 137.648 138.919 137.301 140.811C136.573 144.78 138.354 148.629 140.328 151.966C142.766 156.091 145.584 159.978 148.681 163.634C148.933 163.933 149.22 164.057 149.508 164.111C149.753 164.825 150.402 165.343 151.315 164.987C158.794 162.087 168.591 156.885 168.738 147.598Z" fill="#CCFFFF" fill-opacity="0.75"/>
<path d="M424.821 56.3505C424.766 56.2557 424.74 56.1571 424.663 56.065C422.347 53.33 420.214 50.453 418.285 47.4328C416.588 44.7775 414.738 41.9416 414.179 38.7844C413.942 37.4348 413.996 35.8857 414.685 34.6656C415.549 33.1356 417.171 33.5696 418.453 34.3332C421.27 36.0169 423.049 39.0702 423.683 42.2234C423.847 43.0391 424.87 43.6311 425.657 43.3632C427.279 42.8112 428.34 41.7428 429.343 40.3979C430.395 38.9881 431.346 37.6148 433.149 37.1528C436.921 36.184 439.633 39.6491 439.171 43.1619C438.257 50.1038 430.712 54.0064 424.821 56.3505ZM442.454 42.3215C442.524 37.9659 439.32 34.0903 434.884 33.7884C432.731 33.644 430.54 34.4228 428.935 35.8541C427.94 36.7402 427.207 38.2679 426.203 39.3057C425.066 36.07 422.863 33.1043 419.875 31.4298C418.165 30.4715 416.005 29.958 414.158 30.8558C412.366 31.725 411.365 33.6426 411.018 35.5346C410.29 39.5037 412.071 43.3529 414.044 46.69C416.483 50.8144 419.301 54.702 422.397 58.3576C422.65 58.6573 422.937 58.7811 423.225 58.8345C423.47 59.5491 424.119 60.0667 425.032 59.7111C432.511 56.8103 442.308 51.6087 442.454 42.3215Z" fill="#CCFFFF" fill-opacity="0.75"/>
<path d="M282.778 163.219C281.086 166.571 278.985 169.672 277.48 173.108C274.749 171.473 272.015 169.842 269.287 168.202C266.967 166.807 264.568 165.361 262.828 163.243C262.144 162.409 261.392 161.323 261.25 160.221C261.083 158.927 262.034 158.668 263.162 158.723C265.947 158.857 268.836 160.076 271.239 161.414C272.388 162.051 273.511 161.209 273.656 160.029C273.914 157.921 274.09 155.78 274.468 153.688C274.739 152.189 275.15 150.461 276.411 149.467C279.114 147.336 282.83 149.487 284.06 152.17C285.712 155.781 284.463 159.878 282.778 163.219ZM281.845 145.958C278.86 144.859 275.288 145.547 273.284 148.108C271.302 150.639 270.966 154.221 270.677 157.511C268.085 156.292 265.136 155.331 262.407 155.508C258.893 155.734 257.223 158.847 258.423 162.034C259.654 165.3 262.454 167.638 265.287 169.507C268.735 171.784 272.371 173.805 275.917 175.93C276.438 176.241 276.932 176.202 277.342 175.994C278.132 176.577 279.558 176.472 280.018 175.245C282.745 167.999 289.327 161.85 287.812 153.484C287.206 150.135 285.091 147.153 281.845 145.958Z" fill="#CCFFFF" fill-opacity="0.75"/>
<path d="M376.167 176.845C378.382 176.954 380.599 177.063 382.814 177.171C381.066 178.545 379.097 179.676 377.121 180.747C376.839 179.438 376.52 178.138 376.167 176.845ZM374.783 185.676C374.959 186.795 375.111 187.918 375.236 189.046C374.284 188.365 373.331 187.685 372.392 186.988C373.187 186.548 373.989 186.118 374.783 185.676ZM362.016 189.002C362.016 187.65 362.317 186.303 362.651 184.962C362.757 184.534 362.883 184.113 362.997 183.689C364.163 184.646 365.33 185.605 366.517 186.536C365.016 187.358 363.52 188.189 362.016 189.002ZM359.693 176.646C360.446 176.507 361.204 176.4 361.973 176.343C361.889 176.568 361.793 176.786 361.711 177.011C361.579 177.373 361.472 177.74 361.346 178.103C360.792 177.623 360.244 177.132 359.693 176.646ZM369.504 167.699C369.635 167.937 369.775 168.17 369.812 168.26C370.27 169.325 370.695 170.402 371.096 171.487C371.33 172.122 371.541 172.765 371.758 173.405C371.513 173.393 371.269 173.382 371.025 173.37C369.619 173.3 368.188 173.203 366.751 173.134C367.588 171.283 368.508 169.472 369.504 167.699ZM373.134 177.863C373.534 179.344 373.872 180.838 374.179 182.338C374.049 182.41 373.916 182.481 373.787 182.553C372.395 183.33 370.991 184.079 369.596 184.849C367.699 183.381 365.827 181.882 363.986 180.345C364.123 179.92 364.249 179.492 364.394 179.071C364.716 178.133 365.061 177.205 365.423 176.285C367.491 176.343 369.56 176.522 371.569 176.622C371.974 176.642 372.38 176.662 372.785 176.681C372.899 177.075 373.026 177.466 373.134 177.863ZM386.655 174.133C382.834 173.947 379.013 173.761 375.192 173.573C374.515 171.487 373.771 169.422 372.921 167.398C372.214 165.713 370.907 162.846 368.525 163.959C367.454 164.46 366.959 165.631 366.416 166.614C365.798 167.736 365.211 168.875 364.655 170.028C364.173 171.027 363.723 172.042 363.285 173.062C360.786 173.107 358.315 173.407 355.97 174.319C354.908 174.732 354.266 176.119 355.254 177.021C356.904 178.526 358.581 180 360.279 181.447C359.997 182.414 359.72 183.381 359.481 184.36C358.866 186.872 358.449 189.422 359.183 191.956C359.483 192.989 360.624 193.43 361.556 192.93C364.154 191.531 366.73 190.094 369.317 188.675C371.823 190.57 374.361 192.428 376.955 194.205C378.62 195.346 380.17 192.742 378.695 191.522C378.694 191.499 378.705 191.483 378.702 191.459C378.508 188.972 378.188 186.497 377.767 184.04C381.388 182.074 385.137 180.047 387.789 176.879C388.678 175.817 388.1 174.204 386.655 174.133Z" fill="#CCFFFF" fill-opacity="0.75"/>
<path d="M486.92 144.735C484.409 149.423 479.544 152.201 476.451 156.461C472.88 152.912 470.399 148.494 468.027 144.069C467.419 142.938 466.786 141.804 466.288 140.62C465.998 139.928 465.751 139.205 465.58 138.474C465.419 137.774 465.564 136.954 465.39 136.293C465.344 136.122 465.397 136.011 465.431 135.943C465.574 135.964 465.717 135.994 465.837 136.022C466.418 136.154 466.945 136.438 467.438 136.765C468.614 137.546 469.521 138.677 470.475 139.7C472.169 141.517 474.666 143.735 476.899 141.296C477.808 140.304 478.355 139.027 479.27 138.024C480.209 136.996 481.328 136.139 482.7 135.801C484.851 135.271 486.617 136.459 487.461 138.407C488.366 140.499 487.97 142.779 486.92 144.735ZM485.715 132.708C482.806 131.84 479.74 133.126 477.614 135.111C477.009 135.676 476.485 136.315 475.99 136.976C475.759 137.28 474.922 138.95 474.615 139.009C473.795 139.17 471.731 136.278 471.132 135.683C469.42 133.985 466 131.572 463.502 133.137C462.281 133.903 462.131 135.632 462.156 136.926C462.188 138.563 462.63 140.129 463.249 141.634C464.626 144.983 466.519 148.228 468.412 151.308C470.356 154.472 472.606 157.467 475.413 159.916C475.853 160.302 476.351 160.387 476.806 160.29C477.351 160.348 477.916 160.154 478.272 159.531C481.332 154.169 487.447 151.31 490.077 145.609C492.172 141.073 491.157 134.339 485.715 132.708Z" fill="#CCFFFF" fill-opacity="0.75"/>
</svg>
