<svg width="614" height="436" viewBox="0 0 614 436" fill="none" xmlns="http://www.w3.org/2000/svg">
<path d="M601.665 101.424C600.324 100.287 598.49 100.286 596.703 100.961C595.572 100.759 594.228 100.943 592.767 101.734C590.712 102.849 588.625 103.834 586.52 104.763C587.605 103.163 588.353 101.545 588.046 99.8556C587.672 97.7981 585.668 96.5616 583.358 96.3679C579.593 96.0503 575.547 96.2516 571.698 96.1989C570.017 96.1755 568.337 96.1526 566.657 96.1301C567.414 95.1412 568.162 94.1501 568.874 93.1464C571.068 90.0554 572.058 86.5524 569.842 84.0916C566.036 79.865 557.232 81.3696 551.089 81.6694C550.997 81.6737 550.905 81.6723 550.814 81.6781C551.161 80.959 551.515 80.2427 551.889 79.5309C553.472 76.5207 555.924 73.5407 556.54 70.3857C557.975 63.0265 548.818 63.0008 542.198 63.4711C542.27 63.2921 542.341 63.1148 542.412 62.9516C543.212 61.1095 544.01 59.2681 544.809 57.4267C546.514 53.497 548.22 49.5682 549.925 45.6374C551.106 42.9151 549.002 39.8918 545.655 40.4639C541.422 41.1891 537.188 41.9132 532.954 42.6374C535.964 36.7334 539.255 30.8983 542.852 25.1412C544.723 22.1463 543.407 18.1605 539.215 18.8424C536.957 19.2102 534.701 19.5773 532.445 19.9445C531.787 20.0522 530.87 20.2565 529.95 20.4394C530.052 19.9506 530.154 19.4614 530.255 18.973C530.58 17.4086 530.906 15.8439 531.23 14.2791C531.742 11.8156 529.291 10.0035 526.645 10.2722C525.145 10.4248 523.828 11.0887 522.822 12.026C488.282 32.8229 453.68 53.5201 419.015 74.1121C384.441 94.6494 349.806 115.086 315.109 135.419C280.243 155.851 245.316 176.179 210.328 196.402C175.339 216.626 140.291 236.745 105.183 256.759C77.3121 272.646 49.6631 289.81 24.7396 309.735C21.9339 311.978 19.1791 314.27 16.4831 316.618C14.727 318.148 14.3129 319.784 14.7108 321.122C14.4325 322.801 15.0538 324.475 16.7486 324.988C18.8183 325.615 20.8893 326.241 22.9596 326.868C24.0284 327.192 25.6941 327.447 26.8623 327.931C26.6064 329.826 25.2079 332.624 24.4889 334.19C23.2055 336.988 21.5235 339.626 19.5571 342.212C16.6374 346.052 20.3297 349.286 24.54 348.225C28.9328 347.117 33.3239 346.256 37.7091 345.57C35.2128 349.213 32.7165 352.855 30.2201 356.499C28.1748 359.484 29.7961 363.472 33.857 362.798C37.1461 362.252 40.4323 361.74 43.7166 361.274C45.3436 361.042 46.97 360.822 48.5943 360.611C48.5124 360.805 48.4353 360.999 48.3519 361.193C47.725 362.645 47.0606 364.092 46.357 365.531C44.9692 368.367 43.4181 371.146 41.7105 373.899C39.7209 377.106 41.2519 380.577 45.3471 380.198C52.5514 379.532 59.775 378.707 67.0044 377.807C65.3813 380.177 63.7575 382.546 62.1337 384.917C60.3786 387.476 61.1668 390.997 64.4801 391.201C66.0666 391.298 67.6516 391.393 69.238 391.492C68.7897 392.062 68.3407 392.633 67.894 393.203C66.2748 395.266 64.6553 397.329 63.036 399.393C60.3783 402.778 63.1383 405.707 66.6723 405.691C71.8022 405.668 76.93 405.645 82.0588 405.621C80.3725 408.773 78.6859 411.925 76.999 415.075C74.5297 419.687 72.6128 423.916 74.388 428.212C75.2619 430.326 78.8622 430.493 81.2413 429.119C82.5309 428.375 83.3633 427.401 83.8161 426.361C112.65 409.432 141.621 392.733 170.606 376.065C203.39 357.212 236.208 338.419 268.989 319.561C298.844 302.388 328.665 285.158 358.358 267.707C397.786 244.534 437.204 221.281 475.542 196.394C513.889 171.499 550.973 144.889 587.566 117.775C592.031 114.468 596.487 111.151 600.94 107.829C603.302 106.063 603.292 102.806 601.665 101.424Z" fill="#FFB6E5" fill-opacity="0.75"/>
<path d="M80.1343 303.889C80.1146 303.92 80.0894 303.949 80.0716 303.98C80.0294 303.938 79.9863 303.895 79.9591 303.868C80.0297 303.875 80.0908 303.882 80.1177 303.885C80.1226 303.886 80.1287 303.888 80.1343 303.889ZM89.4656 298.027C89.8617 297.939 90.3102 298.251 90.5755 298.424C90.6095 298.446 90.6364 298.473 90.6681 298.496C90.494 298.56 90.3271 298.64 90.1713 298.741C90.1056 298.695 90.0507 298.64 89.9843 298.596C89.7333 298.428 89.4476 298.318 89.1355 298.292C89.2327 298.173 89.3426 298.054 89.4656 298.027ZM92.6595 307.632C92.5988 307.622 92.5638 307.589 92.4957 307.584C92.4935 307.583 92.4929 307.583 92.4904 307.583C92.3076 307.297 92.1667 306.989 92.0061 306.688C92.1616 306.817 92.3095 306.952 92.478 307.07C92.5352 307.11 92.6 307.12 92.6602 307.152C92.6593 307.309 92.6676 307.462 92.6572 307.622C92.6588 307.626 92.6602 307.629 92.6595 307.632ZM88.8037 295.221C86.7143 295.954 85.4932 297.927 85.2172 299.664C85.0861 300.49 85.2369 301.242 85.4095 301.987C85.0574 301.879 84.704 301.771 84.3519 301.663C83.0501 301.265 81.7268 300.695 80.203 300.781C78.6814 300.867 77.1219 301.756 76.5003 303.129C75.9706 304.299 76.4051 305.358 77.0949 306.142C77.7777 306.918 78.7802 307.377 79.7821 307.817C80.9217 308.318 82.1092 308.755 83.3361 309.128C84.9245 309.609 86.5825 309.951 88.2745 310.227C89.225 310.575 90.1823 310.916 91.1677 311.199C92.9387 311.707 94.9944 311.122 96.2686 309.413C97.4339 307.85 97.2899 306.171 97.174 304.624C97.0499 302.969 96.7578 301.374 96.1879 299.874C95.2779 297.476 92.6398 293.876 88.8037 295.221Z" fill="white" fill-opacity="0.75"/>
<path d="M164.709 298.282C164.715 298.27 164.508 298.531 164.608 298.432C164.176 298.86 164.494 298.505 164.504 298.502C164.119 298.588 163.685 298.473 163.342 298.425C163.174 298.404 163.015 298.364 162.85 298.336C163.204 298.017 163.46 297.626 163.512 297.23C163.952 297.438 164.436 297.586 164.943 297.698C164.89 297.905 164.82 298.106 164.709 298.282ZM152.367 291.946C152.34 291.976 152.306 292.007 152.299 292.014C152.33 291.984 152.347 291.965 152.367 291.946ZM152.737 291.696C153.987 291.054 155.497 291.657 156.816 291.855C157.461 291.952 158.259 291.966 159.046 291.86C159.124 292.622 159.183 293.389 159.296 294.14C158.592 293.771 157.9 293.386 157.189 293.023C155.82 292.327 154.289 291.701 152.542 292.22C152.48 292.091 152.418 291.951 152.403 291.912C152.464 291.847 152.502 291.818 152.737 291.696ZM162.788 286.447C163.196 286.358 163.487 286.589 163.698 286.879C163.204 286.997 162.721 287.274 162.376 287.641C162.378 287.496 162.363 287.352 162.381 287.204C162.426 286.799 162.397 286.532 162.788 286.447ZM159.579 285.565C159.132 286.27 158.932 287.027 158.879 287.757C158.853 288.128 158.88 288.5 158.89 288.873C158.81 288.877 158.726 288.881 158.657 288.876C158.18 288.849 157.721 288.75 157.271 288.66C156.326 288.475 155.397 288.274 154.358 288.336C152.365 288.46 149.944 289.602 149.124 291.464C148.117 293.756 150.342 295.371 151.838 296.52C152.063 296.694 152.306 296.852 152.54 297.019C153.847 298.289 155.39 299.361 157.189 300.137C158.539 300.72 160.024 301.143 161.565 301.398C163.181 301.664 165.01 301.793 166.579 300.52C167.871 299.472 168.399 297.973 168.527 296.642C168.686 295.007 168.466 293.371 168.319 291.8C168.172 290.199 168 288.587 167.672 287.04C167.348 285.516 166.623 284.066 164.913 283.57C163.115 283.047 160.726 283.75 159.579 285.565Z" fill="white" fill-opacity="0.75"/>
<path d="M117.371 349.807C117.379 349.797 117.39 349.765 117.396 349.763C117.44 349.753 117.414 349.776 117.371 349.807ZM119.485 352.5C119.515 352.34 119.695 352.347 119.485 352.5V352.5ZM117.26 350.036C117.417 350.084 117.696 350.177 117.866 350.236C117.557 350.428 117.282 350.635 117.061 350.862C117.1 350.615 117.137 350.371 117.226 350.122C117.233 350.105 117.25 350.065 117.26 350.036ZM109.654 358.333C109.697 358.322 109.747 358.304 109.795 358.29C109.791 358.295 109.787 358.299 109.783 358.303C109.764 358.329 109.753 358.357 109.735 358.383C109.706 358.368 109.681 358.351 109.654 358.333ZM114.492 348.661C113.697 349.764 113.505 351.141 113.469 352.281C113.45 352.889 113.476 353.486 113.491 354.086C113.495 354.239 113.465 354.501 113.442 354.758C113.236 354.763 113.027 354.776 112.836 354.782C112.14 354.805 111.435 354.895 110.725 355.038C108.95 355.394 106.907 356.032 106.188 357.796C105.595 359.247 106.308 360.57 107.549 361.183C108.539 361.673 109.845 361.773 111.082 361.876C113.318 362.564 115.966 362.746 118.481 362.647C119.976 362.589 121.685 362.517 123.006 361.438C124.224 360.444 124.457 359 124.626 357.775C124.953 355.416 124.709 353.09 123.771 351.102C122.879 349.213 121.074 347.412 118.643 346.998C117.163 346.747 115.465 347.305 114.492 348.661Z" fill="white" fill-opacity="0.75"/>
<path d="M200.606 237.813C200.487 237.616 200.316 237.456 200.087 237.359C199.691 236.934 199.032 236.835 198.399 237.02C198.43 236.929 198.461 236.838 198.494 236.747C198.565 236.552 198.64 236.357 198.725 236.163C198.76 236.084 198.797 236.003 198.839 235.923C198.855 235.89 198.862 235.877 198.861 235.874C198.87 235.865 198.887 235.842 198.933 235.775C198.934 235.773 198.982 235.709 199.01 235.668C199.059 235.617 199.129 235.544 199.149 235.529C199.18 235.506 199.152 235.484 199.26 235.461C199.477 235.416 199.764 235.428 200.021 235.579C200.709 235.988 200.687 236.995 200.606 237.813ZM197.309 247.58C197.307 247.584 197.271 247.63 197.242 247.669C197.151 247.638 197.041 247.598 196.909 247.545C197.05 247.383 197.17 247.209 197.227 247.01C197.471 246.177 197.766 245.348 198.043 244.519C198.18 244.799 198.303 245.087 198.472 245.35C198.233 245.879 197.984 246.406 197.706 246.926C197.586 247.151 197.452 247.36 197.309 247.58ZM190.728 239.526C191.899 239.813 192.992 240.323 193.914 240.945C194.401 241.275 195.193 241.369 195.866 241.034C195.551 241.852 195.249 242.671 194.967 243.493C194.249 242.737 193.514 241.996 192.722 241.319C191.915 240.629 190.926 240.152 189.801 240.113C189.799 240.107 189.795 240.103 189.794 240.097C189.584 239.287 190.014 239.351 190.728 239.526ZM198.953 232.533C197.256 233.005 196.078 234.329 195.454 235.731C195.197 236.306 195.033 236.891 194.821 237.472C193.848 236.991 192.799 236.602 191.657 236.406C189.593 236.052 187.218 237.187 186.488 239.246C186.156 240.186 186.24 241.005 186.531 241.748C186.426 242.118 186.445 242.499 186.569 242.805C187.672 245.512 189.704 247.698 192.346 249.244C193.52 249.93 195.057 250.798 196.647 250.784C198.815 250.764 200.121 248.982 200.975 247.359C202.572 244.325 203.614 241.122 204.029 238.017C204.247 236.379 204.209 234.696 203.143 233.524C202.243 232.533 200.609 232.073 198.953 232.533Z" fill="white" fill-opacity="0.75"/>
<path d="M215.477 308.073C215.485 308.075 215.48 308.084 215.485 308.09C215.448 308.055 215.436 308.042 215.477 308.073ZM218.257 308.855C218.059 308.977 217.862 309.108 217.667 309.252C217.361 309.137 217.069 309.005 216.779 308.869C217.262 308.85 217.744 308.839 218.218 308.852C218.232 308.853 218.244 308.853 218.257 308.855ZM230.699 309.742C230.432 309.766 230.006 309.867 229.89 309.878C229.502 309.919 229.119 309.911 228.732 309.941C228.854 309.609 228.85 309.255 228.641 308.911C228.222 308.221 227.805 307.531 227.387 306.84C227.965 307.446 228.491 308.086 228.915 308.81C229.288 309.309 229.971 309.525 230.707 309.315C230.701 309.465 230.698 309.615 230.699 309.742ZM229.712 299.615C229.616 299.526 229.531 299.429 229.432 299.342C228.298 298.369 226.669 297.638 224.765 298.396C223.086 299.062 221.67 300.507 221.188 302.023C221.047 302.466 220.979 302.894 220.958 303.308C220.615 304.136 220.433 304.998 220.36 305.858C219.743 305.819 219.123 305.792 218.493 305.787C217.176 305.779 215.597 305.709 214.242 306.208C212.507 306.849 211.602 308.512 212.217 309.787C212.689 310.764 213.866 311.333 214.899 311.798C219.112 313.694 224.546 313.401 229.635 313.065C229.961 313.043 230.244 312.955 230.488 312.828C230.819 312.767 231.149 312.7 231.465 312.604C233.549 311.969 234.25 310.336 234.234 308.751C234.2 305.855 233.488 302.869 231.543 300.82C231.063 300.314 230.427 299.91 229.712 299.615Z" fill="white" fill-opacity="0.75"/>
<path d="M274.882 235.594C274.879 235.554 274.889 235.512 274.886 235.472C274.828 234.642 273.955 234.388 273.098 234.588C273.051 234.309 273.006 234.031 272.936 233.76C272.882 233.548 272.773 233.38 272.643 233.237C272.817 233.137 272.983 233.02 273.172 232.946C273.984 232.627 275.147 232.644 275.527 233.255C275.916 233.884 275.361 234.856 274.882 235.594ZM268.255 244.622C268.034 244.252 267.638 243.72 267.586 243.623C267.355 243.18 267.169 242.713 266.985 242.245C267.019 242.18 267.07 242.132 267.099 242.06C267.712 240.575 268.6 239.19 269.678 237.898C269.645 238.3 269.585 238.699 269.499 239.105C268.937 240.245 268.475 241.406 268.145 242.574C267.956 243.239 268.103 243.842 268.679 244.133C268.676 244.138 268.672 244.144 268.667 244.148C268.57 244.273 268.401 244.452 268.255 244.622ZM264.989 233.042C265.378 234.374 266.018 235.535 266.941 236.565C266.854 236.67 266.759 236.77 266.675 236.875C266.42 236.147 266.059 235.456 265.522 234.824C265.356 234.629 265.118 234.54 264.855 234.507C264.87 234.284 264.859 234.066 264.881 233.843C264.907 233.58 264.939 233.31 264.989 233.042ZM264.777 232.321C264.774 232.324 264.777 232.334 264.776 232.338C264.417 232.362 264.838 232.194 264.777 232.321ZM271.112 230.809C270.207 231.355 269.451 232.023 268.793 232.757C268.682 232.519 268.546 232.292 268.469 232.04C268.182 231.111 268.069 230.121 267.103 229.609C265.145 228.573 262.46 230.372 261.754 232.377C261.058 234.358 261.219 236.563 261.382 238.434C261.565 240.551 262.102 242.543 262.876 244.442C263.056 244.884 263.593 245.072 264.166 245.043C264.717 246.198 265.396 247.814 267.016 248C268.836 248.209 270.349 246.832 271.406 245.477C273.639 242.618 275.944 239.663 277.808 236.651C278.654 235.288 279.317 233.83 279.098 232.443C278.878 231.044 277.726 230.131 276.237 229.798C274.646 229.441 272.708 229.846 271.112 230.809Z" fill="white" fill-opacity="0.75"/>
<path d="M302.642 177.383C302.569 177.524 302.513 177.665 302.485 177.812C302.109 177.648 301.746 177.471 301.379 177.298C301.788 177.326 302.121 177.359 302.29 177.366C302.408 177.371 302.525 177.376 302.642 177.383ZM313.73 167.881C312.533 166.529 310.687 165.22 308.262 166C305.671 166.834 304.344 169.611 304.333 171.625C304.328 172.612 304.554 173.519 304.89 174.38C304.244 174.348 303.595 174.319 302.948 174.288C300.497 174.171 297.134 174.034 295.307 176.51C294.419 177.717 294.385 179.135 295 180.154C295.652 181.229 296.913 181.772 298.2 182.19C300.998 183.099 303.926 183.8 306.944 184.294C307.796 184.434 308.491 184 308.895 183.423C309.017 183.451 309.132 183.487 309.254 183.516C309.761 183.631 310.258 183.472 310.667 183.184C310.756 183.172 310.849 183.168 310.938 183.155C311.672 183.044 312.268 182.808 312.757 182.492C314.181 182.092 315.487 181.365 316.206 180.022C316.816 178.884 316.602 177.762 316.342 176.739C316.327 176.68 316.302 176.624 316.287 176.565C316.67 173.285 315.807 170.233 313.73 167.881Z" fill="white" fill-opacity="0.75"/>
<path d="M326.336 251.304C325.975 251.362 325.614 251.433 325.25 251.522C325.216 251.449 325.174 251.368 325.15 251.301C325.13 251.248 325.111 251.176 325.092 251.098C325.207 251.102 325.323 251.102 325.385 251.111C325.711 251.158 326.022 251.234 326.336 251.304ZM332.099 255.733C331.749 255.581 331.395 255.429 331.057 255.259C330.564 255.009 330.095 254.732 329.644 254.439C330.587 254.702 331.431 255.133 332.099 255.733ZM333.793 246.603C333.81 246.622 333.821 246.643 333.836 246.662C333.817 246.67 333.799 246.677 333.781 246.685C333.787 246.657 333.788 246.631 333.793 246.603ZM333.986 243.074C331.833 243.23 330.628 245.204 330.324 246.826C330.19 247.538 330.138 248.258 330.092 248.974C328.783 248.426 327.355 248.044 325.847 247.983C324.229 247.916 322.429 248.666 321.77 250.238C321.268 251.44 321.646 252.554 322.129 253.507C324.173 257.539 328.602 260.229 333.854 260.746C334.584 260.818 335.214 260.511 335.638 260.067C336.261 260.068 336.909 259.956 337.509 259.61C338.499 259.038 338.855 258.165 339.077 257.285C339.789 254.456 339.756 251.58 339.026 249.041C338.645 247.719 338.11 246.453 337.377 245.305C336.668 244.194 335.762 242.944 333.986 243.074Z" fill="white" fill-opacity="0.75"/>
<path d="M384.031 181.913C384.057 181.961 384.069 182 384.089 182.042C383.889 182.102 383.701 182.145 383.49 182.167C383.126 182.206 382.763 182.224 382.4 182.241C382.295 181.729 382.192 181.216 382.094 180.701C382.446 180.941 382.973 181.021 383.457 180.926C383.655 181.25 383.849 181.579 384.031 181.913ZM378.782 170.398C376.894 171.358 375.837 173.218 375.825 174.878C375.817 175.761 376.02 176.547 376.298 177.337C376.307 177.362 376.317 177.39 376.326 177.414C375.199 176.76 373.98 176.201 372.651 175.928C370.544 175.495 367.333 176.818 367.028 179.158C366.867 180.386 367.639 181.179 368.402 181.956C369.074 182.64 369.772 183.312 370.605 183.849C371.419 184.372 372.298 184.698 373.228 184.924C374.682 185.618 376.356 186.046 378.113 186.32C379.665 186.563 381.441 186.931 383.132 186.69C385.366 186.373 386.888 184.921 387.387 183.013C387.414 182.908 387.413 182.805 387.436 182.7C387.646 182.235 387.709 181.783 387.656 181.345C387.958 178.799 387.49 176.313 386.364 174.251C385.186 172.094 382.474 168.52 378.782 170.398Z" fill="white" fill-opacity="0.75"/>
<path d="M419.99 109.554C419.987 109.554 419.985 109.553 419.983 109.553C419.939 109.523 419.844 109.479 419.966 109.553C419.867 109.549 419.89 109.396 419.99 109.554ZM417.872 108.543C416.966 110.514 416.614 112.732 416.597 114.674C416.594 115.027 416.623 115.369 416.642 115.714C416.288 115.306 415.923 114.906 415.539 114.521C414.061 113.051 412.189 111.186 409.636 111.047C408.245 110.969 406.78 111.429 405.764 112.574C404.852 113.6 404.639 114.848 404.929 115.891C404.956 115.99 405.011 116.08 405.042 116.177C405.064 116.396 405.145 116.606 405.295 116.806C405.97 118.323 407.164 119.64 408.579 120.569C409.687 121.299 410.918 121.831 412.251 122.184C414.094 123.147 416.368 123.833 418.785 122.44C419.094 122.262 419.308 122.026 419.478 121.776C419.733 121.747 419.985 121.678 420.225 121.558C421.025 121.478 421.823 121.063 422.137 120.283C423.732 116.31 425.245 111.972 423.64 108.436C423.237 107.545 422.543 106.736 421.4 106.531C419.937 106.27 418.479 107.22 417.872 108.543Z" fill="white" fill-opacity="0.75"/>
<path d="M447.317 182.218C447.327 182.219 447.057 182.155 447.008 182.145C446.871 182.107 446.734 182.067 446.6 182.024C446.545 182.007 446.496 181.979 446.44 181.961C447.029 182.069 447.599 182.213 448.159 182.376C447.877 182.33 447.594 182.281 447.317 182.218ZM451.268 182.442C451.266 182.443 451.253 182.451 451.248 182.454C451.243 182.457 451.235 182.46 451.228 182.462C451.349 182.385 451.339 182.399 451.268 182.442ZM456.837 169.411C455.635 169.272 454.231 169.986 453.475 170.987C453.258 171.275 453.095 171.579 452.96 171.885C452.649 172.509 452.453 173.194 452.305 173.835C451.987 175.211 451.84 176.571 451.842 177.899C451.759 178.425 451.696 178.948 451.65 179.47C449.594 178.251 446.915 177.723 444.142 178C443.13 178.102 441.946 178.313 440.849 178.696C440.756 178.706 440.665 178.703 440.572 178.714C439.963 178.785 439.372 179.136 439.009 179.62C438.192 180.213 437.548 180.968 437.446 181.841C437.332 182.816 437.977 183.399 438.783 183.784C438.903 184.24 439.291 184.573 439.844 184.71C443.1 185.507 445.626 187.381 449.296 187.42C450.346 187.429 451.383 187.253 452.378 186.946C453.013 187.964 454.855 187.588 455.575 186.246C455.849 185.737 456.093 185.226 456.32 184.713C457.105 184.008 457.798 183.196 458.336 182.269C460.234 179 460.027 175.531 459.454 172.463C459.298 171.625 458.916 170.848 458.29 170.332C458.036 169.852 457.595 169.498 456.837 169.411Z" fill="white" fill-opacity="0.75"/>
<path d="M476.778 111.125C476.7 111.055 476.62 110.987 476.551 110.91C476.628 110.903 476.706 110.9 476.783 110.893C476.779 110.971 476.773 111.049 476.778 111.125ZM479.631 111.319C479.591 111.352 479.547 111.37 479.5 111.345C479.497 111.343 479.564 111.33 479.631 111.319ZM483.358 112.279C482.853 112.091 482.325 111.85 481.896 111.591C481.894 111.591 481.892 111.587 481.89 111.587C482.23 111.701 482.563 111.844 482.933 112.03C483.077 112.101 483.215 112.197 483.358 112.279ZM487.552 103.33C487.422 103.223 487.285 103.12 487.144 103.018C487.151 103.018 487.182 103.014 487.203 103.011C487.213 103.013 487.239 103.015 487.262 103.019C487.347 103.083 487.426 103.15 487.496 103.226C487.515 103.248 487.533 103.3 487.552 103.33ZM484.28 101.462C483.662 102.004 483.237 102.619 482.936 103.258C482.421 103.773 482.097 104.426 482.035 105.083C481.935 106.126 482.339 107.098 482.582 108.042C482.584 108.054 482.588 108.067 482.591 108.078C482.01 107.969 481.422 107.877 480.82 107.826C479.837 107.741 478.818 107.728 477.797 107.782C476.84 107.833 475.742 107.887 474.783 108.256C473.379 108.794 472.511 109.975 472.649 111.174C472.759 112.13 473.38 112.983 474.095 113.589C475.539 114.813 477.64 115.354 479.624 115.857C481.797 116.409 484.074 116.756 486.419 116.919C487.279 116.978 488.217 116.508 488.614 115.721C490.206 115.356 491.428 114.498 491.529 112.785C491.533 112.724 491.527 112.665 491.531 112.604C491.985 110.688 492.191 108.819 492.093 106.956C492.041 105.955 491.896 104.976 491.658 104.035C491.417 103.074 491.155 102.012 490.571 101.221C489.261 99.4481 486.381 99.618 484.28 101.462Z" fill="white" fill-opacity="0.75"/>
<path d="M500.483 47.2688C500.662 47.4294 500.838 47.66 500.931 47.9095C500.933 47.9134 500.934 47.919 500.935 47.9242C500.801 47.7444 500.685 47.5564 500.541 47.3834C500.52 47.3588 500.489 47.3469 500.465 47.3251C500.472 47.3064 500.477 47.2875 500.483 47.2688ZM492.478 56.9145C493.449 57.5188 494.47 58.0628 495.572 58.5065C496.573 58.9089 497.732 59.3998 498.91 59.4691C500.162 59.5434 501.363 58.9455 502.121 57.9944C502.624 57.8119 503.084 57.4616 503.318 56.8751C504.125 54.8436 504.627 52.759 504.721 50.7434C504.819 48.6746 504.813 46.0869 503.16 44.7681C502.428 44.1825 501.386 43.8375 500.255 43.9469C499.522 44.0165 498.716 44.2518 498.188 44.8358C497.751 45.3194 497.535 45.9847 497.315 46.538C496.842 47.7298 496.513 48.9444 496.308 50.1491C495.865 49.7616 495.405 49.388 494.915 49.0418C493.495 48.0369 491.601 46.8764 489.358 48.1719C487.376 49.3179 486.92 51.5535 487.599 53.0221C488 53.8898 488.813 54.3804 489.728 54.7652C490.555 55.559 491.465 56.2831 492.478 56.9145Z" fill="white" fill-opacity="0.75"/>
<path d="M535.47 119.576C535.466 119.576 535.461 119.575 535.456 119.574C535.454 119.575 535.452 119.576 535.45 119.577C535.453 119.577 535.463 119.577 535.465 119.579L535.47 119.576Z" fill="white" fill-opacity="0.75"/>
<path d="M535.367 119.614C535.366 119.616 535.365 119.618 535.365 119.62C535.388 119.606 535.417 119.593 535.449 119.578C535.447 119.577 535.442 119.577 535.441 119.576C535.443 119.576 535.446 119.574 535.448 119.573C535.451 119.574 535.451 119.575 535.455 119.575C535.459 119.572 535.461 119.571 535.466 119.568C535.477 119.566 535.486 119.566 535.467 119.577C535.495 119.58 535.501 119.583 535.463 119.579C535.448 119.587 535.401 119.607 535.363 119.624C535.34 119.668 535.325 119.696 535.34 119.635C535.324 119.64 535.325 119.641 535.307 119.648C535.314 119.646 535.332 119.636 535.346 119.629C535.349 119.624 535.36 119.618 535.367 119.614ZM535.387 119.57C535.386 119.571 535.386 119.571 535.386 119.571C535.381 119.57 535.379 119.57 535.373 119.57C535.377 119.571 535.381 119.57 535.387 119.57ZM535.642 119.537C535.642 119.537 535.577 119.544 535.509 119.551C535.57 119.526 535.626 119.51 535.642 119.537ZM541.194 116.744C541.229 116.773 541.267 116.802 541.294 116.832C541.425 116.968 541.375 116.91 541.52 117.104C541.634 117.257 541.74 117.415 541.84 117.575C541.846 117.585 541.849 117.595 541.856 117.606C541.484 117.424 541.044 117.335 540.574 117.338C540.601 117.313 540.62 117.283 540.646 117.258C540.824 117.083 541.006 116.911 541.194 116.744ZM540.644 119.938C540.652 119.906 540.661 119.894 540.672 119.916C540.663 119.923 540.651 119.928 540.644 119.938ZM538.161 115.642C537.021 116.833 536.256 118.027 535.49 119.371C535.495 119.359 535.358 119.643 535.411 119.51C535.408 119.518 535.398 119.539 535.389 119.564C535.367 119.567 535.36 119.568 535.356 119.567C535.345 119.566 535.344 119.566 535.331 119.566C535.071 119.536 534.812 119.503 534.554 119.466C533.387 119.288 532.157 119.231 530.922 119.872C529.429 120.647 528.468 122.196 528.39 123.546C528.299 125.093 529.244 126.2 530.572 126.895C531.779 127.527 533.319 127.825 534.781 128.023C534.928 128.042 535.084 128.042 535.231 128.06C536.23 128.401 537.285 128.654 538.399 128.769C539.857 128.92 541.569 129.048 542.963 127.956C544.041 127.11 544.736 125.799 545.237 124.695C546.19 122.591 546.465 120.338 546.062 118.368C545.855 117.352 545.474 116.366 544.909 115.521C544.338 114.667 543.564 113.606 542.319 113.437C540.718 113.217 539.244 114.514 538.161 115.642Z" fill="white" fill-opacity="0.75"/>
<path d="M535.34 119.634C535.352 119.629 535.355 119.627 535.366 119.623C535.367 119.621 535.367 119.619 535.368 119.618C535.359 119.622 535.354 119.625 535.346 119.629C535.345 119.63 535.341 119.632 535.341 119.632C535.34 119.634 535.34 119.632 535.34 119.634Z" fill="white" fill-opacity="0.75"/>
</svg>
