<svg width="626" height="796" viewBox="0 0 626 796" fill="none" xmlns="http://www.w3.org/2000/svg">
<mask id="path-1-inside-1_110_3" fill="white">
<path d="M312.077 98.4094C312.53 94.0183 315.554 90.2823 319 87.4793C322.446 84.6763 326.404 82.5382 329.785 79.6613C331.986 77.7875 333.926 75.6123 336.272 73.9232C339.622 71.5109 343.635 70.1969 347.611 69.05C360.222 65.4092 373.511 63.0553 386.493 65.0419C399.476 67.0265 412.179 73.8921 418.702 85.1817C419.802 87.0847 420.718 89.0908 421.904 90.9413C427.274 99.3133 437.663 103.776 442.314 112.562C444.957 117.552 445.417 123.354 445.827 128.974C446.664 140.435 447.178 153.038 440.147 162.182C438.774 163.967 437.151 165.557 435.872 167.409C429.721 176.321 432.503 189.685 425.03 197.546C421.472 201.29 416.254 202.961 411.19 204.093C394.137 207.903 376.062 207.125 359.406 201.865C360.491 204.905 360.994 206.795 363.975 208.095C370.766 211.057 377.558 214.02 384.351 216.982C388.91 218.971 393.829 221.29 396.004 225.727C396.912 227.578 397.249 229.64 397.632 231.66C398.388 235.649 399.384 239.653 401.376 243.198C403.055 246.182 405.427 248.814 406.572 252.037C407.75 255.349 407.52 258.967 407.277 262.468C406.935 267.391 406.591 272.315 406.25 277.241C405.378 289.78 403.937 303.573 394.712 312.21C391.377 315.334 387.267 317.505 383.211 319.639C378.269 322.238 373.327 324.837 368.384 327.438C366.763 328.291 365.139 329.144 363.446 329.85C361.238 330.769 358.93 331.43 356.614 332.039C346.093 334.803 334.904 336.519 324.38 333.774C318.629 332.276 313.314 329.504 308.055 326.755C316.07 332.221 322.116 341.042 324.012 350.491C325.067 355.742 323.814 361.149 322.491 366.337C319.294 378.855 314.564 392.602 302.954 398.484C297.37 401.314 290.585 402.045 285.988 406.271C284.15 407.958 282.721 410.165 280.492 411.296C277.223 412.954 273.255 411.844 269.627 412.404C266.279 412.921 263.349 414.836 260.232 416.148C251.388 419.87 241.047 418.61 232.211 414.871C223.376 411.131 215.744 405.126 208.247 399.172C205.149 396.713 202.003 394.194 199.816 390.913C197.692 387.721 196.594 383.985 195.524 380.313C192.726 370.699 189.908 360.972 189.506 350.975C189.103 340.978 191.35 330.528 197.719 322.761C200.061 319.905 202.891 317.485 205.767 315.157C211.002 310.921 216.574 306.87 223 304.79C225.074 304.12 227.23 303.657 229.187 302.705C231.536 301.564 233.489 299.775 235.631 298.29C242.637 293.433 251.687 291.922 260.139 293.215C268.592 294.507 276.475 298.432 283.294 303.544C279.228 295.293 278.81 284.598 277.993 275.452C277.53 270.251 277.064 265.049 276.601 259.847C275.627 248.921 274.859 237.089 280.803 227.833C282.513 225.168 284.712 222.849 286.897 220.547C291.242 215.97 295.625 211.361 300.791 207.712C310.023 201.189 321.623 198.024 332.926 198.944C323.449 189.038 313.414 181.978 303.936 172.072C300.351 168.325 296.716 164.511 294.311 159.931C291.906 155.352 290.846 149.821 292.666 144.983C293.903 141.696 296.33 139.014 298.275 136.083C305.752 124.812 310.69 111.83 312.077 98.4094Z"/>
</mask>
<path d="M312.077 98.4094C312.53 94.0183 315.554 90.2823 319 87.4793C322.446 84.6763 326.404 82.5382 329.785 79.6613C331.986 77.7875 333.926 75.6123 336.272 73.9232C339.622 71.5109 343.635 70.1969 347.611 69.05C360.222 65.4092 373.511 63.0553 386.493 65.0419C399.476 67.0265 412.179 73.8921 418.702 85.1817C419.802 87.0847 420.718 89.0908 421.904 90.9413C427.274 99.3133 437.663 103.776 442.314 112.562C444.957 117.552 445.417 123.354 445.827 128.974C446.664 140.435 447.178 153.038 440.147 162.182C438.774 163.967 437.151 165.557 435.872 167.409C429.721 176.321 432.503 189.685 425.03 197.546C421.472 201.29 416.254 202.961 411.19 204.093C394.137 207.903 376.062 207.125 359.406 201.865C360.491 204.905 360.994 206.795 363.975 208.095C370.766 211.057 377.558 214.02 384.351 216.982C388.91 218.971 393.829 221.29 396.004 225.727C396.912 227.578 397.249 229.64 397.632 231.66C398.388 235.649 399.384 239.653 401.376 243.198C403.055 246.182 405.427 248.814 406.572 252.037C407.75 255.349 407.52 258.967 407.277 262.468C406.935 267.391 406.591 272.315 406.25 277.241C405.378 289.78 403.937 303.573 394.712 312.21C391.377 315.334 387.267 317.505 383.211 319.639C378.269 322.238 373.327 324.837 368.384 327.438C366.763 328.291 365.139 329.144 363.446 329.85C361.238 330.769 358.93 331.43 356.614 332.039C346.093 334.803 334.904 336.519 324.38 333.774C318.629 332.276 313.314 329.504 308.055 326.755C316.07 332.221 322.116 341.042 324.012 350.491C325.067 355.742 323.814 361.149 322.491 366.337C319.294 378.855 314.564 392.602 302.954 398.484C297.37 401.314 290.585 402.045 285.988 406.271C284.15 407.958 282.721 410.165 280.492 411.296C277.223 412.954 273.255 411.844 269.627 412.404C266.279 412.921 263.349 414.836 260.232 416.148C251.388 419.87 241.047 418.61 232.211 414.871C223.376 411.131 215.744 405.126 208.247 399.172C205.149 396.713 202.003 394.194 199.816 390.913C197.692 387.721 196.594 383.985 195.524 380.313C192.726 370.699 189.908 360.972 189.506 350.975C189.103 340.978 191.35 330.528 197.719 322.761C200.061 319.905 202.891 317.485 205.767 315.157C211.002 310.921 216.574 306.87 223 304.79C225.074 304.12 227.23 303.657 229.187 302.705C231.536 301.564 233.489 299.775 235.631 298.29C242.637 293.433 251.687 291.922 260.139 293.215C268.592 294.507 276.475 298.432 283.294 303.544C279.228 295.293 278.81 284.598 277.993 275.452C277.53 270.251 277.064 265.049 276.601 259.847C275.627 248.921 274.859 237.089 280.803 227.833C282.513 225.168 284.712 222.849 286.897 220.547C291.242 215.97 295.625 211.361 300.791 207.712C310.023 201.189 321.623 198.024 332.926 198.944C323.449 189.038 313.414 181.978 303.936 172.072C300.351 168.325 296.716 164.511 294.311 159.931C291.906 155.352 290.846 149.821 292.666 144.983C293.903 141.696 296.33 139.014 298.275 136.083C305.752 124.812 310.69 111.83 312.077 98.4094Z" fill="#EC7865" stroke="white" stroke-width="6" mask="url(#path-1-inside-1_110_3)"/>
<mask id="path-2-inside-2_110_3" fill="white">
<path d="M308.238 67.736C304.231 60.676 297.949 54.8193 295.421 47.116C290.938 33.4646 299.344 17.5214 293.004 4.61055C300.043 13.0117 309.092 19.5118 316.86 27.2599C324.627 35.008 331.358 44.7193 331.792 55.626C332.092 63.1622 329.294 70.6109 324.927 76.7903C322.779 79.8285 320.274 82.5984 318.122 85.6327C316.905 87.3491 314.49 94.135 312.899 91.3281C311.702 89.2171 313.046 82.3302 312.526 79.5369C311.757 75.4102 310.317 71.4001 308.238 67.736Z"/>
</mask>
<path d="M308.238 67.736C304.231 60.676 297.949 54.8193 295.421 47.116C290.938 33.4646 299.344 17.5214 293.004 4.61055C300.043 13.0117 309.092 19.5118 316.86 27.2599C324.627 35.008 331.358 44.7193 331.792 55.626C332.092 63.1622 329.294 70.6109 324.927 76.7903C322.779 79.8285 320.274 82.5984 318.122 85.6327C316.905 87.3491 314.49 94.135 312.899 91.3281C311.702 89.2171 313.046 82.3302 312.526 79.5369C311.757 75.4102 310.317 71.4001 308.238 67.736Z" fill="#B9CAB5" stroke="white" stroke-width="6" mask="url(#path-2-inside-2_110_3)"/>
<mask id="path-3-inside-3_110_3" fill="white">
<path d="M274.575 245.549C273.909 242.316 273.237 239.062 272.012 235.995C270.606 232.472 268.494 229.255 266.065 226.33C260.722 219.898 253.89 214.86 246.966 210.132C243.375 207.681 239.625 205.177 237.371 201.48C238.738 205.943 239.59 210.562 239.906 215.215C240.181 219.266 240.057 223.372 240.958 227.333C242.786 235.363 248.571 241.847 254.149 247.953C257.657 251.792 261.166 255.631 264.673 259.472C261.233 257.987 257.703 256.706 254.107 255.643C247.355 253.646 239.731 252.498 233.515 255.787C229.476 257.923 226.588 261.653 223.128 264.623C215.975 270.766 205.779 274.292 202.027 282.901C215.855 285.859 230.155 288.421 244.072 285.904C256.045 283.739 266.909 277.966 277.355 272.031C280.058 270.495 282.438 270.002 281.859 266.668C281.513 264.672 280.18 263.002 279.157 261.323C276.247 256.539 275.69 250.96 274.575 245.549Z"/>
</mask>
<path d="M274.575 245.549C273.909 242.316 273.237 239.062 272.012 235.995C270.606 232.472 268.494 229.255 266.065 226.33C260.722 219.898 253.89 214.86 246.966 210.132C243.375 207.681 239.625 205.177 237.371 201.48C238.738 205.943 239.59 210.562 239.906 215.215C240.181 219.266 240.057 223.372 240.958 227.333C242.786 235.363 248.571 241.847 254.149 247.953C257.657 251.792 261.166 255.631 264.673 259.472C261.233 257.987 257.703 256.706 254.107 255.643C247.355 253.646 239.731 252.498 233.515 255.787C229.476 257.923 226.588 261.653 223.128 264.623C215.975 270.766 205.779 274.292 202.027 282.901C215.855 285.859 230.155 288.421 244.072 285.904C256.045 283.739 266.909 277.966 277.355 272.031C280.058 270.495 282.438 270.002 281.859 266.668C281.513 264.672 280.18 263.002 279.157 261.323C276.247 256.539 275.69 250.96 274.575 245.549Z" fill="#B9CAB5" stroke="white" stroke-width="6" mask="url(#path-3-inside-3_110_3)"/>
<mask id="path-4-inside-4_110_3" fill="white">
<path d="M219.403 427.212C220.823 430.024 222.682 432.6 224.149 435.389C227.638 442.031 228.767 449.746 228.072 457.201C227.377 464.655 224.921 471.873 221.595 478.598C222.205 472.273 218.182 466.43 213.69 461.893C209.197 457.355 203.943 453.331 200.967 447.702C198.157 442.391 197.676 436.103 198.583 430.176C199.49 424.249 201.703 418.601 204.057 413.078C205.278 410.215 206.568 407.099 205.785 404.088C203.823 409.377 201.479 415.117 196.464 417.78C194.132 419.019 191.463 419.44 188.884 420.018C182.443 421.462 176.298 423.979 169.895 425.579C163.494 427.179 156.577 427.82 150.394 425.525C145.752 423.8 141.874 420.558 138.097 417.378C134.478 414.33 130.859 411.282 127.241 408.232C128.937 410.046 131.637 410.66 134.123 410.415C136.607 410.17 138.945 409.181 141.238 408.201C148.148 405.254 155.057 402.306 161.967 399.359C173.924 394.258 186.645 389.21 199.779 392.919C207.988 395.236 210.293 400.706 212.806 408.197C214.921 414.489 216.403 421.264 219.403 427.212Z"/>
</mask>
<path d="M219.403 427.212C220.823 430.024 222.682 432.6 224.149 435.389C227.638 442.031 228.767 449.746 228.072 457.201C227.377 464.655 224.921 471.873 221.595 478.598C222.205 472.273 218.182 466.43 213.69 461.893C209.197 457.355 203.943 453.331 200.967 447.702C198.157 442.391 197.676 436.103 198.583 430.176C199.49 424.249 201.703 418.601 204.057 413.078C205.278 410.215 206.568 407.099 205.785 404.088C203.823 409.377 201.479 415.117 196.464 417.78C194.132 419.019 191.463 419.44 188.884 420.018C182.443 421.462 176.298 423.979 169.895 425.579C163.494 427.179 156.577 427.82 150.394 425.525C145.752 423.8 141.874 420.558 138.097 417.378C134.478 414.33 130.859 411.282 127.241 408.232C128.937 410.046 131.637 410.66 134.123 410.415C136.607 410.17 138.945 409.181 141.238 408.201C148.148 405.254 155.057 402.306 161.967 399.359C173.924 394.258 186.645 389.21 199.779 392.919C207.988 395.236 210.293 400.706 212.806 408.197C214.921 414.489 216.403 421.264 219.403 427.212Z" fill="#B9CAB5" stroke="white" stroke-width="6" mask="url(#path-4-inside-4_110_3)"/>
<mask id="path-5-inside-5_110_3" fill="white">
<path d="M535.192 392.326C541.133 387.906 546.401 382.597 550.76 376.636C554.043 372.143 556.81 367.292 560.238 362.906C563.664 358.521 567.887 354.536 573.12 352.559C575.761 351.562 579.25 351.335 580.931 353.584C581.527 354.383 581.787 355.372 582.009 356.34C582.778 359.682 583.271 363.155 582.682 366.532C582.093 369.908 580.294 373.205 577.332 374.977C581.042 376.058 584.614 378.758 587.363 381.452C590.112 384.146 591.785 388.147 590.891 391.873C589.627 397.135 583.976 400.094 578.692 401.47C567.909 404.279 556.537 403.313 545.431 402.327C543.511 402.156 541.54 401.973 539.81 401.128C536.502 399.514 534.112 395.815 535.192 392.326Z"/>
</mask>
<path d="M535.192 392.326C541.133 387.906 546.401 382.597 550.76 376.636C554.043 372.143 556.81 367.292 560.238 362.906C563.664 358.521 567.887 354.536 573.12 352.559C575.761 351.562 579.25 351.335 580.931 353.584C581.527 354.383 581.787 355.372 582.009 356.34C582.778 359.682 583.271 363.155 582.682 366.532C582.093 369.908 580.294 373.205 577.332 374.977C581.042 376.058 584.614 378.758 587.363 381.452C590.112 384.146 591.785 388.147 590.891 391.873C589.627 397.135 583.976 400.094 578.692 401.47C567.909 404.279 556.537 403.313 545.431 402.327C543.511 402.156 541.54 401.973 539.81 401.128C536.502 399.514 534.112 395.815 535.192 392.326Z" fill="#E0A298" stroke="white" stroke-width="6" mask="url(#path-5-inside-5_110_3)"/>
<path d="M310.121 120.153C310.902 117.367 310.482 114.39 310.971 111.54C312.273 103.963 319.471 98.9595 326.223 95.1691C332.171 91.8296 338.259 88.7409 344.472 85.9146C347.197 84.6744 349.991 83.4712 352.966 83.0883C355.828 82.7189 358.738 83.1252 361.556 83.7511C373.705 86.4491 384.685 93.2019 393.666 101.741C402.647 110.28 409.758 120.567 416 131.235C415.914 111.328 404.123 92.8443 389.301 79.3931C385.773 76.1916 381.919 73.1126 377.322 71.7869C373.515 70.6886 369.462 70.8733 365.508 71.1591C357.794 71.7169 349.797 72.7297 343.282 76.8564C338.674 79.774 335.135 84.0524 330.949 87.5377C326.143 91.54 320.531 94.4596 314.969 97.3461C317.166 88.1189 324.014 81.2922 331.64 75.5599C344.758 65.6969 360.696 58.9946 377.167 58.7439C393.638 58.4951 410.536 65.2518 420.603 78.1607C423.601 82.0075 425.973 86.3228 429.183 89.9985C433.866 95.3596 440.259 99.2841 443.919 105.376C447.785 111.812 448.024 119.686 448.158 127.176C448.301 135.227 448.407 143.508 445.519 151.036C442.782 158.174 437.463 164.307 435.88 171.781C435.197 175.005 435.24 178.384 434.188 181.511C432.319 187.065 427.29 190.989 422.079 193.757C414.247 197.919 405.415 200.223 396.529 200.425C389.977 200.574 383.456 199.601 376.975 198.629C371.63 197.828 366.286 197.027 360.941 196.226C369.013 192.644 376.91 193.213 385.357 190.616C390.54 189.024 395.17 185.928 399.022 182.145C400.687 180.51 402.27 178.707 404.365 177.663C407.675 176.012 411.779 176.5 415.03 174.743C418.407 172.916 420.1 169.125 421.559 165.599C425.156 156.907 428.755 148.214 432.352 139.523C434.207 135.043 436.094 130.374 435.821 125.537C435.511 120.069 432.493 115.181 430.094 110.243C426.265 102.367 423.744 93.6587 417.977 87.0381C412.523 80.7732 404.744 77.0585 397.196 73.513C392.025 71.0832 385.883 68.6554 380.829 71.3165C375.272 68.7312 374.304 66.976 368.169 67.1528C364.952 67.2461 361.709 67.458 358.624 68.3619C355.779 69.1938 353.14 70.5915 350.525 71.9813C346.887 73.9134 343.233 75.8534 339.922 78.2948C336.769 80.6196 333.955 83.3759 330.751 85.6347C326.62 88.5465 321.927 90.5642 317.274 92.5624C319.273 86.3364 320.17 81.5507 323.792 76.0905C326.881 71.4351 330.543 67.0906 332.771 61.9784C335.944 54.7008 335.923 46.251 333.402 38.7284C330.879 31.2058 325.972 24.5872 319.952 19.3622C313.107 13.4219 304.737 9.0891 299.114 2C301.058 7.28135 301.162 13.3033 300.863 18.9151C300.516 25.4794 298.615 32.0708 299.813 38.536C301.307 46.595 307.298 52.9766 311.354 60.1182C317.325 70.6303 319.125 83.3954 316.29 95.1263C319.436 84.6686 322.609 74.0106 322.444 63.1C322.259 50.92 317.741 38.847 309.868 29.4875" stroke="white" stroke-width="3" stroke-miterlimit="10" stroke-linecap="round" stroke-linejoin="round"/>
<path d="M353.853 134.984C358.618 132.58 364.564 132.621 369.295 135.089C374.027 137.558 377.422 142.388 378.113 147.64C379.325 142.452 380.287 136.829 378.129 131.952C375.873 126.853 370.297 123.541 364.675 123.424C359.054 123.308 353.574 126.152 349.999 130.447C352.967 120.94 361.946 113.464 371.958 112.568C381.97 111.672 392.327 117.645 396.146 126.849C399.965 136.053 396.656 147.738 388.357 153.349C380.057 158.961 367.591 157.604 360.976 150.111C360.228 155.408 365.09 159.972 370.159 161.817C380.811 165.695 393.931 161.14 399.802 151.522C405.672 141.906 403.646 128.288 395.225 120.756C398.088 120.651 400.993 120.983 403.674 121.982C409.721 124.235 414.162 129.856 415.7 136.069C417.237 142.281 416.081 148.962 413.279 154.726C410.889 159.64 407.298 164.009 402.778 167.125C395.767 171.958 386.974 173.548 378.437 173.878C374.269 174.039 370.046 173.923 366.011 172.875C358.449 170.912 351.86 165.553 348.444 158.592C345.027 151.631 344.847 143.191 347.961 136.092C341.99 142.384 335.917 150.447 335.457 159.068C334.998 167.689 338.962 176.757 346.453 181.177C352.948 185.01 360.988 184.999 368.522 184.386C376.564 183.733 384.938 182.373 391.378 177.56C387.864 183.059 381.096 186.69 374.675 188.087C361.825 190.883 347.415 189.567 337.048 181.545C333.352 178.685 330.254 175.023 328.31 170.795C326.69 167.269 325.893 163.42 325.497 159.568C324.205 147.007 327.242 133.89 334.737 123.673C342.231 113.458 354.297 106.422 367.034 105.808C370.197 105.654 373.364 105.881 376.521 106.113C381.329 106.465 386.421 106.927 390.301 109.765C378.412 99.6865 361.821 96.9049 346.384 99.4513C341.839 100.202 337.315 101.541 333.478 104.068C329.642 106.597 326.537 110.422 325.581 114.885C324.994 117.624 325.131 120.724 323.304 122.861C322.198 124.151 320.563 124.841 319.07 125.67C313.364 128.836 309.255 134.679 308.232 141.074C307.015 148.686 309.97 156.314 313.345 163.259C315.481 167.654 317.845 172.01 321.165 175.614C327.584 182.584 336.934 186.101 346.115 188.618C350.7 189.876 355.453 190.953 360.179 190.408C350.325 193.744 338.856 193.443 329.532 188.853C320.207 184.264 312.534 176.86 306.28 168.616C302.385 163.481 298.929 157.863 297.408 151.619C295.886 145.376 296.5 138.4 300.207 133.13C303.369 128.636 308.644 125.421 310.123 120.145" stroke="white" stroke-width="3" stroke-miterlimit="10" stroke-linecap="round" stroke-linejoin="round"/>
<path d="M139.241 768.956C159.294 754.687 179.349 740.415 199.402 726.146C208.82 719.443 218.278 712.708 226.601 704.709C233.434 698.141 239.441 690.78 245.127 683.216C264.665 657.231 280.926 627.769 285.122 595.642C287.804 575.099 285.466 554.271 285.851 533.56C286.237 512.851 289.774 491.204 302.448 474.725C305.283 471.039 309.502 467.348 314.056 468.413C319.07 469.585 320.977 475.654 321.187 480.75C321.672 492.608 317.873 504.222 313.345 515.208C303.73 538.536 288.476 562.183 264.229 569.837C235.347 578.956 211.667 560.956 193.894 540.791C174.809 519.137 152.202 497.798 123.553 489.785C89.3403 480.218 49.5548 483.989 30.7076 517.697C21.3085 534.509 20.8452 555.451 27.4738 573.511C34.1024 591.571 47.3282 606.82 63.1301 617.976C87.5064 635.185 118.439 643.051 148.175 639.603C164.107 637.756 180.274 632.387 191.446 620.991C202.618 609.596 207.464 591.25 199.887 577.255C196.341 570.706 190.539 565.666 184.639 561.075C176.897 555.049 168.566 549.427 159.09 546.774C144.729 542.754 127.73 546.801 118.611 558.497C109.493 570.193 110.762 589.289 122.762 598.069C134.763 606.85 155.346 600.6 158.499 586.16C161.297 573.354 151.346 561.407 141.203 552.99C126.609 540.882 109.171 530.876 90.1531 529.906C71.1351 528.936 50.6622 539.102 44.442 556.921C40.7723 567.437 44.1298 581.586 54.8031 585.069C63.2028 587.81 72.0324 583.015 79.5446 578.394C91.233 571.208 103.047 563.899 112.552 554.052C135.538 530.242 141.619 491.968 127.123 462.321C122.375 452.612 115.741 443.952 109.417 435.166C91.3548 410.075 75.0404 381.981 73.6621 351.201C72.0854 315.989 86.8486 273.487 126.63 267.426C133.469 266.384 140.822 266.653 146.807 270.089C155.509 275.087 159.438 286.895 155.438 296.035C151.438 305.175 140.05 310.416 130.416 307.549C119.937 304.433 113.691 293.856 110.012 283.655C100.263 256.638 101.781 225.212 116.748 200.646C131.716 176.08 160.712 159.733 189.571 162.328C195.665 162.876 201.842 164.28 206.922 167.66C213.654 172.14 221.012 184.779 217.707 192.929C214.685 200.382 203.853 202.291 197.006 197.983C190.16 193.676 187.04 185.212 186.696 177.19C185.724 154.399 203.248 134.638 222.881 122.699C235.773 114.86 250.241 109.157 265.327 108.027C280.414 106.9 296.153 110.642 307.989 119.972" stroke="white" stroke-width="3" stroke-miterlimit="10" stroke-linecap="round" stroke-linejoin="round"/>
<path d="M236.582 351.776C230.731 347.263 227.691 338.496 231.663 332.293C235.936 325.622 246.578 325.224 252.717 330.266C258.859 335.308 260.856 344.026 259.758 351.85C259.089 345.432 254.81 339.165 248.545 337.384C242.282 335.604 234.585 339.536 233.523 345.902C240.913 341.771 251.622 345.142 254.973 352.861C258.325 360.58 253.132 370.787 244.81 372.437C240.799 373.232 236.607 372.235 232.894 370.534C223.165 366.075 215.779 355.495 217.734 345.06C219.174 350.995 223.407 356.202 228.954 358.863C234.5 361.524 241.253 361.585 246.849 359.025C247.72 358.626 248.712 357.847 248.417 356.939C248.223 356.338 247.548 356.051 246.939 355.858C242.097 354.332 236.705 354.212 232.409 351.523C225.537 347.224 223.984 337.116 227.927 330.077C231.869 323.039 240.035 319.046 248.133 318.35C251.16 318.09 254.261 318.236 257.157 319.153C265.523 321.801 270.826 330.964 270.131 339.631C269.436 348.299 263.507 356.055 255.847 360.311C258.771 361.394 262.001 361.649 265.06 361.042C271.869 359.691 277.335 354.097 279.648 347.614C281.961 341.13 281.451 333.918 279.479 327.325C277.751 321.548 274.628 315.781 269.281 312.902C264.997 310.596 259.878 310.455 255.015 310.785C244.488 311.498 233.407 314.597 226.635 322.607C228.121 316.111 233 310.668 238.952 307.564C244.903 304.46 251.824 303.515 258.539 303.908C262.05 304.114 265.584 304.683 268.788 306.116C272.631 307.834 275.81 310.697 278.92 313.516C282.988 317.202 287.127 320.978 289.785 325.76C296.086 337.098 292.375 352.007 283.659 361.651C273.909 372.441 258.294 377.695 243.919 375.022C254.237 379.511 266.037 383.56 276.499 379.411C281.362 377.483 285.375 373.961 289.281 370.505C294.07 366.269 299.055 361.74 301.038 355.695C302.116 352.408 302.222 348.882 301.992 345.434C300.6 324.604 286.253 305.156 266.634 297.503C263.128 296.134 259.401 295.11 255.637 295.299C249.517 295.606 244.066 299.033 238.936 302.351C232.971 306.209 227.008 310.068 221.043 313.928C216.859 316.634 212.278 319.94 211.616 324.843C211.202 327.916 212.463 330.938 212.918 334.006C214.234 342.879 208.775 351.881 210.747 360.636C212.217 367.165 217.683 372.243 223.831 375.018C229.979 377.794 236.809 378.63 243.517 379.431C232.429 385.898 216.823 383.342 208.432 373.683C199.647 363.571 199.443 348.872 200.191 335.555C200.374 332.317 200.59 329.047 201.493 325.929C202.826 321.326 205.583 317.277 208.298 313.314C211.318 308.909 214.56 304.308 219.407 302.007C224.253 299.707 229.986 300.063 235.001 298.154C238.906 296.667 242.164 293.891 245.89 292.01C251.897 288.975 259.126 288.402 265.545 290.453C269.68 291.774 273.4 294.101 277.07 296.405C280.748 298.712 284.441 301.031 287.72 303.867C293.962 309.263 298.474 316.321 302.648 323.41C307.345 331.386 311.861 340.799 308.776 349.512C307.543 352.993 305.179 355.998 303.969 359.487C303.119 361.942 302.854 364.601 301.686 366.926C299.505 371.265 294.674 373.58 291.47 377.244C288.466 380.681 286.795 385.406 282.868 387.764C280.172 389.385 276.874 389.583 273.722 389.739C259.256 390.454 244.675 391.166 230.348 389.051C229.851 390.563 230.108 392.299 231.023 393.605C232.182 395.259 234.178 396.095 236.085 396.797C246.764 400.735 258.474 403.155 269.558 400.527C274.349 399.39 278.867 397.347 283.279 395.176C292.214 390.777 301.087 385.606 307.231 377.821C314.264 368.909 317.079 357.096 315.888 345.848C314.696 334.599 309.699 323.933 302.65 315.03C305.931 319.639 311.103 322.491 315.483 326.094C320.796 330.466 325.135 336.278 326.61 342.961C328.1 349.716 326.592 356.731 324.959 363.455C322.544 373.388 319.227 384.141 310.602 389.751C305.442 393.108 299.008 394.136 293.867 397.524C290.013 400.064 286.921 403.902 282.519 405.317C279.401 406.318 275.994 405.966 272.811 406.738C269.403 407.564 266.438 409.626 263.147 410.835C256.629 413.23 249.366 412.116 242.602 410.52C234.29 408.559 225.769 405.68 219.918 399.514C217.703 397.182 215.922 394.422 213.393 392.427C210.283 389.974 206.323 388.893 202.482 387.869C198.972 386.934 195.436 385.993 191.807 385.756C170.898 384.382 153.284 406.038 132.503 403.359C141.819 413.764 153.802 421.149 167.827 420.407C171.344 420.22 174.829 419.643 178.289 418.986C185.569 417.605 192.96 415.798 199.105 411.698C205.253 407.597 209.996 400.758 209.712 393.426C199.001 405.443 181.536 411.131 165.713 407.758C162.946 407.169 160.093 406.322 157.339 406.971C168.481 405.214 179.751 403.421 190.144 399.069C197.008 396.194 204.024 392.126 211.383 393.306C212.567 405.67 202.19 416.546 201.685 428.955C201.269 439.186 207.686 448.541 215.31 455.459C217.797 457.718 220.462 459.829 222.525 462.473C224.589 465.118 226.028 468.438 225.6 471.754C231.795 459.537 232.71 444.799 228.072 431.924C226.242 426.844 223.609 422.09 221.553 417.096C218.644 410.034 216.78 402.313 211.836 396.466C212.366 400.583 212.897 404.702 213.427 408.819C214.016 413.393 214.63 418.056 216.627 422.22C218.149 425.392 220.436 428.19 221.687 431.477C222.987 434.89 223.093 438.624 223.038 442.273C222.989 445.554 222.824 448.831 222.545 452.1C221.116 446.493 217.505 441.72 214.891 436.546C210.101 427.058 208.703 415.932 210.998 405.571" stroke="white" stroke-width="3" stroke-miterlimit="10" stroke-linecap="round" stroke-linejoin="round"/>
<path d="M335.919 257.598C338.395 254.004 343.745 252.951 347.69 254.869C351.634 256.788 354.024 261.192 354.055 265.543C354.089 269.893 351.994 274.095 348.913 277.2C353.867 276.739 358.055 272.715 359.451 267.988C360.847 263.259 359.747 258.043 357.283 253.763C354.246 248.486 348.679 244.254 342.543 244.351C336.408 244.446 330.451 250.039 331.385 256.041C329.037 251.677 326.732 246.833 327.684 241.982C329.151 234.517 337.613 230.523 345.255 229.757C348.74 229.407 352.4 229.512 355.547 231.036C359.551 232.976 362.137 236.891 364.391 240.697C368.991 248.46 373.179 257.381 371.202 266.165C369.382 274.251 361.457 280.909 353.117 280.259C344.774 279.612 337.772 270.713 340.146 262.771C337.698 266.973 335.206 271.291 334.372 276.072C333.537 280.854 334.686 286.275 338.479 289.349C344.358 294.111 353.152 291.322 359.871 287.813C364.518 285.385 369.032 282.705 373.381 279.785C375.206 278.56 377.041 277.254 378.263 275.439C380.328 272.367 380.295 268.373 379.741 264.724C378.465 256.329 374.783 248.305 369.237 241.832C374.821 242.604 378.934 247.432 381.485 252.41C385.767 260.761 387.194 270.665 384.654 279.686C382.113 288.707 375.416 296.659 366.598 300.053C358.169 303.297 348.691 302.293 339.885 300.255C336.58 299.491 333.233 298.555 330.452 296.626C327.442 294.539 325.306 291.425 323.659 288.173C320.604 282.143 319.011 275.394 319.053 268.649C319.082 263.958 319.887 259.303 320.945 254.729C322.771 246.851 325.361 239.146 328.668 231.753C324.595 236.181 320.427 240.769 318.391 246.406C316.28 252.253 316.665 258.697 315.12 264.713C313.496 271.032 309.742 276.937 309.84 283.457C309.942 290.235 314.384 296.42 320.101 300.15C325.819 303.881 332.677 305.494 339.455 306.452C347.743 307.622 356.755 307.768 363.835 303.346C349.575 312.943 329.608 313.409 314.906 304.491C307.083 299.746 300.887 292.729 295.854 285.133C293.697 281.875 291.712 278.452 290.626 274.708C288.837 268.548 289.664 261.688 292.866 256.117C297.207 248.567 305.519 243.548 308.664 235.439C309.542 233.176 310.003 230.698 311.458 228.75C313.255 226.342 316.253 225.156 319.147 224.279C329.693 221.086 341.147 220.491 351.778 223.395C362.408 226.299 372.137 232.826 378.119 241.999C376.552 235.124 372.81 228.686 367.322 224.198C362.062 219.896 355.5 217.532 349.082 215.244C344.684 213.678 340.181 212.094 335.508 212.059C327.984 212.004 321.097 215.937 314.633 219.746C308.911 223.121 303.137 226.532 298.295 231.061C293.453 235.59 289.556 241.393 288.535 247.908C287.845 252.301 288.476 256.867 287.335 261.167C286.701 263.562 285.536 265.788 284.765 268.142C281.545 277.964 285.421 288.581 289.738 297.981C291.735 302.326 294.038 306.853 298.126 309.382C300.973 311.145 304.38 311.736 307.69 312.292C312.104 313.032 316.52 313.775 320.934 314.515C327.293 315.584 333.739 316.655 340.166 316.078C355.137 314.731 367.693 304.796 379.256 295.283C381.826 293.168 384.418 291.032 386.48 288.427C392.028 281.414 393.049 271.996 393.864 263.125C394.271 258.683 394.673 254.156 393.687 249.806C392.423 244.231 388.995 239.416 385.643 234.764C382.733 230.727 379.824 226.69 376.914 222.65C382.576 226.114 387.165 231.271 389.922 237.27C391.911 241.601 392.951 246.309 394.905 250.653C396.546 254.305 398.814 257.659 400.434 261.319C404.807 271.193 404.009 283.156 398.364 292.377C395.665 296.788 391.989 300.518 388.349 304.207C384.12 308.489 379.776 312.857 374.34 315.483C363.14 320.891 349.857 317.915 337.452 319.079C328.919 319.88 319.779 322.588 312.171 318.681C317.148 324.452 324.702 327.634 332.314 328.534C339.926 329.434 347.642 328.239 355.088 326.435C366.234 323.735 377.151 319.602 386.531 313.057C395.91 306.513 403.697 297.415 407.416 286.67C409.106 281.785 409.939 276.654 410.575 271.53C411.251 266.091 411.708 260.547 410.722 255.155C409.639 249.224 406.858 243.747 403.964 238.444C399.499 230.264 394.106 221.754 385.431 218.187C380.935 216.339 375.944 216.008 371.339 214.44C367.772 213.225 364.501 211.287 361.004 209.882C351.589 206.095 341.087 206.332 330.928 206.63C328.611 206.698 326.17 206.801 324.207 208.019C322.711 208.948 321.664 210.424 320.411 211.658C315.369 216.623 307.072 217.589 302.707 223.146C302.487 218.121 305.094 213.252 308.835 209.848C312.575 206.445 317.35 204.347 322.208 202.876C335.679 198.794 350.344 199.169 363.892 202.997C377.44 206.824 389.894 214.004 400.628 223.037C399.974 218.491 395.476 215.635 391.424 213.398C386.205 210.515 380.988 207.633 375.769 204.752C371.927 202.629 368.066 200.499 363.957 198.944C356.635 196.174 348.744 195.309 340.953 194.469C337.859 194.135 334.747 193.8 331.638 193.975C323.633 194.424 316.225 198.197 309.365 202.306C302.126 206.643 295.044 211.565 289.946 218.252C280.765 230.299 279.387 247.679 286.554 260.998C281.207 256.195 281.335 248.06 279.974 241.041C277.041 225.899 265.598 213.505 252.389 205.335C248.814 203.123 244.879 200.954 242.973 197.229C245.718 205.084 242.776 212.471 245.04 220.475C246.234 224.699 248.529 228.529 250.921 232.222C257.972 243.107 266.933 253.897 279.465 257.54C272.764 255.462 266.063 253.384 259.362 251.308C256.146 250.311 252.896 249.308 249.537 249.051C244.394 248.659 239.236 250.049 234.593 252.272C232.998 253.036 231.441 253.907 230.083 255.032C227.923 256.825 226.334 259.202 224.267 261.097C222.4 262.81 220.181 264.093 218.166 265.634C214.228 268.651 211.139 272.599 208.096 276.5C220.424 281.338 234.184 282.536 247.176 279.904C257.455 277.82 267.094 273.444 276.615 269.079C279.793 267.621 283.133 266.027 285.081 263.144C281.778 260.806 277.239 262.316 273.42 263.679C260.241 268.377 246.077 270.354 232.099 269.442C237.764 266.993 243.473 264.528 249.517 263.247C253.856 262.326 258.303 262.03 262.733 261.737C269.921 261.26 277.107 260.784 284.296 260.308C281.081 255.946 277.467 251.874 273.51 248.159C271.537 246.307 269.462 244.522 267.887 242.328C265.782 239.394 264.685 235.892 263.214 232.601C260.911 227.442 257.63 222.715 253.593 218.734" stroke="white" stroke-width="3" stroke-miterlimit="10" stroke-linecap="round" stroke-linejoin="round"/>
<path d="M469.974 247.799C463.653 246.878 457.26 248.824 451.405 251.353C436.746 257.686 423.825 267.91 414.353 280.668C417.127 267.936 425.448 257.734 435.709 249.584C445.016 242.19 455.432 236.164 466.51 231.769C467.551 242.538 472.395 253.232 479.053 261.811C477.299 273.407 467.449 284.015 456.29 287.945C445.132 291.876 432.986 291.706 421.144 291.493C430.006 288.433 438.951 284.819 447.812 281.76C453.736 279.715 459.734 277.633 464.941 274.171C467.231 272.649 469.341 270.843 471.13 268.762C473.058 266.515 474.014 263.972 475.204 261.274C475.713 260.121 476.231 258.879 475.988 257.647" stroke="white" stroke-width="3" stroke-miterlimit="10" stroke-linecap="round" stroke-linejoin="round"/>
<path d="M593.516 793.852C558.675 783.97 525.545 768.239 495.909 747.594C469.457 729.166 460.229 692.288 459.838 661.83C459.469 633.107 466.296 604.801 473.834 577.062C479.375 556.672 485.179 535.127 494.382 516.159C497.651 509.424 506.938 494.719 497.719 493.191C493.647 492.516 486.661 493.2 482.534 493.364C423.819 495.685 369.013 466.778 317.551 438.698C303.63 431.101 291.148 422.826 286.19 407.875C310.147 416.587 331.385 431.397 350.782 447.818C362.606 457.829 373.904 468.53 386.727 477.253C398.139 485.017 409.574 491.272 423.348 493.587C437.526 495.97 452.024 495.327 466.32 494.651C483.677 493.828 501.216 493.881 518.169 490.574C536.164 487.062 552.942 482.846 570.151 476.316C574.551 474.647 578.926 472.856 582.967 470.458C591.559 465.357 596.742 458.019 602.101 449.917C602.699 449.012 603.235 448.063 603.695 447.079C605.564 443.069 605.965 438.618 605.215 434.289C605.083 433.529 604.916 432.775 604.724 432.029C603.605 427.707 601.329 423.614 599.436 419.561C597.481 415.372 595.325 411.245 592.54 407.529C589.986 404.119 586.528 401.34 582.57 399.625C577.381 397.378 571.598 396.851 565.934 396.834C558.237 396.81 550.538 397.675 543.044 399.405C541.122 399.849 538.922 400.607 538.318 402.467C542.624 402.797 546.929 402.045 551.239 401.75C561.795 401.029 572.733 403.021 582.782 399.744C584.73 399.108 586.658 398.253 588.131 396.836C590.143 394.9 591.109 392.033 590.978 389.259C590.846 386.485 589.688 383.816 587.989 381.606C585.517 378.395 581.901 376.087 577.917 375.22C582.442 371.621 583.693 365.2 582.961 359.497C582.66 357.157 581.975 354.678 580.128 353.187C577.577 351.129 573.752 351.698 570.787 353.11C565.684 355.539 561.85 359.977 558.689 364.629C555.527 369.28 552.865 374.282 549.262 378.609C545.852 382.706 541.677 386.1 537.847 389.817C536.955 390.682 534.911 392.287 536.097 393.599C536.507 394.052 537.112 394.28 537.707 394.435C542.69 395.726 546.676 392.311 550.287 389.385C553.939 386.427 557.289 383.068 561.271 380.525C562.562 379.701 563.917 378.968 565.339 378.387C568.294 377.182 571.49 376.651 574.479 375.528C582.358 372.567 583.858 365.019 582.682 357.452C582.346 355.289 581.622 353.137 580.237 351.428C578.427 349.195 575.698 347.939 573.246 346.421C566.242 342.082 555.453 328.779 563.193 321.044C566.069 318.169 569.448 315.843 572.478 313.129C575.508 310.416 578.26 307.179 579.346 303.282C580.432 299.382 579.493 294.727 576.246 292.272C574.785 291.168 572.996 290.585 571.215 290.136C558.054 286.82 545.017 286.884 532.259 281.451C523.702 277.806 515.538 273.081 508.709 266.81C500.085 258.889 495.222 248.915 491.303 238.156C481.334 210.793 463.718 184.373 436.86 172.576" stroke="white" stroke-width="3" stroke-miterlimit="10" stroke-linecap="round" stroke-linejoin="round"/>
<path d="M126.023 768.236C147.418 753.554 168.816 738.87 190.211 724.188C200.26 717.292 210.351 710.362 219.231 702.132C226.522 695.374 232.93 687.8 238.997 680.018C259.843 653.282 277.193 622.968 281.67 589.911C284.532 568.775 282.037 547.345 282.447 526.035C282.86 504.727 286.633 482.455 300.155 465.499C303.18 461.707 307.682 457.909 312.54 459.005C317.891 460.211 319.925 466.455 320.149 471.699C320.666 483.899 316.613 495.849 311.782 507.153C301.523 531.155 285.248 555.485 259.378 563.361C228.562 572.743 203.298 554.223 184.335 533.475C163.972 511.195 139.852 489.239 109.285 480.995C72.7814 471.151 30.3325 475.031 10.2236 509.713C0.195299 527.011 -0.299087 548.559 6.77329 567.141C13.8457 585.723 27.9569 601.413 44.8166 612.891C70.8248 630.598 103.828 638.692 135.555 635.144C152.553 633.244 169.802 627.72 181.722 615.993C193.642 604.269 198.813 585.393 190.728 570.993C186.945 564.255 180.755 559.069 174.459 554.345C166.199 548.145 157.311 542.361 147.201 539.631C131.878 535.495 113.741 539.659 104.012 551.693C94.2834 563.727 95.6367 583.375 108.441 592.409C121.245 601.443 143.206 595.013 146.57 580.155C149.555 566.979 138.938 554.687 128.116 546.027C112.545 533.569 93.9399 523.273 73.6487 522.275C53.3575 521.277 31.514 531.737 24.8774 550.071C20.962 560.891 24.5443 575.449 35.9322 579.033C44.8941 581.853 54.3149 576.919 62.33 572.165C74.8009 564.771 87.4059 557.251 97.5473 547.119C122.072 522.621 128.56 483.241 113.094 452.736C108.028 442.746 100.949 433.836 94.2017 424.796C74.9308 398.98 57.5243 370.074 56.0536 338.404C54.3714 302.174 70.123 258.443 112.568 252.207C119.864 251.135 127.71 251.411 134.095 254.947C143.379 260.089 147.571 272.239 143.304 281.643C139.037 291.048 126.886 296.44 116.607 293.49C105.426 290.284 98.7623 279.401 94.8365 268.905C84.4353 241.107 86.0547 208.773 102.024 183.497C117.993 158.221 148.931 141.401 179.722 144.071C186.224 144.635 192.815 146.079 198.234 149.557C205.418 154.167 213.267 167.171 209.742 175.557C206.518 183.225 194.96 185.189 187.655 180.757C180.35 176.325 177.021 167.617 176.655 159.363C175.618 135.913 194.315 115.58 215.262 103.296C229.017 95.2304 244.454 89.3623 260.549 88.2003C276.646 87.0403 293.439 90.8903 306.067 100.49" stroke="#D7768A" stroke-width="3" stroke-miterlimit="10" stroke-linecap="round" stroke-linejoin="round"/>
<path d="M610.709 793.852C573.535 783.684 538.188 767.498 506.568 746.256C478.345 727.296 468.499 689.352 468.082 658.014C467.689 628.459 474.973 599.335 483.015 570.795C488.927 549.815 495.119 527.647 504.938 508.131C508.426 501.201 518.335 486.071 508.499 484.499C504.154 483.805 496.701 484.509 492.297 484.677C429.652 487.065 371.177 457.322 316.269 428.43C301.417 420.614 288.099 412.1 282.81 396.716C308.37 405.68 331.03 420.918 351.726 437.814C364.341 448.114 376.395 459.124 390.077 468.101C402.252 476.089 414.453 482.525 429.149 484.907C444.276 487.359 459.745 486.697 474.998 486.001C493.517 485.155 512.23 485.209 530.318 481.807C549.517 478.193 567.418 473.855 585.78 467.137C590.475 465.419 595.142 463.577 599.453 461.108C608.621 455.86 614.151 448.31 619.868 439.974C620.507 439.042 621.079 438.066 621.569 437.054C623.564 432.928 623.991 428.348 623.191 423.894C623.05 423.112 622.872 422.336 622.667 421.568C621.473 417.122 619.045 412.91 617.025 408.74C614.939 404.43 612.639 400.184 609.668 396.36C606.943 392.852 603.254 389.992 599.03 388.228C593.493 385.916 587.324 385.374 581.28 385.356C573.068 385.332 564.854 386.222 556.858 388.002C554.807 388.458 552.461 389.238 551.815 391.152C556.41 391.492 561.004 390.718 565.602 390.414C576.864 389.672 588.535 391.722 599.257 388.35C601.335 387.696 603.392 386.816 604.963 385.358C607.11 383.366 608.141 380.416 608.001 377.562C607.86 374.708 606.624 371.962 604.812 369.688C602.175 366.384 598.316 364.01 594.065 363.118C598.894 359.414 600.229 352.808 599.447 346.94C599.127 344.532 598.396 341.982 596.424 340.448C593.703 338.33 589.622 338.916 586.459 340.368C581.014 342.868 576.923 347.434 573.55 352.22C570.177 357.006 567.337 362.152 563.492 366.604C559.854 370.82 555.4 374.312 551.313 378.136C550.362 379.026 548.181 380.678 549.446 382.028C549.884 382.494 550.529 382.728 551.164 382.888C556.481 384.216 560.733 380.702 564.586 377.692C568.483 374.648 572.056 371.192 576.305 368.576C577.683 367.728 579.129 366.974 580.645 366.376C583.798 365.136 587.209 364.59 590.397 363.434C598.804 360.388 600.405 352.622 599.15 344.836C598.791 342.61 598.018 340.396 596.542 338.638C594.61 336.34 591.698 335.048 589.082 333.486C581.609 329.022 570.098 315.334 578.356 307.376C581.425 304.418 585.03 302.024 588.263 299.232C591.495 296.439 594.432 293.109 595.59 289.099C596.749 285.087 595.748 280.297 592.283 277.771C590.724 276.635 588.816 276.035 586.916 275.573C572.873 272.161 558.963 272.227 545.351 266.637C536.221 262.887 527.511 258.025 520.224 251.573C511.024 243.423 505.835 233.161 501.653 222.091C491.017 193.937 472.222 166.753 443.566 154.615" stroke="#D7768A" stroke-width="3" stroke-miterlimit="10" stroke-linecap="round" stroke-linejoin="round"/>
</svg>
